font.ufo
<glyph name="exclam" format="1">
  <advance width="209"/>
  <unicode hex="0021"/>
  <outline>
    <contour>
      <point x="50" y="626" type="line"/>
      <point x="67" y="204" type="line"/>
      <point x="142" y="204" type="line"/>
      <point x="159" y="626" type="line"/>
    </contour>
    <contour>
      <point x="53" y="0" type="line"/>
      <point x="154" y="0" type="line"/>
      <point x="154" y="123" type="line"/>
      <point x="53" y="123" type="line"/>
    </contour>
  </outline>
</glyph>
<glyph name="quotedbl" format="1">
  <advance width="292"/>
  <unicode hex="0022"/>
  <outline>
    <contour>
      <point x="36" y="626" type="line"/>
      <point x="36" y="403" type="line"/>
      <point x="119" y="403" type="line"/>
      <point x="119" y="626" type="line"/>
    </contour>
    <contour>
      <point x="173" y="626" type="line"/>
      <point x="173" y="403" type="line"/>
      <point x="256" y="403" type="line"/>
      <point x="256" y="626" type="line"/>
    </contour>
  </outline>
</glyph>
<glyph name="numbersign" format="1">
  <advance width="496"/>
  <unicode hex="0023"/>
  <outline>
    <contour>
      <point x="167" y="626" type="line"/>
      <point x="55" y="0" type="line"/>
      <point x="136" y="0" type="line"/>
      <point x="247" y="626" type="line"/>
    </contour>
    <contour>
      <point x="466" y="465" type="line"/>
      <point x="64" y="465" type="line"/>
      <point x="64" y="396" type="line"/>
      <point x="466" y="396" type="line"/>
    </contour>
    <contour>
      <point x="329" y="0" type="line"/>
      <point x="441" y="626" type="line"/>
      <point x="361" y="626" type="line"/>
      <point x="249" y="0" type="line"/>
    </contour>
    <contour>
      <point x="30" y="161" type="line"/>
      <point x="433" y="161" type="line"/>
      <point x="433" y="230" type="line"/>
      <point x="30" y="230" type="line"/>
    </contour>
  </outline>
</glyph>
<glyph name="percent" format="1">
  <advance width="641"/>
  <unicode hex="0025"/>
  <outline>
    <contour>
      <point x="251" y="549" type="line"/>
      <point x="251" y="601"/>
      <point x="228" y="626"/>
      <point x="173" y="626" type="curve" smooth="yes"/>
      <point x="107" y="626" type="line" smooth="yes"/>
      <point x="52" y="626"/>
      <point x="29" y="601"/>
      <point x="29" y="549" type="curve" smooth="yes"/>
      <point x="29" y="365" type="line" smooth="yes"/>
      <point x="29" y="314"/>
      <point x="52" y="288"/>
      <point x="107" y="288" type="curve"/>
      <point x="173" y="288" type="line" smooth="yes"/>
      <point x="228" y="288"/>
      <point x="251" y="314"/>
      <point x="251" y="365" type="curve" smooth="yes"/>
    </contour>
    <contour>
      <point x="612" y="261" type="line"/>
      <point x="612" y="312"/>
      <point x="589" y="338"/>
      <point x="535" y="338" type="curve"/>
      <point x="468" y="338" type="line"/>
      <point x="414" y="338"/>
      <point x="390" y="312"/>
      <point x="390" y="261" type="curve" smooth="yes"/>
      <point x="390" y="77" type="line" smooth="yes"/>
      <point x="390" y="26"/>
      <point x="414" y="0"/>
      <point x="468" y="0" type="curve" smooth="yes"/>
      <point x="535" y="0" type="line" smooth="yes"/>
      <point x="589" y="0"/>
      <point x="612" y="26"/>
      <point x="612" y="77" type="curve" smooth="yes"/>
    </contour>
    <contour>
      <point x="177" y="377" type="line"/>
      <point x="177" y="354"/>
      <point x="173" y="349"/>
      <point x="151" y="349" type="curve" smooth="yes"/>
      <point x="129" y="349" type="line" smooth="yes"/>
      <point x="106" y="349"/>
      <point x="103" y="354"/>
      <point x="103" y="377" type="curve" smooth="yes"/>
      <point x="103" y="538" type="line" smooth="yes"/>
      <point x="103" y="560"/>
      <point x="106" y="565"/>
      <point x="129" y="565" type="curve"/>
      <point x="151" y="565" type="line" smooth="yes"/>
      <point x="173" y="565"/>
      <point x="177" y="560"/>
      <point x="177" y="538" type="curve" smooth="yes"/>
    </contour>
    <contour>
      <point x="538" y="88" type="line"/>
      <point x="538" y="66"/>
      <point x="535" y="61"/>
      <point x="512" y="61" type="curve"/>
      <point x="491" y="61" type="line"/>
      <point x="468" y="61"/>
      <point x="464" y="66"/>
      <point x="464" y="88" type="curve" smooth="yes"/>
      <point x="464" y="250" type="line" smooth="yes"/>
      <point x="464" y="272"/>
      <point x="468" y="277"/>
      <point x="491" y="277" type="curve" smooth="yes"/>
      <point x="512" y="277" type="line" smooth="yes"/>
      <point x="535" y="277"/>
      <point x="538" y="272"/>
      <point x="538" y="250" type="curve" smooth="yes"/>
    </contour>
    <contour>
      <point x="429" y="626" type="line"/>
      <point x="138" y="0" type="line"/>
      <point x="212" y="0" type="line"/>
      <point x="504" y="626" type="line"/>
    </contour>
  </outline>
</glyph>
<glyph name="ampersand" format="1">
  <advance width="461"/>
  <unicode hex="0026"/>
  <outline>
    <contour>
      <point x="514" y="-35" type="line"/>
      <point x="218" y="327" type="line" smooth="yes"/>
      <point x="187" y="364"/>
      <point x="151" y="398"/>
      <point x="151" y="436" type="curve" smooth="yes"/>
      <point x="151" y="527" type="line"/>
      <point x="151" y="551"/>
      <point x="156" y="556"/>
      <point x="180" y="556" type="curve" smooth="yes"/>
      <point x="226" y="556" type="line" smooth="yes"/>
      <point x="250" y="556"/>
      <point x="256" y="551"/>
      <point x="256" y="527" type="curve" smooth="yes"/>
      <point x="256" y="445" type="line" smooth="yes"/>
      <point x="256" y="404"/>
      <point x="238" y="387"/>
      <point x="199" y="361" type="curve" smooth="yes"/>
      <point x="99" y="288" type="line" smooth="yes"/>
      <point x="53" y="259"/>
      <point x="38" y="237"/>
      <point x="38" y="192" type="curve" smooth="yes"/>
      <point x="38" y="88" type="line" smooth="yes"/>
      <point x="38" y="31"/>
      <point x="67" y="0"/>
      <point x="131" y="0" type="curve" smooth="yes"/>
      <point x="339" y="0" type="line" smooth="yes"/>
      <point x="403" y="0"/>
      <point x="433" y="31"/>
      <point x="433" y="88" type="curve" smooth="yes"/>
      <point x="433" y="230" type="line"/>
      <point x="360" y="230" type="line"/>
      <point x="360" y="100" type="line" smooth="yes"/>
      <point x="360" y="76"/>
      <point x="355" y="71"/>
      <point x="331" y="71" type="curve" smooth="yes"/>
      <point x="156" y="71" type="line" smooth="yes"/>
      <point x="132" y="71"/>
      <point x="126" y="76"/>
      <point x="126" y="100" type="curve" smooth="yes"/>
      <point x="126" y="177" type="line" smooth="yes"/>
      <point x="126" y="209"/>
      <point x="135" y="220"/>
      <point x="156" y="234" type="curve" smooth="yes"/>
      <point x="268" y="309" type="line" smooth="yes"/>
      <point x="318" y="341"/>
      <point x="344" y="373"/>
      <point x="344" y="445" type="curve" smooth="yes"/>
      <point x="344" y="538" type="line" smooth="yes"/>
      <point x="344" y="595"/>
      <point x="316" y="626"/>
      <point x="252" y="626" type="curve" smooth="yes"/>
      <point x="155" y="626" type="line"/>
      <point x="90" y="626"/>
      <point x="61" y="595"/>
      <point x="61" y="538" type="curve" smooth="yes"/>
      <point x="61" y="442" type="line" smooth="yes"/>
      <point x="61" y="389"/>
      <point x="100" y="347"/>
      <point x="141" y="296" type="curve" smooth="yes"/>
      <point x="418" y="-35" type="line"/>
    </contour>
  </outline>
</glyph>
<glyph name="quotesingle" format="1">
  <advance width="161"/>
  <unicode hex="0027"/>
  <outline>
    <contour>
      <point x="36" y="626" type="line"/>
      <point x="36" y="403" type="line"/>
      <point x="125" y="403" type="line"/>
      <point x="125" y="626" type="line"/>
    </contour>
  </outline>
</glyph>
<glyph name="parenleft" format="1">
  <advance width="264"/>
  <unicode hex="0028"/>
  <outline>
    <contour>
      <point x="47" y="375" type="curve"/>
      <point x="47" y="244" type="line"/>
      <point x="47" y="-24"/>
      <point x="119" y="-175"/>
      <point x="268" y="-175" type="curve" smooth="yes"/>
      <point x="283" y="-175" type="line"/>
      <point x="283" y="-100" type="line"/>
      <point x="270" y="-99" type="line" smooth="yes"/>
      <point x="171" y="-93"/>
      <point x="137" y="44"/>
      <point x="137" y="242" type="curve" smooth="yes"/>
      <point x="137" y="376" type="line" smooth="yes"/>
      <point x="137" y="574"/>
      <point x="171" y="711"/>
      <point x="270" y="717" type="curve" smooth="yes"/>
      <point x="283" y="718" type="line"/>
      <point x="283" y="794" type="line"/>
      <point x="268" y="794" type="line" smooth="yes"/>
      <point x="119" y="794"/>
      <point x="47" y="642"/>
    </contour>
  </outline>
</glyph>
<glyph name="parenright" format="1">
  <advance width="264"/>
  <unicode hex="0029"/>
  <outline>
    <contour>
      <point x="215" y="244" type="curve"/>
      <point x="215" y="375" type="line"/>
      <point x="215" y="642"/>
      <point x="143" y="794"/>
      <point x="-6" y="794" type="curve" smooth="yes"/>
      <point x="-21" y="794" type="line"/>
      <point x="-21" y="718" type="line"/>
      <point x="-8" y="717" type="line" smooth="yes"/>
      <point x="91" y="711"/>
      <point x="125" y="574"/>
      <point x="125" y="376" type="curve" smooth="yes"/>
      <point x="125" y="242" type="line" smooth="yes"/>
      <point x="125" y="44"/>
      <point x="91" y="-93"/>
      <point x="-8" y="-99" type="curve" smooth="yes"/>
      <point x="-21" y="-100" type="line"/>
      <point x="-21" y="-175" type="line"/>
      <point x="-6" y="-175" type="line" smooth="yes"/>
      <point x="143" y="-175"/>
      <point x="215" y="-24"/>
    </contour>
  </outline>
</glyph>
<glyph name="asterisk" format="1">
  <advance width="320"/>
  <unicode hex="002A"/>
  <outline>
    <contour>
      <point x="175" y="486" type="line"/>
      <point x="175" y="486"/>
      <point x="198" y="522"/>
      <point x="198" y="590" type="curve" smooth="yes"/>
      <point x="198" y="626" type="line"/>
      <point x="123" y="626" type="line"/>
      <point x="123" y="590" type="line" smooth="yes"/>
      <point x="123" y="522"/>
      <point x="145" y="486"/>
      <point x="145" y="486" type="curve"/>
    </contour>
    <contour>
      <point x="165" y="500" type="line"/>
      <point x="165" y="500"/>
      <point x="138" y="533"/>
      <point x="73" y="554" type="curve" smooth="yes"/>
      <point x="39" y="565" type="line"/>
      <point x="16" y="494" type="line"/>
      <point x="50" y="483" type="line" smooth="yes"/>
      <point x="115" y="461"/>
      <point x="155" y="472"/>
      <point x="155" y="472" type="curve"/>
    </contour>
    <contour>
      <point x="148" y="495" type="line"/>
      <point x="148" y="495"/>
      <point x="109" y="479"/>
      <point x="69" y="424" type="curve" smooth="yes"/>
      <point x="47" y="395" type="line"/>
      <point x="109" y="351" type="line"/>
      <point x="130" y="379" type="line" smooth="yes"/>
      <point x="170" y="435"/>
      <point x="172" y="477"/>
      <point x="172" y="477" type="curve"/>
    </contour>
    <contour>
      <point x="148" y="477" type="line"/>
      <point x="148" y="477"/>
      <point x="152" y="435"/>
      <point x="191" y="381" type="curve" smooth="yes"/>
      <point x="212" y="351" type="line"/>
      <point x="273" y="395" type="line"/>
      <point x="252" y="424" type="line" smooth="yes"/>
      <point x="212" y="480"/>
      <point x="172" y="495"/>
      <point x="172" y="495" type="curve"/>
    </contour>
    <contour>
      <point x="165" y="472" type="line"/>
      <point x="165" y="472"/>
      <point x="206" y="462"/>
      <point x="270" y="483" type="curve" smooth="yes"/>
      <point x="305" y="493" type="line"/>
      <point x="281" y="565" type="line"/>
      <point x="248" y="554" type="line" smooth="yes"/>
      <point x="182" y="534"/>
      <point x="155" y="500"/>
      <point x="155" y="500" type="curve"/>
    </contour>
  </outline>
</glyph>
<glyph name="plus" format="1">
  <advance width="408"/>
  <unicode hex="002B"/>
  <outline>
    <contour>
      <point x="23" y="276" type="line"/>
      <point x="385" y="276" type="line"/>
      <point x="385" y="350" type="line"/>
      <point x="23" y="350" type="line"/>
    </contour>
    <contour>
      <point x="159" y="501" type="line"/>
      <point x="159" y="125" type="line"/>
      <point x="249" y="125" type="line"/>
      <point x="249" y="501" type="line"/>
    </contour>
  </outline>
</glyph>
<glyph name="hyphen" format="1">
  <advance width="315"/>
  <unicode hex="002D"/>
  <outline>
    <contour>
      <point x="48" y="259" type="line"/>
      <point x="266" y="259" type="line"/>
      <point x="266" y="329" type="line"/>
      <point x="48" y="329" type="line"/>
    </contour>
  </outline>
</glyph>
<glyph name="period" format="1">
  <advance width="165"/>
  <unicode hex="002E"/>
  <outline>
    <contour>
      <point x="32" y="0" type="line"/>
      <point x="133" y="0" type="line"/>
      <point x="133" y="123" type="line"/>
      <point x="32" y="123" type="line"/>
    </contour>
  </outline>
</glyph>
<glyph name="slash" format="1">
  <advance width="390"/>
  <unicode hex="002F"/>
  <outline>
    <contour>
      <point x="275" y="700" type="line"/>
      <point x="2" y="-120" type="line"/>
      <point x="86" y="-120" type="line"/>
      <point x="359" y="700" type="line"/>
    </contour>
  </outline>
</glyph>
<glyph name="zero" format="1">
  <advance width="390"/>
  <unicode hex="0030"/>
  <outline>
    <contour>
      <point x="343" y="538" type="line"/>
      <point x="343" y="595"/>
      <point x="314" y="626"/>
      <point x="250" y="626" type="curve" smooth="yes"/>
      <point x="141" y="626" type="line" smooth="yes"/>
      <point x="76" y="626"/>
      <point x="47" y="595"/>
      <point x="47" y="538" type="curve" smooth="yes"/>
      <point x="47" y="88" type="line" smooth="yes"/>
      <point x="47" y="31"/>
      <point x="76" y="0"/>
      <point x="141" y="0" type="curve"/>
      <point x="250" y="0" type="line" smooth="yes"/>
      <point x="314" y="0"/>
      <point x="343" y="31"/>
      <point x="343" y="88" type="curve" smooth="yes"/>
    </contour>
    <contour>
      <point x="252" y="102" type="line"/>
      <point x="252" y="78"/>
      <point x="246" y="73"/>
      <point x="222" y="73" type="curve" smooth="yes"/>
      <point x="168" y="73" type="line" smooth="yes"/>
      <point x="144" y="73"/>
      <point x="139" y="78"/>
      <point x="139" y="102" type="curve"/>
      <point x="139" y="524" type="line" smooth="yes"/>
      <point x="139" y="548"/>
      <point x="144" y="553"/>
      <point x="168" y="553" type="curve" smooth="yes"/>
      <point x="222" y="553" type="line" smooth="yes"/>
      <point x="246" y="553"/>
      <point x="252" y="548"/>
      <point x="252" y="524" type="curve" smooth="yes"/>
    </contour>
  </outline>
</glyph>
<glyph name="one" format="1">
  <advance width="235"/>
  <unicode hex="0031"/>
  <outline>
    <contour>
      <point x="138" y="626" type="line"/>
      <point x="20" y="626" type="line"/>
      <point x="20" y="553" type="line"/>
      <point x="138" y="553" type="line"/>
    </contour>
    <contour>
      <point x="92" y="626" type="line"/>
      <point x="92" y="0" type="line"/>
      <point x="183" y="0" type="line"/>
      <point x="183" y="626" type="line"/>
    </contour>
  </outline>
</glyph>
<glyph name="two" format="1">
  <advance width="328"/>
  <unicode hex="0032"/>
  <outline>
    <contour>
      <point x="115" y="524" type="line"/>
      <point x="115" y="548"/>
      <point x="121" y="553"/>
      <point x="145" y="553" type="curve"/>
      <point x="177" y="553" type="line" smooth="yes"/>
      <point x="202" y="553"/>
      <point x="207" y="548"/>
      <point x="207" y="524" type="curve" smooth="yes"/>
      <point x="207" y="478" type="line" smooth="yes"/>
      <point x="207" y="431"/>
      <point x="201" y="400"/>
      <point x="179" y="358" type="curve"/>
      <point x="26" y="70" type="line"/>
      <point x="26" y="0" type="line"/>
      <point x="302" y="0" type="line"/>
      <point x="302" y="73" type="line"/>
      <point x="128" y="73" type="line"/>
      <point x="263" y="338" type="line"/>
      <point x="288" y="386"/>
      <point x="298" y="422"/>
      <point x="298" y="475" type="curve" smooth="yes"/>
      <point x="298" y="538" type="line" smooth="yes"/>
      <point x="298" y="595"/>
      <point x="268" y="626"/>
      <point x="204" y="626" type="curve" smooth="yes"/>
      <point x="118" y="626" type="line" smooth="yes"/>
      <point x="54" y="626"/>
      <point x="25" y="595"/>
      <point x="25" y="538" type="curve" smooth="yes"/>
      <point x="25" y="422" type="line"/>
      <point x="115" y="422" type="line"/>
    </contour>
  </outline>
</glyph>
<glyph name="three" format="1">
  <advance width="355"/>
  <unicode hex="0033"/>
  <outline>
    <contour>
      <point x="119" y="524" type="line"/>
      <point x="119" y="548"/>
      <point x="125" y="553"/>
      <point x="149" y="553" type="curve" smooth="yes"/>
      <point x="188" y="553" type="line" smooth="yes"/>
      <point x="212" y="553"/>
      <point x="218" y="548"/>
      <point x="218" y="524" type="curve" smooth="yes"/>
      <point x="218" y="382" type="line" smooth="yes"/>
      <point x="218" y="358"/>
      <point x="212" y="353"/>
      <point x="188" y="353" type="curve" smooth="yes"/>
      <point x="113" y="353" type="line"/>
      <point x="113" y="281" type="line"/>
      <point x="188" y="281" type="line" smooth="yes"/>
      <point x="212" y="281"/>
      <point x="218" y="276"/>
      <point x="218" y="252" type="curve" smooth="yes"/>
      <point x="218" y="102" type="line" smooth="yes"/>
      <point x="218" y="78"/>
      <point x="212" y="73"/>
      <point x="188" y="73" type="curve" smooth="yes"/>
      <point x="149" y="73" type="line" smooth="yes"/>
      <point x="125" y="73"/>
      <point x="119" y="78"/>
      <point x="119" y="102" type="curve" smooth="yes"/>
      <point x="119" y="195" type="line"/>
      <point x="29" y="195" type="line"/>
      <point x="29" y="88" type="line" smooth="yes"/>
      <point x="29" y="31"/>
      <point x="58" y="0"/>
      <point x="122" y="0" type="curve" smooth="yes"/>
      <point x="214" y="0" type="line" smooth="yes"/>
      <point x="279" y="0"/>
      <point x="308" y="31"/>
      <point x="308" y="88" type="curve" smooth="yes"/>
      <point x="308" y="260" type="line" smooth="yes"/>
      <point x="308" y="293"/>
      <point x="295" y="312"/>
      <point x="268" y="318" type="curve"/>
      <point x="295" y="324"/>
      <point x="308" y="346"/>
      <point x="308" y="380" type="curve" smooth="yes"/>
      <point x="308" y="538" type="line" smooth="yes"/>
      <point x="308" y="595"/>
      <point x="279" y="626"/>
      <point x="214" y="626" type="curve"/>
      <point x="122" y="626" type="line" smooth="yes"/>
      <point x="58" y="626"/>
      <point x="29" y="595"/>
      <point x="29" y="538" type="curve" smooth="yes"/>
      <point x="29" y="430" type="line"/>
      <point x="119" y="430" type="line"/>
    </contour>
  </outline>
</glyph>
<glyph name="five" format="1">
  <advance width="358"/>
  <unicode hex="0035"/>
  <outline>
    <contour>
      <point x="131" y="199" type="line"/>
      <point x="40" y="199" type="line"/>
      <point x="40" y="88" type="line" smooth="yes"/>
      <point x="40" y="31"/>
      <point x="69" y="0"/>
      <point x="133" y="0" type="curve" smooth="yes"/>
      <point x="229" y="0" type="line" smooth="yes"/>
      <point x="294" y="0"/>
      <point x="323" y="31"/>
      <point x="323" y="88" type="curve" smooth="yes"/>
      <point x="323" y="303" type="line" smooth="yes"/>
      <point x="323" y="361"/>
      <point x="294" y="391"/>
      <point x="229" y="391" type="curve" smooth="yes"/>
      <point x="97" y="391" type="line"/>
      <point x="97" y="319" type="line"/>
      <point x="202" y="319" type="line" smooth="yes"/>
      <point x="226" y="319"/>
      <point x="232" y="313"/>
      <point x="232" y="289" type="curve" smooth="yes"/>
      <point x="232" y="102" type="line" smooth="yes"/>
      <point x="232" y="78"/>
      <point x="226" y="73"/>
      <point x="202" y="73" type="curve" smooth="yes"/>
      <point x="161" y="73" type="line" smooth="yes"/>
      <point x="137" y="73"/>
      <point x="131" y="78"/>
      <point x="131" y="102" type="curve" smooth="yes"/>
    </contour>
    <contour>
      <point x="132" y="319" type="line"/>
      <point x="132" y="553" type="line"/>
      <point x="321" y="553" type="line"/>
      <point x="321" y="626" type="line"/>
      <point x="42" y="626" type="line"/>
      <point x="42" y="319" type="line"/>
    </contour>
  </outline>
</glyph>
<glyph name="nine" format="1">
  <advance width="378"/>
  <unicode hex="0039"/>
  <outline>
    <contour>
      <point x="128" y="524" type="line"/>
      <point x="128" y="548"/>
      <point x="134" y="553"/>
      <point x="158" y="553" type="curve" smooth="yes"/>
      <point x="189" y="553" type="line"/>
      <point x="189" y="626" type="line"/>
      <point x="131" y="626" type="line" smooth="yes"/>
      <point x="67" y="626"/>
      <point x="38" y="595"/>
      <point x="38" y="538" type="curve" smooth="yes"/>
      <point x="38" y="345" type="line" smooth="yes"/>
      <point x="38" y="287"/>
      <point x="67" y="256"/>
      <point x="131" y="256" type="curve" smooth="yes"/>
      <point x="269" y="256" type="line"/>
      <point x="269" y="327" type="line"/>
      <point x="158" y="327" type="line" smooth="yes"/>
      <point x="134" y="327"/>
      <point x="128" y="333"/>
      <point x="128" y="356" type="curve" smooth="yes"/>
    </contour>
    <contour>
      <point x="240" y="102" type="line"/>
      <point x="240" y="78"/>
      <point x="235" y="73"/>
      <point x="211" y="73" type="curve" smooth="yes"/>
      <point x="181" y="73" type="line"/>
      <point x="181" y="0" type="line"/>
      <point x="237" y="0" type="line" smooth="yes"/>
      <point x="302" y="0"/>
      <point x="331" y="31"/>
      <point x="331" y="88" type="curve" smooth="yes"/>
      <point x="331" y="538" type="line" smooth="yes"/>
      <point x="331" y="595"/>
      <point x="302" y="626"/>
      <point x="237" y="626" type="curve" smooth="yes"/>
      <point x="180" y="626" type="line"/>
      <point x="180" y="553" type="line"/>
      <point x="211" y="553" type="line" smooth="yes"/>
      <point x="235" y="553"/>
      <point x="240" y="548"/>
      <point x="240" y="524" type="curve" smooth="yes"/>
    </contour>
    <contour>
      <point x="130" y="195" type="line"/>
      <point x="40" y="195" type="line"/>
      <point x="40" y="88" type="line" smooth="yes"/>
      <point x="40" y="31"/>
      <point x="69" y="0"/>
      <point x="134" y="0" type="curve" smooth="yes"/>
      <point x="192" y="0" type="line"/>
      <point x="192" y="73" type="line"/>
      <point x="160" y="73" type="line" smooth="yes"/>
      <point x="135" y="73"/>
      <point x="130" y="78"/>
      <point x="130" y="102" type="curve" smooth="yes"/>
    </contour>
  </outline>
</glyph>
<glyph name="colon" format="1">
  <advance width="165"/>
  <unicode hex="003A"/>
  <outline>
    <contour>
      <point x="32" y="70" type="line"/>
      <point x="133" y="70" type="line"/>
      <point x="133" y="193" type="line"/>
      <point x="32" y="193" type="line"/>
    </contour>
    <contour>
      <point x="32" y="295" type="line"/>
      <point x="133" y="295" type="line"/>
      <point x="133" y="418" type="line"/>
      <point x="32" y="418" type="line"/>
    </contour>
  </outline>
</glyph>
<glyph name="semicolon" format="1">
  <advance width="165"/>
  <unicode hex="003B"/>
  <outline>
    <contour>
      <point x="32" y="123" type="line"/>
      <point x="32" y="-140" type="line"/>
      <point x="64" y="-140" type="line"/>
      <point x="133" y="58" type="line"/>
      <point x="133" y="123" type="line"/>
    </contour>
    <contour>
      <point x="32" y="365" type="line"/>
      <point x="133" y="365" type="line"/>
      <point x="133" y="488" type="line"/>
      <point x="32" y="488" type="line"/>
    </contour>
  </outline>
</glyph>
<glyph name="less" format="1">
  <advance width="420"/>
  <unicode hex="003C"/>
  <outline>
    <contour>
      <point x="391" y="400" type="line"/>
      <point x="391" y="480" type="line"/>
      <point x="29" y="360" type="line"/>
      <point x="29" y="268" type="line"/>
      <point x="391" y="146" type="line"/>
      <point x="391" y="227" type="line"/>
      <point x="114" y="314" type="line"/>
    </contour>
  </outline>
</glyph>
<glyph name="equal" format="1">
  <advance width="420"/>
  <unicode hex="003D"/>
  <outline>
    <contour>
      <point x="29" y="365" type="line"/>
      <point x="391" y="365" type="line"/>
      <point x="391" y="441" type="line"/>
      <point x="29" y="441" type="line"/>
    </contour>
    <contour>
      <point x="29" y="185" type="line"/>
      <point x="391" y="185" type="line"/>
      <point x="391" y="261" type="line"/>
      <point x="29" y="261" type="line"/>
    </contour>
  </outline>
</glyph>
<glyph name="greater" format="1">
  <advance width="420"/>
  <unicode hex="003E"/>
  <outline>
    <contour>
      <point x="306" y="314" type="line"/>
      <point x="29" y="227" type="line"/>
      <point x="29" y="146" type="line"/>
      <point x="391" y="268" type="line"/>
      <point x="391" y="360" type="line"/>
      <point x="29" y="480" type="line"/>
      <point x="29" y="400" type="line"/>
    </contour>
  </outline>
</glyph>
<glyph name="question" format="1">
  <advance width="342"/>
  <unicode hex="003F"/>
  <outline>
    <contour>
      <point x="211" y="365" type="line"/>
      <point x="211" y="343"/>
      <point x="207" y="335"/>
      <point x="183" y="335" type="curve" smooth="yes"/>
      <point x="147" y="335" type="line"/>
      <point x="147" y="270" type="line"/>
      <point x="209" y="270" type="line" smooth="yes"/>
      <point x="275" y="270"/>
      <point x="302" y="304"/>
      <point x="302" y="357" type="curve" smooth="yes"/>
      <point x="302" y="539" type="line" smooth="yes"/>
      <point x="302" y="592"/>
      <point x="275" y="626"/>
      <point x="209" y="626" type="curve" smooth="yes"/>
      <point x="147" y="626" type="line"/>
      <point x="147" y="556" type="line"/>
      <point x="183" y="556" type="line" smooth="yes"/>
      <point x="207" y="556"/>
      <point x="211" y="548"/>
      <point x="211" y="526" type="curve" smooth="yes"/>
    </contour>
    <contour>
      <point x="108" y="335" type="line"/>
      <point x="116" y="204" type="line"/>
      <point x="192" y="204" type="line"/>
      <point x="200" y="335" type="line"/>
    </contour>
    <contour>
      <point x="103" y="0" type="line"/>
      <point x="204" y="0" type="line"/>
      <point x="204" y="123" type="line"/>
      <point x="103" y="123" type="line"/>
    </contour>
    <contour>
      <point x="111" y="526" type="line"/>
      <point x="111" y="548"/>
      <point x="115" y="556"/>
      <point x="139" y="556" type="curve" smooth="yes"/>
      <point x="172" y="556" type="line"/>
      <point x="172" y="626" type="line"/>
      <point x="113" y="626" type="line" smooth="yes"/>
      <point x="47" y="626"/>
      <point x="20" y="592"/>
      <point x="20" y="539" type="curve" smooth="yes"/>
      <point x="20" y="454" type="line"/>
      <point x="111" y="454" type="line"/>
    </contour>
  </outline>
</glyph>
<glyph name="at" format="1">
  <advance width="696"/>
  <unicode hex="0040"/>
  <outline>
    <contour>
      <point x="233" y="343" type="curve"/>
      <point x="233" y="167" type="line" smooth="yes"/>
      <point x="233" y="111"/>
      <point x="261" y="81"/>
      <point x="321" y="81" type="curve" smooth="yes"/>
      <point x="348" y="81" type="line" smooth="yes"/>
      <point x="382" y="81"/>
      <point x="409" y="96"/>
      <point x="414" y="132" type="curve"/>
      <point x="414" y="81" type="line"/>
      <point x="559" y="81" type="line" smooth="yes"/>
      <point x="621" y="81"/>
      <point x="650" y="112"/>
      <point x="650" y="169" type="curve" smooth="yes"/>
      <point x="650" y="487" type="line" smooth="yes"/>
      <point x="650" y="545"/>
      <point x="621" y="575"/>
      <point x="560" y="575" type="curve" smooth="yes"/>
      <point x="166" y="575" type="line" smooth="yes"/>
      <point x="104" y="575"/>
      <point x="76" y="545"/>
      <point x="76" y="487" type="curve" smooth="yes"/>
      <point x="76" y="18" type="line" smooth="yes"/>
      <point x="76" y="-39"/>
      <point x="104" y="-70"/>
      <point x="166" y="-70" type="curve" smooth="yes"/>
      <point x="492" y="-70" type="line"/>
      <point x="492" y="2" type="line"/>
      <point x="191" y="2" type="line" smooth="yes"/>
      <point x="167" y="2"/>
      <point x="162" y="8"/>
      <point x="162" y="31" type="curve" smooth="yes"/>
      <point x="162" y="473" type="line" smooth="yes"/>
      <point x="162" y="497"/>
      <point x="167" y="503"/>
      <point x="191" y="503" type="curve" smooth="yes"/>
      <point x="535" y="503" type="line" smooth="yes"/>
      <point x="560" y="503"/>
      <point x="565" y="497"/>
      <point x="565" y="473" type="curve" smooth="yes"/>
      <point x="565" y="178" type="line" smooth="yes"/>
      <point x="565" y="155"/>
      <point x="560" y="149"/>
      <point x="535" y="149" type="curve" smooth="yes"/>
      <point x="491" y="149" type="line"/>
      <point x="491" y="429" type="line"/>
      <point x="409" y="429" type="line"/>
      <point x="409" y="390" type="line"/>
      <point x="400" y="417"/>
      <point x="378" y="429"/>
      <point x="348" y="429" type="curve" smooth="yes"/>
      <point x="321" y="429" type="line" smooth="yes"/>
      <point x="261" y="429"/>
      <point x="233" y="399"/>
    </contour>
    <contour>
      <point x="318" y="332" type="line"/>
      <point x="318" y="355"/>
      <point x="323" y="360"/>
      <point x="347" y="360" type="curve" smooth="yes"/>
      <point x="376" y="360" type="line" smooth="yes"/>
      <point x="398" y="360"/>
      <point x="408" y="352"/>
      <point x="408" y="326" type="curve" smooth="yes"/>
      <point x="408" y="184" type="line" smooth="yes"/>
      <point x="408" y="158"/>
      <point x="398" y="149"/>
      <point x="376" y="149" type="curve" smooth="yes"/>
      <point x="347" y="149" type="line" smooth="yes"/>
      <point x="323" y="149"/>
      <point x="318" y="155"/>
      <point x="318" y="178" type="curve" smooth="yes"/>
    </contour>
  </outline>
</glyph>
<glyph name="A" format="1">
  <advance width="385"/>
  <unicode hex="0041"/>
  <outline>
    <contour>
      <point x="294" y="218" type="line"/>
      <point x="89" y="218" type="line"/>
      <point x="89" y="145" type="line"/>
      <point x="294" y="145" type="line"/>
    </contour>
    <contour>
      <point x="373" y="0" type="line"/>
      <point x="254" y="626" type="line"/>
      <point x="123" y="626" type="line"/>
      <point x="12" y="0" type="line"/>
      <point x="102" y="0" type="line"/>
      <point x="188" y="548" type="line"/>
      <point x="282" y="0" type="line"/>
    </contour>
  </outline>
</glyph>
<glyph name="B" format="1">
  <advance width="409"/>
  <unicode hex="0042"/>
  <outline>
    <contour>
      <point x="52" y="626" type="line"/>
      <point x="52" y="0" type="line"/>
      <point x="269" y="0" type="line" smooth="yes"/>
      <point x="334" y="0"/>
      <point x="363" y="31"/>
      <point x="363" y="88" type="curve"/>
      <point x="363" y="259" type="line" smooth="yes"/>
      <point x="363" y="292"/>
      <point x="350" y="310"/>
      <point x="323" y="317" type="curve"/>
      <point x="350" y="323"/>
      <point x="363" y="345"/>
      <point x="363" y="379" type="curve" smooth="yes"/>
      <point x="363" y="538" type="line" smooth="yes"/>
      <point x="363" y="595"/>
      <point x="334" y="626"/>
      <point x="269" y="626" type="curve" smooth="yes"/>
    </contour>
    <contour>
      <point x="272" y="100" type="line"/>
      <point x="272" y="76"/>
      <point x="266" y="71"/>
      <point x="242" y="71" type="curve" smooth="yes"/>
      <point x="142" y="71" type="line"/>
      <point x="142" y="283" type="line"/>
      <point x="242" y="283" type="line" smooth="yes"/>
      <point x="266" y="283"/>
      <point x="272" y="278"/>
      <point x="272" y="254" type="curve"/>
    </contour>
    <contour>
      <point x="272" y="383" type="line"/>
      <point x="272" y="359"/>
      <point x="266" y="354"/>
      <point x="242" y="354" type="curve" smooth="yes"/>
      <point x="142" y="354" type="line"/>
      <point x="142" y="555" type="line"/>
      <point x="242" y="555" type="line" smooth="yes"/>
      <point x="266" y="555"/>
      <point x="272" y="550"/>
      <point x="272" y="526" type="curve" smooth="yes"/>
    </contour>
  </outline>
</glyph>
<glyph name="C" format="1">
  <advance width="377"/>
  <unicode hex="0043"/>
  <outline>
    <contour>
      <point x="138" y="526" type="line"/>
      <point x="138" y="550"/>
      <point x="144" y="555"/>
      <point x="168" y="555" type="curve" smooth="yes"/>
      <point x="202" y="555" type="line"/>
      <point x="202" y="626" type="line"/>
      <point x="140" y="626" type="line" smooth="yes"/>
      <point x="76" y="626"/>
      <point x="47" y="595"/>
      <point x="47" y="538" type="curve" smooth="yes"/>
      <point x="47" y="88" type="line" smooth="yes"/>
      <point x="47" y="30"/>
      <point x="76" y="-1"/>
      <point x="140" y="-1" type="curve"/>
      <point x="196" y="-1" type="line"/>
      <point x="196" y="70" type="line"/>
      <point x="168" y="70" type="line" smooth="yes"/>
      <point x="144" y="70"/>
      <point x="138" y="75"/>
      <point x="138" y="99" type="curve" smooth="yes"/>
    </contour>
    <contour>
      <point x="248" y="430" type="line"/>
      <point x="340" y="430" type="line"/>
      <point x="340" y="538" type="line" smooth="yes"/>
      <point x="340" y="595"/>
      <point x="311" y="626"/>
      <point x="246" y="626" type="curve" smooth="yes"/>
      <point x="186" y="626" type="line"/>
      <point x="186" y="555" type="line"/>
      <point x="219" y="555" type="line" smooth="yes"/>
      <point x="243" y="555"/>
      <point x="248" y="550"/>
      <point x="248" y="526" type="curve" smooth="yes"/>
    </contour>
    <contour>
      <point x="248" y="99" type="line"/>
      <point x="248" y="75"/>
      <point x="243" y="70"/>
      <point x="219" y="70" type="curve" smooth="yes"/>
      <point x="186" y="70" type="line"/>
      <point x="186" y="-1" type="line"/>
      <point x="246" y="-1" type="line" smooth="yes"/>
      <point x="311" y="-1"/>
      <point x="340" y="30"/>
      <point x="340" y="88" type="curve" smooth="yes"/>
      <point x="340" y="194" type="line"/>
      <point x="248" y="194" type="line"/>
    </contour>
  </outline>
</glyph>
<glyph name="E" format="1">
  <advance width="343"/>
  <unicode hex="0045"/>
  <outline>
    <contour>
      <point x="52" y="626" type="line"/>
      <point x="52" y="0" type="line"/>
      <point x="143" y="0" type="line"/>
      <point x="143" y="626" type="line"/>
    </contour>
    <contour>
      <point x="287" y="360" type="line"/>
      <point x="102" y="360" type="line"/>
      <point x="102" y="287" type="line"/>
      <point x="287" y="287" type="line"/>
    </contour>
    <contour>
      <point x="317" y="626" type="line"/>
      <point x="100" y="626" type="line"/>
      <point x="100" y="553" type="line"/>
      <point x="317" y="553" type="line"/>
    </contour>
    <contour>
      <point x="324" y="73" type="line"/>
      <point x="100" y="73" type="line"/>
      <point x="100" y="0" type="line"/>
      <point x="324" y="0" type="line"/>
    </contour>
  </outline>
</glyph>
<glyph name="F" format="1">
  <advance width="332"/>
  <unicode hex="0046"/>
  <outline>
    <contour>
      <point x="52" y="626" type="line"/>
      <point x="52" y="0" type="line"/>
      <point x="143" y="0" type="line"/>
      <point x="143" y="626" type="line"/>
    </contour>
    <contour>
      <point x="287" y="347" type="line"/>
      <point x="103" y="347" type="line"/>
      <point x="103" y="276" type="line"/>
      <point x="287" y="276" type="line"/>
    </contour>
    <contour>
      <point x="325" y="626" type="line"/>
      <point x="100" y="626" type="line"/>
      <point x="100" y="553" type="line"/>
      <point x="325" y="553" type="line"/>
    </contour>
  </outline>
</glyph>
<glyph name="H" format="1">
  <advance width="417"/>
  <unicode hex="0048"/>
  <outline>
    <contour>
      <point x="303" y="348" type="line"/>
      <point x="116" y="348" type="line"/>
      <point x="116" y="275" type="line"/>
      <point x="303" y="275" type="line"/>
    </contour>
    <contour>
      <point x="52" y="626" type="line"/>
      <point x="52" y="0" type="line"/>
      <point x="142" y="0" type="line"/>
      <point x="142" y="626" type="line"/>
    </contour>
    <contour>
      <point x="275" y="626" type="line"/>
      <point x="275" y="0" type="line"/>
      <point x="365" y="0" type="line"/>
      <point x="365" y="626" type="line"/>
    </contour>
  </outline>
</glyph>
<glyph name="J" format="1">
  <advance width="334"/>
  <unicode hex="004A"/>
  <outline>
    <contour>
      <point x="14" y="206" type="line"/>
      <point x="14" y="88" type="line" smooth="yes"/>
      <point x="14" y="31"/>
      <point x="43" y="0"/>
      <point x="107" y="0" type="curve" smooth="yes"/>
      <point x="192" y="0" type="line" smooth="yes"/>
      <point x="256" y="0"/>
      <point x="285" y="31"/>
      <point x="285" y="88" type="curve" smooth="yes"/>
      <point x="285" y="626" type="line"/>
      <point x="194" y="626" type="line"/>
      <point x="194" y="102" type="line" smooth="yes"/>
      <point x="194" y="78"/>
      <point x="188" y="73"/>
      <point x="164" y="73" type="curve" smooth="yes"/>
      <point x="135" y="73" type="line" smooth="yes"/>
      <point x="111" y="73"/>
      <point x="105" y="78"/>
      <point x="105" y="102" type="curve" smooth="yes"/>
      <point x="105" y="206" type="line"/>
    </contour>
  </outline>
</glyph>
<glyph name="K" format="1">
  <advance width="384"/>
  <unicode hex="004B"/>
  <outline>
    <contour>
      <point x="148" y="312" type="line"/>
      <point x="275" y="0" type="line"/>
      <point x="373" y="0" type="line"/>
      <point x="242" y="312" type="line"/>
    </contour>
    <contour>
      <point x="242" y="312" type="line"/>
      <point x="374" y="626" type="line"/>
      <point x="277" y="626" type="line"/>
      <point x="148" y="312" type="line"/>
    </contour>
    <contour>
      <point x="52" y="626" type="line"/>
      <point x="52" y="0" type="line"/>
      <point x="142" y="0" type="line"/>
      <point x="142" y="626" type="line"/>
    </contour>
  </outline>
</glyph>
<glyph name="L" format="1">
  <advance width="301"/>
  <unicode hex="004C"/>
  <outline>
    <contour>
      <point x="52" y="626" type="line"/>
      <point x="52" y="0" type="line"/>
      <point x="142" y="0" type="line"/>
      <point x="142" y="626" type="line"/>
    </contour>
    <contour>
      <point x="96" y="0" type="line"/>
      <point x="297" y="0" type="line"/>
      <point x="297" y="73" type="line"/>
      <point x="96" y="73" type="line"/>
    </contour>
  </outline>
</glyph>
<glyph name="M" format="1">
  <advance width="516"/>
  <unicode hex="004D"/>
  <outline>
    <contour>
      <point x="299" y="136" type="line"/>
      <point x="385" y="458" type="line"/>
      <point x="385" y="0" type="line"/>
      <point x="464" y="0" type="line"/>
      <point x="464" y="626" type="line"/>
      <point x="365" y="626" type="line"/>
      <point x="258" y="238" type="line"/>
      <point x="151" y="626" type="line"/>
      <point x="52" y="626" type="line"/>
      <point x="52" y="0" type="line"/>
      <point x="131" y="0" type="line"/>
      <point x="131" y="457" type="line"/>
      <point x="217" y="136" type="line"/>
    </contour>
  </outline>
</glyph>
<glyph name="N" format="1">
  <advance width="410"/>
  <unicode hex="004E"/>
  <outline>
    <contour>
      <point x="275" y="626" type="line"/>
      <point x="275" y="187" type="line"/>
      <point x="147" y="626" type="line"/>
      <point x="52" y="626" type="line"/>
      <point x="52" y="0" type="line"/>
      <point x="135" y="0" type="line"/>
      <point x="135" y="452" type="line"/>
      <point x="267" y="0" type="line"/>
      <point x="358" y="0" type="line"/>
      <point x="358" y="626" type="line"/>
    </contour>
  </outline>
</glyph>
<glyph name="O" format="1">
  <advance width="393"/>
  <unicode hex="004F"/>
  <outline>
    <contour>
      <point x="255" y="190" type="line"/>
      <point x="345" y="190" type="line"/>
      <point x="345" y="538" type="line" smooth="yes"/>
      <point x="345" y="595"/>
      <point x="317" y="626"/>
      <point x="252" y="626" type="curve" smooth="yes"/>
      <point x="191" y="626" type="line"/>
      <point x="191" y="553" type="line"/>
      <point x="225" y="553" type="line" smooth="yes"/>
      <point x="249" y="553"/>
      <point x="255" y="548"/>
      <point x="255" y="524" type="curve" smooth="yes"/>
    </contour>
    <contour>
      <point x="255" y="102" type="line"/>
      <point x="255" y="78"/>
      <point x="249" y="73"/>
      <point x="225" y="73" type="curve" smooth="yes"/>
      <point x="186" y="73" type="line"/>
      <point x="186" y="0" type="line"/>
      <point x="252" y="0" type="line" smooth="yes"/>
      <point x="317" y="0"/>
      <point x="345" y="31"/>
      <point x="345" y="88" type="curve" smooth="yes"/>
      <point x="345" y="232" type="line"/>
      <point x="255" y="232" type="line"/>
    </contour>
    <contour>
      <point x="138" y="524" type="line"/>
      <point x="138" y="548"/>
      <point x="143" y="553"/>
      <point x="167" y="553" type="curve" smooth="yes"/>
      <point x="201" y="553" type="line"/>
      <point x="201" y="626" type="line"/>
      <point x="141" y="626" type="line" smooth="yes"/>
      <point x="76" y="626"/>
      <point x="47" y="595"/>
      <point x="47" y="538" type="curve" smooth="yes"/>
      <point x="47" y="189" type="line"/>
      <point x="138" y="189" type="line"/>
    </contour>
    <contour>
      <point x="138" y="238" type="line"/>
      <point x="47" y="238" type="line"/>
      <point x="47" y="88" type="line" smooth="yes"/>
      <point x="47" y="31"/>
      <point x="76" y="0"/>
      <point x="141" y="0" type="curve" smooth="yes"/>
      <point x="199" y="0" type="line"/>
      <point x="199" y="73" type="line"/>
      <point x="167" y="73" type="line" smooth="yes"/>
      <point x="143" y="73"/>
      <point x="138" y="78"/>
      <point x="138" y="102" type="curve" smooth="yes"/>
    </contour>
  </outline>
</glyph>
<glyph name="P" format="1">
  <advance width="378"/>
  <unicode hex="0050"/>
  <outline>
    <contour>
      <point x="260" y="344" type="line"/>
      <point x="260" y="320"/>
      <point x="254" y="314"/>
      <point x="230" y="314" type="curve" smooth="yes"/>
      <point x="96" y="314" type="line"/>
      <point x="96" y="242" type="line"/>
      <point x="257" y="242" type="line" smooth="yes"/>
      <point x="322" y="242"/>
      <point x="350" y="272"/>
      <point x="350" y="330" type="curve" smooth="yes"/>
      <point x="350" y="538" type="line" smooth="yes"/>
      <point x="350" y="595"/>
      <point x="322" y="626"/>
      <point x="257" y="626" type="curve" smooth="yes"/>
      <point x="64" y="626" type="line"/>
      <point x="64" y="553" type="line"/>
      <point x="230" y="553" type="line" smooth="yes"/>
      <point x="254" y="553"/>
      <point x="260" y="548"/>
      <point x="260" y="524" type="curve" smooth="yes"/>
    </contour>
    <contour>
      <point x="52" y="626" type="line"/>
      <point x="52" y="0" type="line"/>
      <point x="142" y="0" type="line"/>
      <point x="142" y="626" type="line"/>
    </contour>
  </outline>
</glyph>
<glyph name="R" format="1">
  <advance width="396"/>
  <unicode hex="0052"/>
  <outline>
    <contour>
      <point x="260" y="354" type="line"/>
      <point x="260" y="330"/>
      <point x="254" y="325"/>
      <point x="230" y="325" type="curve" smooth="yes"/>
      <point x="96" y="325" type="line"/>
      <point x="96" y="253" type="line"/>
      <point x="257" y="253" type="line" smooth="yes"/>
      <point x="322" y="253"/>
      <point x="350" y="284"/>
      <point x="350" y="342" type="curve" smooth="yes"/>
      <point x="350" y="538" type="line" smooth="yes"/>
      <point x="350" y="595"/>
      <point x="322" y="626"/>
      <point x="257" y="626" type="curve" smooth="yes"/>
      <point x="64" y="626" type="line"/>
      <point x="64" y="553" type="line"/>
      <point x="230" y="553" type="line" smooth="yes"/>
      <point x="254" y="553"/>
      <point x="260" y="548"/>
      <point x="260" y="524" type="curve" smooth="yes"/>
    </contour>
    <contour>
      <point x="52" y="626" type="line"/>
      <point x="52" y="0" type="line"/>
      <point x="142" y="0" type="line"/>
      <point x="142" y="626" type="line"/>
    </contour>
    <contour>
      <point x="178" y="289" type="line"/>
      <point x="285" y="0" type="line"/>
      <point x="382" y="0" type="line"/>
      <point x="270" y="289" type="line"/>
    </contour>
  </outline>
</glyph>
<glyph name="T" format="1">
  <advance width="310"/>
  <unicode hex="0054"/>
  <outline>
    <contour>
      <point x="110" y="614" type="line"/>
      <point x="110" y="0" type="line"/>
      <point x="200" y="0" type="line"/>
      <point x="200" y="614" type="line"/>
    </contour>
    <contour>
      <point x="305" y="626" type="line"/>
      <point x="5" y="626" type="line"/>
      <point x="5" y="553" type="line"/>
      <point x="305" y="553" type="line"/>
    </contour>
  </outline>
</glyph>
<glyph name="U" format="1">
  <advance width="397"/>
  <unicode hex="0055"/>
  <outline>
    <contour>
      <point x="257" y="102" type="line"/>
      <point x="257" y="78"/>
      <point x="252" y="73"/>
      <point x="227" y="73" type="curve" smooth="yes"/>
      <point x="188" y="73" type="line"/>
      <point x="188" y="0" type="line"/>
      <point x="254" y="0" type="line" smooth="yes"/>
      <point x="319" y="0"/>
      <point x="348" y="31"/>
      <point x="348" y="88" type="curve" smooth="yes"/>
      <point x="348" y="626" type="line"/>
      <point x="257" y="626" type="line"/>
    </contour>
    <contour>
      <point x="140" y="626" type="line"/>
      <point x="49" y="626" type="line"/>
      <point x="49" y="88" type="line" smooth="yes"/>
      <point x="49" y="31"/>
      <point x="78" y="0"/>
      <point x="143" y="0" type="curve" smooth="yes"/>
      <point x="201" y="0" type="line"/>
      <point x="201" y="73" type="line"/>
      <point x="170" y="73" type="line" smooth="yes"/>
      <point x="146" y="73"/>
      <point x="140" y="78"/>
      <point x="140" y="102" type="curve" smooth="yes"/>
    </contour>
  </outline>
</glyph>
<glyph name="V" format="1">
  <advance width="364"/>
  <unicode hex="0056"/>
  <outline>
    <contour>
      <point x="266" y="626" type="line"/>
      <point x="181" y="83" type="line"/>
      <point x="98" y="626" type="line"/>
      <point x="5" y="626" type="line"/>
      <point x="118" y="0" type="line"/>
      <point x="246" y="0" type="line"/>
      <point x="359" y="626" type="line"/>
    </contour>
  </outline>
</glyph>
<glyph name="W" format="1">
  <advance width="609"/>
  <unicode hex="0057"/>
  <outline>
    <contour>
      <point x="508" y="626" type="line"/>
      <point x="435" y="82" type="line"/>
      <point x="354" y="626" type="line"/>
      <point x="254" y="626" type="line"/>
      <point x="173" y="82" type="line"/>
      <point x="103" y="626" type="line"/>
      <point x="10" y="626" type="line"/>
      <point x="110" y="0" type="line"/>
      <point x="235" y="0" type="line"/>
      <point x="304" y="470" type="line"/>
      <point x="374" y="0" type="line"/>
      <point x="499" y="0" type="line"/>
      <point x="599" y="626" type="line"/>
    </contour>
  </outline>
</glyph>
<glyph name="X" format="1">
  <advance width="373"/>
  <unicode hex="0058"/>
  <outline>
    <contour>
      <point x="235" y="320" type="line"/>
      <point x="356" y="626" type="line"/>
      <point x="258" y="626" type="line"/>
      <point x="185" y="401" type="line"/>
      <point x="113" y="626" type="line"/>
      <point x="13" y="626" type="line"/>
      <point x="136" y="320" type="line"/>
      <point x="4" y="0" type="line"/>
      <point x="101" y="0" type="line"/>
      <point x="185" y="238" type="line"/>
      <point x="269" y="0" type="line"/>
      <point x="369" y="0" type="line"/>
    </contour>
  </outline>
</glyph>
<glyph name="Y" format="1">
  <advance width="361"/>
  <unicode hex="0059"/>
  <outline>
    <contour>
      <point x="226" y="188" type="line"/>
      <point x="357" y="626" type="line"/>
      <point x="265" y="626" type="line"/>
      <point x="183" y="281" type="line"/>
      <point x="96" y="626" type="line"/>
      <point x="4" y="626" type="line"/>
      <point x="141" y="188" type="line"/>
    </contour>
    <contour>
      <point x="138" y="238" type="line"/>
      <point x="138" y="0" type="line"/>
      <point x="229" y="0" type="line"/>
      <point x="229" y="238" type="line"/>
    </contour>
  </outline>
</glyph>
<glyph name="Z" format="1">
  <advance width="313"/>
  <unicode hex="005A"/>
  <outline>
    <contour>
      <point x="305" y="627" type="line"/>
      <point x="19" y="627" type="line"/>
      <point x="19" y="554" type="line"/>
      <point x="305" y="554" type="line"/>
    </contour>
    <contour>
      <point x="213" y="554" type="line"/>
      <point x="8" y="73" type="line"/>
      <point x="100" y="73" type="line"/>
      <point x="305" y="554" type="line"/>
    </contour>
    <contour>
      <point x="300" y="73" type="line"/>
      <point x="8" y="73" type="line"/>
      <point x="8" y="0" type="line"/>
      <point x="300" y="0" type="line"/>
    </contour>
  </outline>
</glyph>
<glyph name="bracketleft" format="1">
  <advance width="311"/>
  <unicode hex="005B"/>
  <outline>
    <contour>
      <point x="101" y="710" type="line"/>
      <point x="249" y="710" type="line"/>
      <point x="249" y="783" type="line"/>
      <point x="101" y="783" type="line"/>
    </contour>
    <contour>
      <point x="58" y="783" type="line"/>
      <point x="58" y="-165" type="line"/>
      <point x="149" y="-165" type="line"/>
      <point x="149" y="783" type="line"/>
    </contour>
    <contour>
      <point x="93" y="-165" type="line"/>
      <point x="249" y="-165" type="line"/>
      <point x="249" y="-92" type="line"/>
      <point x="93" y="-92" type="line"/>
    </contour>
  </outline>
</glyph>
<glyph name="backslash" format="1">
  <advance width="390"/>
  <unicode hex="005C"/>
  <outline>
    <contour>
      <point x="31" y="700" type="line"/>
      <point x="304" y="-120" type="line"/>
      <point x="388" y="-120" type="line"/>
      <point x="115" y="700" type="line"/>
    </contour>
  </outline>
</glyph>
<glyph name="bracketright" format="1">
  <advance width="311"/>
  <unicode hex="005D"/>
  <outline>
    <contour>
      <point x="191" y="783" type="line"/>
      <point x="44" y="783" type="line"/>
      <point x="44" y="710" type="line"/>
      <point x="191" y="710" type="line"/>
    </contour>
    <contour>
      <point x="143" y="783" type="line"/>
      <point x="143" y="-165" type="line"/>
      <point x="234" y="-165" type="line"/>
      <point x="234" y="783" type="line"/>
    </contour>
    <contour>
      <point x="200" y="-92" type="line"/>
      <point x="44" y="-92" type="line"/>
      <point x="44" y="-165" type="line"/>
      <point x="200" y="-165" type="line"/>
    </contour>
  </outline>
</glyph>
<glyph name="asciicircum" format="1">
  <advance width="498"/>
  <unicode hex="005E"/>
  <outline>
    <contour>
      <point x="187" y="671" type="line"/>
      <point x="55" y="317" type="line"/>
      <point x="149" y="317" type="line"/>
      <point x="244" y="587" type="line"/>
      <point x="340" y="317" type="line"/>
      <point x="434" y="317" type="line"/>
      <point x="301" y="671" type="line"/>
    </contour>
  </outline>
</glyph>
<glyph name="grave" format="1">
  <advance width="421"/>
  <unicode hex="0060"/>
  <outline>
    <contour>
      <point x="216" y="651" type="line"/>
      <point x="116" y="651" type="line"/>
      <point x="221" y="519" type="line"/>
      <point x="298" y="519" type="line"/>
    </contour>
  </outline>
</glyph>
<glyph name="a" format="1">
  <advance width="360"/>
  <unicode hex="0061"/>
  <outline>
    <contour>
      <point x="128" y="227" type="line"/>
      <point x="128" y="386" type="line" smooth="yes"/>
      <point x="128" y="410"/>
      <point x="134" y="415"/>
      <point x="158" y="415" type="curve" smooth="yes"/>
      <point x="193" y="415" type="line" smooth="yes"/>
      <point x="216" y="415"/>
      <point x="226" y="406"/>
      <point x="226" y="380" type="curve" smooth="yes"/>
      <point x="226" y="353" type="line"/>
      <point x="230" y="353" type="line"/>
      <point x="230" y="420" type="line" smooth="yes"/>
      <point x="230" y="468"/>
      <point x="205" y="488"/>
      <point x="164" y="488" type="curve" smooth="yes"/>
      <point x="128" y="488" type="line" smooth="yes"/>
      <point x="66" y="488"/>
      <point x="38" y="457"/>
      <point x="38" y="399" type="curve" smooth="yes"/>
      <point x="38" y="227" type="line"/>
    </contour>
    <contour>
      <point x="316" y="0" type="line"/>
      <point x="316" y="488" type="line"/>
      <point x="226" y="488" type="line"/>
      <point x="226" y="425" type="line"/>
      <point x="226" y="418" type="line"/>
      <point x="226" y="0" type="line"/>
    </contour>
    <contour>
      <point x="38" y="261" type="line"/>
      <point x="38" y="88" type="line" smooth="yes"/>
      <point x="38" y="31"/>
      <point x="66" y="0"/>
      <point x="128" y="0" type="curve" smooth="yes"/>
      <point x="164" y="0" type="line" smooth="yes"/>
      <point x="205" y="0"/>
      <point x="230" y="20"/>
      <point x="230" y="68" type="curve"/>
      <point x="230" y="134" type="line"/>
      <point x="226" y="134" type="line"/>
      <point x="226" y="108" type="line" smooth="yes"/>
      <point x="226" y="82"/>
      <point x="216" y="73"/>
      <point x="193" y="73" type="curve" smooth="yes"/>
      <point x="158" y="73" type="line" smooth="yes"/>
      <point x="134" y="73"/>
      <point x="128" y="78"/>
      <point x="128" y="102" type="curve" smooth="yes"/>
      <point x="128" y="261" type="line"/>
    </contour>
  </outline>
</glyph>
<glyph name="b" format="1">
  <advance width="360"/>
  <unicode hex="0062"/>
  <outline>
    <contour>
      <point x="232" y="261" type="line"/>
      <point x="232" y="102" type="line" smooth="yes"/>
      <point x="232" y="78"/>
      <point x="226" y="73"/>
      <point x="202" y="73" type="curve" smooth="yes"/>
      <point x="167" y="73" type="line" smooth="yes"/>
      <point x="144" y="73"/>
      <point x="134" y="82"/>
      <point x="134" y="108" type="curve" smooth="yes"/>
      <point x="134" y="131" type="line"/>
      <point x="130" y="131" type="line"/>
      <point x="130" y="68" type="line" smooth="yes"/>
      <point x="130" y="20"/>
      <point x="155" y="0"/>
      <point x="196" y="0" type="curve" smooth="yes"/>
      <point x="231" y="0" type="line" smooth="yes"/>
      <point x="293" y="0"/>
      <point x="322" y="31"/>
      <point x="322" y="88" type="curve" smooth="yes"/>
      <point x="322" y="261" type="line"/>
    </contour>
    <contour>
      <point x="322" y="228" type="line"/>
      <point x="322" y="400" type="line" smooth="yes"/>
      <point x="322" y="458"/>
      <point x="293" y="489"/>
      <point x="231" y="489" type="curve" smooth="yes"/>
      <point x="196" y="489" type="line" smooth="yes"/>
      <point x="155" y="489"/>
      <point x="130" y="469"/>
      <point x="130" y="421" type="curve" smooth="yes"/>
      <point x="130" y="349" type="line"/>
      <point x="134" y="349" type="line"/>
      <point x="134" y="381" type="line" smooth="yes"/>
      <point x="134" y="407"/>
      <point x="144" y="416"/>
      <point x="167" y="416" type="curve" smooth="yes"/>
      <point x="202" y="416" type="line" smooth="yes"/>
      <point x="226" y="416"/>
      <point x="232" y="410"/>
      <point x="232" y="387" type="curve" smooth="yes"/>
      <point x="232" y="228" type="line"/>
    </contour>
    <contour>
      <point x="44" y="669" type="line"/>
      <point x="44" y="0" type="line"/>
      <point x="134" y="0" type="line"/>
      <point x="134" y="62" type="line"/>
      <point x="134" y="67" type="line"/>
      <point x="134" y="669" type="line"/>
    </contour>
  </outline>
</glyph>
<glyph name="d" format="1">
  <advance width="360"/>
  <unicode hex="0064"/>
  <outline>
    <contour>
      <point x="128" y="228" type="line"/>
      <point x="128" y="387" type="line" smooth="yes"/>
      <point x="128" y="410"/>
      <point x="134" y="416"/>
      <point x="158" y="416" type="curve" smooth="yes"/>
      <point x="193" y="416" type="line" smooth="yes"/>
      <point x="216" y="416"/>
      <point x="226" y="407"/>
      <point x="226" y="381" type="curve" smooth="yes"/>
      <point x="226" y="349" type="line"/>
      <point x="230" y="349" type="line"/>
      <point x="230" y="421" type="line" smooth="yes"/>
      <point x="230" y="469"/>
      <point x="205" y="489"/>
      <point x="164" y="489" type="curve" smooth="yes"/>
      <point x="128" y="489" type="line" smooth="yes"/>
      <point x="66" y="489"/>
      <point x="38" y="458"/>
      <point x="38" y="400" type="curve" smooth="yes"/>
      <point x="38" y="228" type="line"/>
    </contour>
    <contour>
      <point x="226" y="669" type="line"/>
      <point x="226" y="67" type="line"/>
      <point x="226" y="62" type="line"/>
      <point x="226" y="0" type="line"/>
      <point x="316" y="0" type="line"/>
      <point x="316" y="669" type="line"/>
    </contour>
    <contour>
      <point x="38" y="261" type="line"/>
      <point x="38" y="88" type="line" smooth="yes"/>
      <point x="38" y="31"/>
      <point x="66" y="0"/>
      <point x="128" y="0" type="curve" smooth="yes"/>
      <point x="164" y="0" type="line" smooth="yes"/>
      <point x="205" y="0"/>
      <point x="230" y="20"/>
      <point x="230" y="68" type="curve" smooth="yes"/>
      <point x="230" y="131" type="line"/>
      <point x="226" y="131" type="line"/>
      <point x="226" y="108" type="line" smooth="yes"/>
      <point x="226" y="82"/>
      <point x="216" y="73"/>
      <point x="193" y="73" type="curve" smooth="yes"/>
      <point x="158" y="73" type="line" smooth="yes"/>
      <point x="134" y="73"/>
      <point x="128" y="78"/>
      <point x="128" y="102" type="curve" smooth="yes"/>
      <point x="128" y="261" type="line"/>
    </contour>
  </outline>
</glyph>
<glyph name="e" format="1">
  <advance width="360"/>
  <unicode hex="0065"/>
  <outline>
    <contour>
      <point x="130" y="388" type="line"/>
      <point x="130" y="411"/>
      <point x="136" y="417"/>
      <point x="160" y="417" type="curve" smooth="yes"/>
      <point x="190" y="417" type="line"/>
      <point x="190" y="488" type="line"/>
      <point x="135" y="488" type="line" smooth="yes"/>
      <point x="71" y="488"/>
      <point x="42" y="457"/>
      <point x="42" y="399" type="curve" smooth="yes"/>
      <point x="42" y="88" type="line" smooth="yes"/>
      <point x="42" y="31"/>
      <point x="71" y="0"/>
      <point x="135" y="0" type="curve"/>
      <point x="185" y="0" type="line"/>
      <point x="185" y="71" type="line"/>
      <point x="160" y="71" type="line" smooth="yes"/>
      <point x="136" y="71"/>
      <point x="130" y="77"/>
      <point x="130" y="100" type="curve" smooth="yes"/>
    </contour>
    <contour>
      <point x="238" y="229" type="line"/>
      <point x="327" y="229" type="line"/>
      <point x="327" y="399" type="line" smooth="yes"/>
      <point x="327" y="457"/>
      <point x="298" y="488"/>
      <point x="233" y="488" type="curve" smooth="yes"/>
      <point x="177" y="488" type="line"/>
      <point x="177" y="417" type="line"/>
      <point x="209" y="417" type="line" smooth="yes"/>
      <point x="233" y="417"/>
      <point x="238" y="411"/>
      <point x="238" y="388" type="curve" smooth="yes"/>
    </contour>
    <contour>
      <point x="236" y="101" type="line"/>
      <point x="236" y="77"/>
      <point x="230" y="71"/>
      <point x="206" y="71" type="curve" smooth="yes"/>
      <point x="177" y="71" type="line"/>
      <point x="177" y="0" type="line"/>
      <point x="231" y="0" type="line" smooth="yes"/>
      <point x="295" y="0"/>
      <point x="324" y="31"/>
      <point x="324" y="88" type="curve" smooth="yes"/>
      <point x="324" y="141" type="line"/>
      <point x="236" y="141" type="line"/>
    </contour>
    <contour>
      <point x="327" y="282" type="line"/>
      <point x="74" y="282" type="line"/>
      <point x="74" y="216" type="line"/>
      <point x="327" y="216" type="line"/>
    </contour>
  </outline>
</glyph>
<glyph name="f" format="1">
  <advance width="222"/>
  <unicode hex="0066"/>
  <outline>
    <contour>
      <point x="145" y="564" type="line"/>
      <point x="145" y="588"/>
      <point x="151" y="593"/>
      <point x="175" y="593" type="curve" smooth="yes"/>
      <point x="217" y="593" type="line"/>
      <point x="217" y="669" type="line"/>
      <point x="148" y="669" type="line" smooth="yes"/>
      <point x="84" y="669"/>
      <point x="55" y="638"/>
      <point x="55" y="581" type="curve" smooth="yes"/>
      <point x="55" y="0" type="line"/>
      <point x="145" y="0" type="line"/>
    </contour>
    <contour>
      <point x="217" y="488" type="line"/>
      <point x="6" y="488" type="line"/>
      <point x="6" y="415" type="line"/>
      <point x="217" y="415" type="line"/>
    </contour>
  </outline>
</glyph>
<glyph name="g" format="1">
  <advance width="360"/>
  <unicode hex="0067"/>
  <outline>
    <contour>
      <point x="38" y="261" type="line"/>
      <point x="38" y="95" type="line" smooth="yes"/>
      <point x="38" y="37"/>
      <point x="66" y="6"/>
      <point x="128" y="6" type="curve" smooth="yes"/>
      <point x="164" y="6" type="line" smooth="yes"/>
      <point x="205" y="6"/>
      <point x="230" y="27"/>
      <point x="230" y="74" type="curve" smooth="yes"/>
      <point x="230" y="137" type="line"/>
      <point x="226" y="138" type="line"/>
      <point x="226" y="114" type="line" smooth="yes"/>
      <point x="226" y="88"/>
      <point x="216" y="79"/>
      <point x="193" y="79" type="curve" smooth="yes"/>
      <point x="158" y="79" type="line" smooth="yes"/>
      <point x="134" y="79"/>
      <point x="128" y="85"/>
      <point x="128" y="108" type="curve" smooth="yes"/>
      <point x="128" y="261" type="line"/>
    </contour>
    <contour>
      <point x="128" y="227" type="line"/>
      <point x="128" y="386" type="line" smooth="yes"/>
      <point x="128" y="410"/>
      <point x="134" y="415"/>
      <point x="158" y="415" type="curve" smooth="yes"/>
      <point x="193" y="415" type="line" smooth="yes"/>
      <point x="216" y="415"/>
      <point x="226" y="406"/>
      <point x="226" y="380" type="curve" smooth="yes"/>
      <point x="226" y="348" type="line"/>
      <point x="230" y="348" type="line"/>
      <point x="230" y="420" type="line" smooth="yes"/>
      <point x="230" y="468"/>
      <point x="205" y="488"/>
      <point x="164" y="488" type="curve" smooth="yes"/>
      <point x="128" y="488" type="line" smooth="yes"/>
      <point x="66" y="488"/>
      <point x="38" y="457"/>
      <point x="38" y="399" type="curve" smooth="yes"/>
      <point x="38" y="227" type="line"/>
    </contour>
    <contour>
      <point x="226" y="-38" type="line"/>
      <point x="226" y="-61"/>
      <point x="220" y="-67"/>
      <point x="196" y="-67" type="curve" smooth="yes"/>
      <point x="55" y="-67" type="line"/>
      <point x="55" y="-138" type="line"/>
      <point x="222" y="-138" type="line" smooth="yes"/>
      <point x="287" y="-138"/>
      <point x="316" y="-108"/>
      <point x="316" y="-50" type="curve" smooth="yes"/>
      <point x="316" y="17" type="line"/>
      <point x="226" y="17" type="line"/>
    </contour>
    <contour>
      <point x="316" y="5" type="line"/>
      <point x="316" y="488" type="line"/>
      <point x="226" y="488" type="line"/>
      <point x="226" y="428" type="line"/>
      <point x="226" y="426" type="line"/>
      <point x="226" y="5" type="line"/>
    </contour>
  </outline>
</glyph>
<glyph name="i" format="1">
  <advance width="178"/>
  <unicode hex="0069"/>
  <outline>
    <contour>
      <point x="134" y="0" type="line"/>
      <point x="134" y="488" type="line"/>
      <point x="44" y="488" type="line"/>
      <point x="44" y="0" type="line"/>
    </contour>
    <contour>
      <point x="42" y="581" type="line"/>
      <point x="136" y="581" type="line"/>
      <point x="136" y="670" type="line"/>
      <point x="42" y="670" type="line"/>
    </contour>
  </outline>
</glyph>
<glyph name="j" format="1">
  <advance width="178"/>
  <unicode hex="006A"/>
  <outline>
    <contour>
      <point x="44" y="-38" type="line"/>
      <point x="44" y="-61"/>
      <point x="38" y="-67"/>
      <point x="14" y="-67" type="curve" smooth="yes"/>
      <point x="-4" y="-67" type="line"/>
      <point x="-4" y="-138" type="line"/>
      <point x="41" y="-138" type="line" smooth="yes"/>
      <point x="105" y="-138"/>
      <point x="134" y="-108"/>
      <point x="134" y="-50" type="curve" smooth="yes"/>
      <point x="134" y="488" type="line"/>
      <point x="44" y="488" type="line"/>
    </contour>
    <contour>
      <point x="42" y="581" type="line"/>
      <point x="136" y="581" type="line"/>
      <point x="136" y="670" type="line"/>
      <point x="42" y="670" type="line"/>
    </contour>
  </outline>
</glyph>
<glyph name="k" format="1">
  <advance width="357"/>
  <unicode hex="006B"/>
  <outline>
    <contour>
      <point x="134" y="0" type="line"/>
      <point x="134" y="669" type="line"/>
      <point x="44" y="669" type="line"/>
      <point x="44" y="0" type="line"/>
    </contour>
    <contour>
      <point x="150" y="255" type="line"/>
      <point x="258" y="0" type="line"/>
      <point x="354" y="0" type="line"/>
      <point x="242" y="255" type="line"/>
    </contour>
    <contour>
      <point x="242" y="255" type="line"/>
      <point x="354" y="488" type="line"/>
      <point x="258" y="488" type="line"/>
      <point x="150" y="255" type="line"/>
    </contour>
  </outline>
</glyph>
<glyph name="m" format="1">
  <advance width="548"/>
  <unicode hex="006D"/>
  <outline>
    <contour>
      <point x="322" y="0" type="line"/>
      <point x="322" y="399" type="line" smooth="yes"/>
      <point x="322" y="457"/>
      <point x="293" y="488"/>
      <point x="231" y="488" type="curve" smooth="yes"/>
      <point x="196" y="488" type="line" smooth="yes"/>
      <point x="155" y="488"/>
      <point x="130" y="468"/>
      <point x="130" y="420" type="curve" smooth="yes"/>
      <point x="130" y="348" type="line"/>
      <point x="134" y="348" type="line"/>
      <point x="134" y="380" type="line" smooth="yes"/>
      <point x="134" y="406"/>
      <point x="144" y="415"/>
      <point x="167" y="415" type="curve" smooth="yes"/>
      <point x="202" y="415" type="line" smooth="yes"/>
      <point x="226" y="415"/>
      <point x="232" y="410"/>
      <point x="232" y="386" type="curve" smooth="yes"/>
      <point x="232" y="0" type="line"/>
    </contour>
    <contour>
      <point x="134" y="0" type="line"/>
      <point x="134" y="421" type="line"/>
      <point x="134" y="427" type="line"/>
      <point x="134" y="488" type="line"/>
      <point x="44" y="488" type="line"/>
      <point x="44" y="0" type="line"/>
    </contour>
    <contour>
      <point x="509" y="0" type="line"/>
      <point x="509" y="399" type="line" smooth="yes"/>
      <point x="509" y="457"/>
      <point x="481" y="488"/>
      <point x="419" y="488" type="curve" smooth="yes"/>
      <point x="384" y="488" type="line" smooth="yes"/>
      <point x="340" y="488"/>
      <point x="311" y="466"/>
      <point x="312" y="419" type="curve" smooth="yes"/>
      <point x="313" y="348" type="line"/>
      <point x="322" y="348" type="line"/>
      <point x="322" y="380" type="line" smooth="yes"/>
      <point x="322" y="406"/>
      <point x="332" y="415"/>
      <point x="354" y="415" type="curve" smooth="yes"/>
      <point x="390" y="415" type="line" smooth="yes"/>
      <point x="414" y="415"/>
      <point x="419" y="410"/>
      <point x="419" y="386" type="curve" smooth="yes"/>
      <point x="419" y="0" type="line"/>
    </contour>
  </outline>
</glyph>
<glyph name="n" format="1">
  <advance width="365"/>
  <unicode hex="006E"/>
  <outline>
    <contour>
      <point x="134" y="0" type="line"/>
      <point x="134" y="421" type="line"/>
      <point x="134" y="427" type="line"/>
      <point x="134" y="488" type="line"/>
      <point x="44" y="488" type="line"/>
      <point x="44" y="0" type="line"/>
    </contour>
    <contour>
      <point x="322" y="0" type="line"/>
      <point x="322" y="399" type="line" smooth="yes"/>
      <point x="322" y="457"/>
      <point x="293" y="488"/>
      <point x="231" y="488" type="curve" smooth="yes"/>
      <point x="196" y="488" type="line" smooth="yes"/>
      <point x="155" y="488"/>
      <point x="130" y="468"/>
      <point x="130" y="420" type="curve"/>
      <point x="130" y="348" type="line"/>
      <point x="134" y="348" type="line"/>
      <point x="134" y="380" type="line"/>
      <point x="134" y="406"/>
      <point x="144" y="415"/>
      <point x="167" y="415" type="curve" smooth="yes"/>
      <point x="202" y="415" type="line" smooth="yes"/>
      <point x="226" y="415"/>
      <point x="232" y="410"/>
      <point x="232" y="386" type="curve" smooth="yes"/>
      <point x="232" y="0" type="line"/>
    </contour>
  </outline>
</glyph>
<glyph name="o" format="1">
  <advance width="370"/>
  <unicode hex="006F"/>
  <outline>
    <contour>
      <point x="242" y="160" type="line"/>
      <point x="331" y="160" type="line"/>
      <point x="331" y="399" type="line" smooth="yes"/>
      <point x="331" y="457"/>
      <point x="303" y="488"/>
      <point x="238" y="488" type="curve" smooth="yes"/>
      <point x="182" y="488" type="line"/>
      <point x="182" y="417" type="line"/>
      <point x="212" y="417" type="line" smooth="yes"/>
      <point x="236" y="417"/>
      <point x="242" y="411"/>
      <point x="242" y="387" type="curve" smooth="yes"/>
    </contour>
    <contour>
      <point x="242" y="101" type="line"/>
      <point x="242" y="77"/>
      <point x="236" y="71"/>
      <point x="212" y="71" type="curve" smooth="yes"/>
      <point x="177" y="71" type="line"/>
      <point x="177" y="0" type="line"/>
      <point x="238" y="0" type="line" smooth="yes"/>
      <point x="303" y="0"/>
      <point x="331" y="31"/>
      <point x="331" y="88" type="curve" smooth="yes"/>
      <point x="331" y="202" type="line"/>
      <point x="242" y="202" type="line"/>
    </contour>
    <contour>
      <point x="128" y="387" type="line"/>
      <point x="128" y="411"/>
      <point x="133" y="417"/>
      <point x="157" y="417" type="curve" smooth="yes"/>
      <point x="187" y="417" type="line"/>
      <point x="187" y="488" type="line"/>
      <point x="131" y="488" type="line" smooth="yes"/>
      <point x="67" y="488"/>
      <point x="39" y="457"/>
      <point x="39" y="399" type="curve" smooth="yes"/>
      <point x="39" y="159" type="line"/>
      <point x="128" y="159" type="line"/>
    </contour>
    <contour>
      <point x="128" y="208" type="line"/>
      <point x="39" y="208" type="line"/>
      <point x="39" y="88" type="line" smooth="yes"/>
      <point x="39" y="31"/>
      <point x="67" y="0"/>
      <point x="131" y="0" type="curve" smooth="yes"/>
      <point x="185" y="0" type="line"/>
      <point x="185" y="71" type="line"/>
      <point x="157" y="71" type="line" smooth="yes"/>
      <point x="133" y="71"/>
      <point x="128" y="77"/>
      <point x="128" y="101" type="curve" smooth="yes"/>
    </contour>
  </outline>
</glyph>
<glyph name="p" format="1">
  <advance width="360"/>
  <unicode hex="0070"/>
  <outline>
    <contour>
      <point x="322" y="227" type="line"/>
      <point x="322" y="399" type="line" smooth="yes"/>
      <point x="322" y="457"/>
      <point x="293" y="488"/>
      <point x="231" y="488" type="curve" smooth="yes"/>
      <point x="196" y="488" type="line" smooth="yes"/>
      <point x="155" y="488"/>
      <point x="130" y="468"/>
      <point x="130" y="420" type="curve" smooth="yes"/>
      <point x="130" y="348" type="line"/>
      <point x="134" y="348" type="line"/>
      <point x="134" y="380" type="line" smooth="yes"/>
      <point x="134" y="406"/>
      <point x="144" y="415"/>
      <point x="167" y="415" type="curve" smooth="yes"/>
      <point x="202" y="415" type="line" smooth="yes"/>
      <point x="226" y="415"/>
      <point x="232" y="410"/>
      <point x="232" y="386" type="curve" smooth="yes"/>
      <point x="232" y="227" type="line"/>
    </contour>
    <contour>
      <point x="134" y="-138" type="line"/>
      <point x="134" y="420" type="line"/>
      <point x="134" y="430" type="line"/>
      <point x="134" y="488" type="line"/>
      <point x="44" y="488" type="line"/>
      <point x="44" y="-138" type="line"/>
    </contour>
    <contour>
      <point x="232" y="261" type="line"/>
      <point x="232" y="102" type="line" smooth="yes"/>
      <point x="232" y="78"/>
      <point x="226" y="73"/>
      <point x="202" y="73" type="curve" smooth="yes"/>
      <point x="167" y="73" type="line" smooth="yes"/>
      <point x="144" y="73"/>
      <point x="134" y="82"/>
      <point x="134" y="108" type="curve" smooth="yes"/>
      <point x="134" y="131" type="line"/>
      <point x="130" y="131" type="line"/>
      <point x="130" y="68" type="line" smooth="yes"/>
      <point x="130" y="20"/>
      <point x="155" y="0"/>
      <point x="196" y="0" type="curve" smooth="yes"/>
      <point x="231" y="0" type="line" smooth="yes"/>
      <point x="293" y="0"/>
      <point x="322" y="31"/>
      <point x="322" y="88" type="curve" smooth="yes"/>
      <point x="322" y="261" type="line"/>
    </contour>
  </outline>
</glyph>
<glyph name="q" format="1">
  <advance width="360"/>
  <unicode hex="0071"/>
  <outline>
    <contour>
      <point x="128" y="227" type="line"/>
      <point x="128" y="386" type="line" smooth="yes"/>
      <point x="128" y="410"/>
      <point x="134" y="415"/>
      <point x="158" y="415" type="curve" smooth="yes"/>
      <point x="193" y="415" type="line" smooth="yes"/>
      <point x="216" y="415"/>
      <point x="226" y="406"/>
      <point x="226" y="380" type="curve" smooth="yes"/>
      <point x="226" y="348" type="line"/>
      <point x="230" y="348" type="line"/>
      <point x="230" y="420" type="line" smooth="yes"/>
      <point x="230" y="468"/>
      <point x="205" y="488"/>
      <point x="164" y="488" type="curve" smooth="yes"/>
      <point x="128" y="488" type="line" smooth="yes"/>
      <point x="66" y="488"/>
      <point x="38" y="457"/>
      <point x="38" y="399" type="curve" smooth="yes"/>
      <point x="38" y="227" type="line"/>
    </contour>
    <contour>
      <point x="316" y="-138" type="line"/>
      <point x="316" y="488" type="line"/>
      <point x="226" y="488" type="line"/>
      <point x="226" y="430" type="line"/>
      <point x="226" y="420" type="line"/>
      <point x="226" y="-138" type="line"/>
    </contour>
    <contour>
      <point x="38" y="261" type="line"/>
      <point x="38" y="88" type="line" smooth="yes"/>
      <point x="38" y="31"/>
      <point x="66" y="0"/>
      <point x="128" y="0" type="curve" smooth="yes"/>
      <point x="164" y="0" type="line" smooth="yes"/>
      <point x="205" y="0"/>
      <point x="230" y="20"/>
      <point x="230" y="68" type="curve" smooth="yes"/>
      <point x="230" y="131" type="line"/>
      <point x="226" y="131" type="line"/>
      <point x="226" y="108" type="line" smooth="yes"/>
      <point x="226" y="82"/>
      <point x="216" y="73"/>
      <point x="193" y="73" type="curve" smooth="yes"/>
      <point x="158" y="73" type="line" smooth="yes"/>
      <point x="134" y="73"/>
      <point x="128" y="78"/>
      <point x="128" y="102" type="curve" smooth="yes"/>
      <point x="128" y="261" type="line"/>
    </contour>
  </outline>
</glyph>
<glyph name="t" format="1">
  <advance width="219"/>
  <unicode hex="0074"/>
  <outline>
    <contour>
      <point x="142" y="571" type="line"/>
      <point x="51" y="571" type="line"/>
      <point x="51" y="88" type="line" smooth="yes"/>
      <point x="51" y="31"/>
      <point x="80" y="0"/>
      <point x="145" y="0" type="curve" smooth="yes"/>
      <point x="209" y="0" type="line"/>
      <point x="209" y="77" type="line"/>
      <point x="171" y="77" type="line" smooth="yes"/>
      <point x="147" y="77"/>
      <point x="142" y="82"/>
      <point x="142" y="106" type="curve" smooth="yes"/>
    </contour>
    <contour>
      <point x="209" y="488" type="line"/>
      <point x="5" y="488" type="line"/>
      <point x="5" y="415" type="line"/>
      <point x="209" y="415" type="line"/>
    </contour>
  </outline>
</glyph>
<glyph name="u" format="1">
  <advance width="365"/>
  <unicode hex="0075"/>
  <outline>
    <contour>
      <point x="43" y="488" type="line"/>
      <point x="43" y="88" type="line" smooth="yes"/>
      <point x="43" y="31"/>
      <point x="71" y="0"/>
      <point x="133" y="0" type="curve" smooth="yes"/>
      <point x="169" y="0" type="line" smooth="yes"/>
      <point x="210" y="0"/>
      <point x="235" y="20"/>
      <point x="235" y="68" type="curve" smooth="yes"/>
      <point x="235" y="140" type="line"/>
      <point x="231" y="140" type="line"/>
      <point x="231" y="108" type="line" smooth="yes"/>
      <point x="231" y="82"/>
      <point x="221" y="73"/>
      <point x="198" y="73" type="curve" smooth="yes"/>
      <point x="163" y="73" type="line" smooth="yes"/>
      <point x="139" y="73"/>
      <point x="133" y="78"/>
      <point x="133" y="102" type="curve" smooth="yes"/>
      <point x="133" y="488" type="line"/>
    </contour>
    <contour>
      <point x="231" y="488" type="line"/>
      <point x="231" y="67" type="line"/>
      <point x="231" y="61" type="line"/>
      <point x="231" y="0" type="line"/>
      <point x="321" y="0" type="line"/>
      <point x="321" y="488" type="line"/>
    </contour>
  </outline>
</glyph>
<glyph name="w" format="1">
  <advance width="543"/>
  <unicode hex="0077"/>
  <outline>
    <contour>
      <point x="453" y="488" type="line"/>
      <point x="386" y="77" type="line"/>
      <point x="325" y="488" type="line"/>
      <point x="218" y="488" type="line"/>
      <point x="155" y="77" type="line"/>
      <point x="90" y="488" type="line"/>
      <point x="5" y="488" type="line"/>
      <point x="94" y="0" type="line"/>
      <point x="213" y="0" type="line"/>
      <point x="271" y="369" type="line"/>
      <point x="329" y="0" type="line"/>
      <point x="448" y="0" type="line"/>
      <point x="538" y="488" type="line"/>
    </contour>
  </outline>
</glyph>
<glyph name="x" format="1">
  <advance width="342"/>
  <unicode hex="0078"/>
  <outline>
    <contour>
      <point x="216" y="250" type="line"/>
      <point x="327" y="488" type="line"/>
      <point x="233" y="488" type="line"/>
      <point x="171" y="328" type="line"/>
      <point x="108" y="488" type="line"/>
      <point x="12" y="488" type="line"/>
      <point x="125" y="249" type="line"/>
      <point x="5" y="0" type="line"/>
      <point x="99" y="0" type="line"/>
      <point x="170" y="169" type="line"/>
      <point x="243" y="0" type="line"/>
      <point x="338" y="0" type="line"/>
    </contour>
  </outline>
</glyph>
<glyph name="y" format="1">
  <advance width="342"/>
  <unicode hex="0079"/>
  <outline>
    <contour>
      <point x="8" y="488" type="line"/>
      <point x="110" y="8" type="line"/>
      <point x="159" y="8" type="line"/>
      <point x="149" y="-33" type="line" smooth="yes"/>
      <point x="142" y="-60"/>
      <point x="124" y="-66"/>
      <point x="97" y="-66" type="curve" smooth="yes"/>
      <point x="56" y="-66" type="line"/>
      <point x="56" y="-138" type="line"/>
      <point x="116" y="-138" type="line" smooth="yes"/>
      <point x="182" y="-138"/>
      <point x="217" y="-106"/>
      <point x="231" y="-47" type="curve" smooth="yes"/>
      <point x="334" y="488" type="line"/>
      <point x="243" y="488" type="line"/>
      <point x="174" y="79" type="line"/>
      <point x="100" y="488" type="line"/>
    </contour>
  </outline>
</glyph>
<glyph name="z" format="1">
  <advance width="292"/>
  <unicode hex="007A"/>
  <outline>
    <contour>
      <point x="276" y="488" type="line"/>
      <point x="25" y="488" type="line"/>
      <point x="25" y="416" type="line"/>
      <point x="276" y="416" type="line"/>
    </contour>
    <contour>
      <point x="183" y="416" type="line"/>
      <point x="14" y="72" type="line"/>
      <point x="106" y="72" type="line"/>
      <point x="276" y="416" type="line"/>
    </contour>
    <contour>
      <point x="278" y="72" type="line"/>
      <point x="14" y="72" type="line"/>
      <point x="14" y="0" type="line"/>
      <point x="278" y="0" type="line"/>
    </contour>
  </outline>
</glyph>
<glyph name="braceleft" format="1">
  <advance width="283"/>
  <unicode hex="007B"/>
  <outline>
    <contour>
      <point x="198" y="682" type="line"/>
      <point x="198" y="704"/>
      <point x="206" y="712"/>
      <point x="230" y="712" type="curve" smooth="yes"/>
      <point x="275" y="712" type="line"/>
      <point x="275" y="783" type="line"/>
      <point x="193" y="783" type="line" smooth="yes"/>
      <point x="126" y="783"/>
      <point x="107" y="746"/>
      <point x="107" y="693" type="curve" smooth="yes"/>
      <point x="107" y="455" type="line" smooth="yes"/>
      <point x="107" y="379"/>
      <point x="82" y="345"/>
      <point x="24" y="345" type="curve" smooth="yes"/>
      <point x="7" y="345" type="line"/>
      <point x="7" y="275" type="line"/>
      <point x="24" y="275" type="line" smooth="yes"/>
      <point x="82" y="275"/>
      <point x="107" y="241"/>
      <point x="107" y="167" type="curve"/>
      <point x="107" y="-74" type="line" smooth="yes"/>
      <point x="107" y="-128"/>
      <point x="126" y="-164"/>
      <point x="193" y="-164" type="curve" smooth="yes"/>
      <point x="275" y="-164" type="line"/>
      <point x="275" y="-93" type="line"/>
      <point x="230" y="-93" type="line" smooth="yes"/>
      <point x="206" y="-93"/>
      <point x="198" y="-85"/>
      <point x="198" y="-62" type="curve" smooth="yes"/>
      <point x="198" y="192" type="line" smooth="yes"/>
      <point x="198" y="261"/>
      <point x="172" y="304"/>
      <point x="122" y="310" type="curve"/>
      <point x="171" y="317"/>
      <point x="198" y="359"/>
      <point x="198" y="431" type="curve" smooth="yes"/>
    </contour>
  </outline>
</glyph>
<glyph name="bar" format="1">
  <advance width="197"/>
  <unicode hex="007C"/>
  <outline>
    <contour>
      <point x="54" y="743" type="line"/>
      <point x="54" y="-118" type="line"/>
      <point x="141" y="-118" type="line"/>
      <point x="141" y="743" type="line"/>
    </contour>
  </outline>
</glyph>
<glyph name="braceright" format="1">
  <advance width="283"/>
  <unicode hex="007D"/>
  <outline>
    <contour>
      <point x="84" y="431" type="line"/>
      <point x="84" y="359"/>
      <point x="110" y="317"/>
      <point x="160" y="310" type="curve"/>
      <point x="110" y="304"/>
      <point x="84" y="261"/>
      <point x="84" y="192" type="curve" smooth="yes"/>
      <point x="84" y="-62" type="line" smooth="yes"/>
      <point x="84" y="-85"/>
      <point x="76" y="-93"/>
      <point x="52" y="-93" type="curve" smooth="yes"/>
      <point x="7" y="-93" type="line"/>
      <point x="7" y="-164" type="line"/>
      <point x="89" y="-164" type="line" smooth="yes"/>
      <point x="156" y="-164"/>
      <point x="174" y="-128"/>
      <point x="174" y="-74" type="curve" smooth="yes"/>
      <point x="174" y="167" type="line"/>
      <point x="174" y="241"/>
      <point x="199" y="275"/>
      <point x="258" y="275" type="curve" smooth="yes"/>
      <point x="274" y="275" type="line"/>
      <point x="274" y="345" type="line"/>
      <point x="258" y="345" type="line" smooth="yes"/>
      <point x="199" y="345"/>
      <point x="174" y="379"/>
      <point x="174" y="455" type="curve" smooth="yes"/>
      <point x="174" y="693" type="line" smooth="yes"/>
      <point x="174" y="746"/>
      <point x="156" y="783"/>
      <point x="89" y="783" type="curve" smooth="yes"/>
      <point x="7" y="783" type="line"/>
      <point x="7" y="712" type="line"/>
      <point x="52" y="712" type="line" smooth="yes"/>
      <point x="76" y="712"/>
      <point x="84" y="704"/>
      <point x="84" y="682" type="curve"/>
    </contour>
  </outline>
</glyph>
<glyph name="asciitilde" format="1">
  <advance width="524"/>
  <unicode hex="007E"/>
  <outline>
    <contour>
      <point x="344" y="213" type="curve" smooth="yes"/>
      <point x="378" y="213" type="line"/>
      <point x="439" y="213"/>
      <point x="463" y="244"/>
      <point x="463" y="295" type="curve" smooth="yes"/>
      <point x="463" y="360" type="line"/>
      <point x="380" y="360" type="line"/>
      <point x="380" y="314" type="line" smooth="yes"/>
      <point x="380" y="291"/>
      <point x="377" y="280"/>
      <point x="353" y="280" type="curve" smooth="yes"/>
      <point x="283" y="280"/>
      <point x="265" y="361"/>
      <point x="182" y="361" type="curve" smooth="yes"/>
      <point x="145" y="361" type="line" smooth="yes"/>
      <point x="85" y="361"/>
      <point x="61" y="331"/>
      <point x="61" y="280" type="curve" smooth="yes"/>
      <point x="61" y="214" type="line"/>
      <point x="144" y="214" type="line"/>
      <point x="144" y="261" type="line" smooth="yes"/>
      <point x="144" y="282"/>
      <point x="149" y="294"/>
      <point x="174" y="294" type="curve" smooth="yes"/>
      <point x="240" y="294"/>
      <point x="254" y="213"/>
    </contour>
  </outline>
</glyph>
<glyph name="cent" format="1">
  <advance width="351"/>
  <unicode hex="00A2"/>
  <outline>
    <contour>
      <point x="128" y="386" type="line"/>
      <point x="128" y="410"/>
      <point x="134" y="415"/>
      <point x="158" y="415" type="curve" smooth="yes"/>
      <point x="186" y="415" type="line"/>
      <point x="186" y="488" type="line"/>
      <point x="131" y="488" type="line" smooth="yes"/>
      <point x="67" y="488"/>
      <point x="38" y="457"/>
      <point x="38" y="399" type="curve" smooth="yes"/>
      <point x="38" y="88" type="line" smooth="yes"/>
      <point x="38" y="31"/>
      <point x="67" y="0"/>
      <point x="131" y="0" type="curve"/>
      <point x="181" y="0" type="line"/>
      <point x="181" y="73" type="line"/>
      <point x="158" y="73" type="line" smooth="yes"/>
      <point x="134" y="73"/>
      <point x="128" y="78"/>
      <point x="128" y="102" type="curve" smooth="yes"/>
    </contour>
    <contour>
      <point x="231" y="334" type="line"/>
      <point x="320" y="334" type="line"/>
      <point x="320" y="399" type="line" smooth="yes"/>
      <point x="320" y="457"/>
      <point x="291" y="488"/>
      <point x="226" y="488" type="curve" smooth="yes"/>
      <point x="172" y="488" type="line"/>
      <point x="172" y="415" type="line"/>
      <point x="201" y="415" type="line" smooth="yes"/>
      <point x="225" y="415"/>
      <point x="231" y="410"/>
      <point x="231" y="386" type="curve" smooth="yes"/>
    </contour>
    <contour>
      <point x="231" y="102" type="line"/>
      <point x="231" y="78"/>
      <point x="225" y="73"/>
      <point x="201" y="73" type="curve" smooth="yes"/>
      <point x="172" y="73" type="line"/>
      <point x="172" y="0" type="line"/>
      <point x="226" y="0" type="line" smooth="yes"/>
      <point x="291" y="0"/>
      <point x="320" y="31"/>
      <point x="320" y="88" type="curve" smooth="yes"/>
      <point x="320" y="154" type="line"/>
      <point x="231" y="154" type="line"/>
    </contour>
    <contour>
      <point x="225" y="466" type="line"/>
      <point x="225" y="565" type="line"/>
      <point x="139" y="565" type="line"/>
      <point x="139" y="466" type="line"/>
    </contour>
    <contour>
      <point x="225" y="-76" type="line"/>
      <point x="225" y="23" type="line"/>
      <point x="139" y="23" type="line"/>
      <point x="139" y="-76" type="line"/>
    </contour>
  </outline>
</glyph>
<glyph name="sterling" format="1">
  <advance width="387"/>
  <unicode hex="00A3"/>
  <outline>
    <contour>
      <point x="171" y="524" type="line"/>
      <point x="171" y="548"/>
      <point x="177" y="553"/>
      <point x="201" y="553" type="curve"/>
      <point x="240" y="553" type="line" smooth="yes"/>
      <point x="264" y="553"/>
      <point x="269" y="548"/>
      <point x="269" y="524" type="curve" smooth="yes"/>
      <point x="269" y="446" type="line"/>
      <point x="360" y="446" type="line"/>
      <point x="360" y="538" type="line" smooth="yes"/>
      <point x="360" y="595"/>
      <point x="331" y="626"/>
      <point x="267" y="626" type="curve" smooth="yes"/>
      <point x="173" y="626" type="line" smooth="yes"/>
      <point x="109" y="626"/>
      <point x="80" y="595"/>
      <point x="80" y="538" type="curve" smooth="yes"/>
      <point x="80" y="166" type="line" smooth="yes"/>
      <point x="80" y="101"/>
      <point x="69" y="72"/>
      <point x="32" y="71" type="curve"/>
      <point x="32" y="0" type="line"/>
      <point x="364" y="0" type="line"/>
      <point x="364" y="73" type="line"/>
      <point x="145" y="73" type="line"/>
      <point x="168" y="88"/>
      <point x="171" y="117"/>
      <point x="171" y="154" type="curve" smooth="yes"/>
    </contour>
    <contour>
      <point x="32" y="267" type="line"/>
      <point x="302" y="267" type="line"/>
      <point x="302" y="338" type="line"/>
      <point x="32" y="338" type="line"/>
    </contour>
  </outline>
</glyph>
<glyph name="currency" format="1">
  <advance width="484"/>
  <unicode hex="00A4"/>
  <outline>
    <contour>
      <point x="397" y="390" type="line"/>
      <point x="397" y="456"/>
      <point x="369" y="491"/>
      <point x="297" y="491" type="curve" smooth="yes"/>
      <point x="200" y="491" type="line" smooth="yes"/>
      <point x="128" y="491"/>
      <point x="100" y="456"/>
      <point x="100" y="390" type="curve" smooth="yes"/>
      <point x="100" y="208" type="line" smooth="yes"/>
      <point x="100" y="142"/>
      <point x="128" y="106"/>
      <point x="200" y="106" type="curve" smooth="yes"/>
      <point x="297" y="106" type="line" smooth="yes"/>
      <point x="369" y="106"/>
      <point x="397" y="142"/>
      <point x="397" y="208" type="curve" smooth="yes"/>
    </contour>
    <contour>
      <point x="222" y="176" type="line"/>
      <point x="191" y="176"/>
      <point x="182" y="182"/>
      <point x="182" y="216" type="curve" smooth="yes"/>
      <point x="182" y="381" type="line" smooth="yes"/>
      <point x="182" y="416"/>
      <point x="191" y="422"/>
      <point x="222" y="422" type="curve" smooth="yes"/>
      <point x="274" y="422" type="line" smooth="yes"/>
      <point x="306" y="422"/>
      <point x="315" y="416"/>
      <point x="315" y="381" type="curve" smooth="yes"/>
      <point x="315" y="216" type="line" smooth="yes"/>
      <point x="315" y="182"/>
      <point x="306" y="176"/>
      <point x="274" y="176" type="curve" smooth="yes"/>
    </contour>
    <contour>
      <point x="202" y="458" type="line"/>
      <point x="116" y="544" type="line"/>
      <point x="58" y="486" type="line"/>
      <point x="144" y="400" type="line"/>
    </contour>
    <contour>
      <point x="346" y="400" type="line"/>
      <point x="432" y="486" type="line"/>
      <point x="374" y="544" type="line"/>
      <point x="288" y="458" type="line"/>
    </contour>
    <contour>
      <point x="144" y="203" type="line"/>
      <point x="58" y="118" type="line"/>
      <point x="116" y="60" type="line"/>
      <point x="202" y="146" type="line"/>
    </contour>
    <contour>
      <point x="288" y="146" type="line"/>
      <point x="374" y="60" type="line"/>
      <point x="432" y="118" type="line"/>
      <point x="346" y="203" type="line"/>
    </contour>
  </outline>
</glyph>
<glyph name="yen" format="1">
  <advance width="383"/>
  <unicode hex="00A5"/>
  <outline>
    <contour>
      <point x="150" y="346" type="line"/>
      <point x="22" y="346" type="line"/>
      <point x="22" y="277" type="line"/>
      <point x="150" y="277" type="line"/>
    </contour>
    <contour>
      <point x="362" y="346" type="line"/>
      <point x="243" y="346" type="line"/>
      <point x="243" y="277" type="line"/>
      <point x="362" y="277" type="line"/>
    </contour>
    <contour>
      <point x="362" y="218" type="line"/>
      <point x="22" y="218" type="line"/>
      <point x="22" y="152" type="line"/>
      <point x="362" y="152" type="line"/>
    </contour>
    <contour>
      <point x="235" y="188" type="line"/>
      <point x="370" y="626" type="line"/>
      <point x="279" y="626" type="line"/>
      <point x="192" y="295" type="line"/>
      <point x="104" y="626" type="line"/>
      <point x="13" y="626" type="line"/>
      <point x="150" y="188" type="line"/>
    </contour>
    <contour>
      <point x="147" y="238" type="line"/>
      <point x="147" y="0" type="line"/>
      <point x="238" y="0" type="line"/>
      <point x="238" y="238" type="line"/>
    </contour>
  </outline>
</glyph>
<glyph name="brokenbar" format="1">
  <advance width="197"/>
  <unicode hex="00A6"/>
  <outline>
    <contour>
      <point x="52" y="250" type="line"/>
      <point x="52" y="-97" type="line"/>
      <point x="143" y="-97" type="line"/>
      <point x="143" y="250" type="line"/>
    </contour>
    <contour>
      <point x="143" y="375" type="line"/>
      <point x="143" y="722" type="line"/>
      <point x="52" y="722" type="line"/>
      <point x="52" y="375" type="line"/>
    </contour>
  </outline>
</glyph>
<glyph name="section" format="1">
  <advance width="419"/>
  <unicode hex="00A7"/>
  <outline>
    <contour>
      <point x="222" y="193" type="line"/>
      <point x="282" y="193" type="line" smooth="yes"/>
      <point x="346" y="193"/>
      <point x="365" y="231"/>
      <point x="365" y="289" type="curve" smooth="yes"/>
      <point x="365" y="370" type="line" smooth="yes"/>
      <point x="365" y="428"/>
      <point x="336" y="458"/>
      <point x="272" y="458" type="curve" smooth="yes"/>
      <point x="206" y="458" type="line" smooth="yes"/>
      <point x="181" y="458"/>
      <point x="176" y="464"/>
      <point x="176" y="488" type="curve" smooth="yes"/>
      <point x="176" y="569" type="line" smooth="yes"/>
      <point x="176" y="593"/>
      <point x="181" y="599"/>
      <point x="206" y="599" type="curve" smooth="yes"/>
      <point x="246" y="599" type="line" smooth="yes"/>
      <point x="270" y="599"/>
      <point x="276" y="593"/>
      <point x="276" y="569" type="curve" smooth="yes"/>
      <point x="276" y="534" type="line"/>
      <point x="366" y="534" type="line"/>
      <point x="366" y="580" type="line" smooth="yes"/>
      <point x="366" y="637"/>
      <point x="337" y="668"/>
      <point x="273" y="668" type="curve" smooth="yes"/>
      <point x="179" y="668" type="line" smooth="yes"/>
      <point x="115" y="668"/>
      <point x="86" y="637"/>
      <point x="86" y="580" type="curve" smooth="yes"/>
      <point x="86" y="476" type="line" smooth="yes"/>
      <point x="86" y="418"/>
      <point x="115" y="388"/>
      <point x="179" y="388" type="curve" smooth="yes"/>
      <point x="248" y="388" type="line" smooth="yes"/>
      <point x="272" y="388"/>
      <point x="277" y="382"/>
      <point x="277" y="359" type="curve" smooth="yes"/>
      <point x="277" y="269" type="line" smooth="yes"/>
      <point x="277" y="245"/>
      <point x="272" y="240"/>
      <point x="248" y="240" type="curve" smooth="yes"/>
      <point x="222" y="240" type="line"/>
    </contour>
    <contour>
      <point x="197" y="432" type="line"/>
      <point x="137" y="432" type="line" smooth="yes"/>
      <point x="73" y="432"/>
      <point x="54" y="394"/>
      <point x="54" y="335" type="curve" smooth="yes"/>
      <point x="54" y="258" type="line" smooth="yes"/>
      <point x="54" y="200"/>
      <point x="83" y="169"/>
      <point x="147" y="169" type="curve" smooth="yes"/>
      <point x="214" y="169" type="line" smooth="yes"/>
      <point x="238" y="169"/>
      <point x="243" y="164"/>
      <point x="243" y="140" type="curve" smooth="yes"/>
      <point x="243" y="58" type="line" smooth="yes"/>
      <point x="243" y="34"/>
      <point x="238" y="29"/>
      <point x="214" y="29" type="curve" smooth="yes"/>
      <point x="173" y="29" type="line" smooth="yes"/>
      <point x="149" y="29"/>
      <point x="143" y="34"/>
      <point x="143" y="58" type="curve" smooth="yes"/>
      <point x="143" y="93" type="line"/>
      <point x="53" y="93" type="line"/>
      <point x="53" y="48" type="line" smooth="yes"/>
      <point x="53" y="-10"/>
      <point x="82" y="-41"/>
      <point x="146" y="-41" type="curve" smooth="yes"/>
      <point x="240" y="-41" type="line" smooth="yes"/>
      <point x="305" y="-41"/>
      <point x="334" y="-10"/>
      <point x="334" y="48" type="curve" smooth="yes"/>
      <point x="334" y="151" type="line" smooth="yes"/>
      <point x="334" y="209"/>
      <point x="305" y="240"/>
      <point x="240" y="240" type="curve" smooth="yes"/>
      <point x="172" y="240" type="line" smooth="yes"/>
      <point x="148" y="240"/>
      <point x="142" y="245"/>
      <point x="142" y="269" type="curve" smooth="yes"/>
      <point x="142" y="359" type="line" smooth="yes"/>
      <point x="142" y="382"/>
      <point x="148" y="388"/>
      <point x="172" y="388" type="curve" smooth="yes"/>
      <point x="197" y="388" type="line"/>
    </contour>
  </outline>
</glyph>
<glyph name="dieresis" format="1">
  <advance width="421"/>
  <unicode hex="00A8"/>
  <outline>
    <contour>
      <point x="65" y="541" type="line"/>
      <point x="167" y="541" type="line"/>
      <point x="167" y="635" type="line"/>
      <point x="65" y="635" type="line"/>
    </contour>
    <contour>
      <point x="255" y="541" type="line"/>
      <point x="356" y="541" type="line"/>
      <point x="356" y="635" type="line"/>
      <point x="255" y="635" type="line"/>
    </contour>
  </outline>
</glyph>
<glyph name="copyright" format="1">
  <advance width="701"/>
  <unicode hex="00A9"/>
  <outline>
    <contour>
      <point x="670" y="341" type="line"/>
      <point x="670" y="525"/>
      <point x="609" y="626"/>
      <point x="453" y="626" type="curve" smooth="yes"/>
      <point x="262" y="626" type="line" smooth="yes"/>
      <point x="106" y="626"/>
      <point x="45" y="525"/>
      <point x="45" y="341" type="curve" smooth="yes"/>
      <point x="45" y="278" type="line" smooth="yes"/>
      <point x="45" y="94"/>
      <point x="106" y="0"/>
      <point x="262" y="0" type="curve" smooth="yes"/>
      <point x="453" y="0" type="line" smooth="yes"/>
      <point x="609" y="0"/>
      <point x="670" y="94"/>
      <point x="670" y="278" type="curve" smooth="yes"/>
    </contour>
    <contour>
      <point x="270" y="68" type="line"/>
      <point x="160" y="68"/>
      <point x="125" y="147"/>
      <point x="125" y="273" type="curve" smooth="yes"/>
      <point x="125" y="346" type="line" smooth="yes"/>
      <point x="125" y="472"/>
      <point x="160" y="560"/>
      <point x="270" y="560" type="curve" smooth="yes"/>
      <point x="445" y="560" type="line" smooth="yes"/>
      <point x="555" y="560"/>
      <point x="590" y="472"/>
      <point x="590" y="346" type="curve" smooth="yes"/>
      <point x="590" y="273" type="line" smooth="yes"/>
      <point x="590" y="147"/>
      <point x="555" y="68"/>
      <point x="445" y="68" type="curve" smooth="yes"/>
    </contour>
    <contour>
      <point x="407" y="244" type="line"/>
      <point x="407" y="222"/>
      <point x="402" y="217"/>
      <point x="379" y="217" type="curve" smooth="yes"/>
      <point x="336" y="217" type="line" smooth="yes"/>
      <point x="313" y="217"/>
      <point x="308" y="222"/>
      <point x="308" y="244" type="curve" smooth="yes"/>
      <point x="308" y="392" type="line" smooth="yes"/>
      <point x="308" y="415"/>
      <point x="313" y="420"/>
      <point x="336" y="420" type="curve" smooth="yes"/>
      <point x="379" y="420" type="line" smooth="yes"/>
      <point x="402" y="420"/>
      <point x="407" y="415"/>
      <point x="407" y="392" type="curve" smooth="yes"/>
      <point x="407" y="367" type="line"/>
      <point x="487" y="367" type="line"/>
      <point x="487" y="405" type="line" smooth="yes"/>
      <point x="487" y="458"/>
      <point x="460" y="486"/>
      <point x="403" y="486" type="curve" smooth="yes"/>
      <point x="313" y="486" type="line" smooth="yes"/>
      <point x="255" y="486"/>
      <point x="229" y="458"/>
      <point x="229" y="405" type="curve" smooth="yes"/>
      <point x="229" y="231" type="line" smooth="yes"/>
      <point x="229" y="179"/>
      <point x="255" y="151"/>
      <point x="313" y="151" type="curve" smooth="yes"/>
      <point x="403" y="151" type="line" smooth="yes"/>
      <point x="460" y="151"/>
      <point x="487" y="179"/>
      <point x="487" y="231" type="curve" smooth="yes"/>
      <point x="487" y="270" type="line"/>
      <point x="407" y="270" type="line"/>
    </contour>
  </outline>
</glyph>
<glyph name="ordfeminine" format="1">
  <advance width="257"/>
  <unicode hex="00AA"/>
  <outline>
    <contour>
      <point x="85" y="442" type="line"/>
      <point x="85" y="555" type="line" smooth="yes"/>
      <point x="85" y="572"/>
      <point x="89" y="575"/>
      <point x="107" y="575" type="curve" smooth="yes"/>
      <point x="144" y="575" type="line" smooth="yes"/>
      <point x="160" y="575"/>
      <point x="166" y="568"/>
      <point x="166" y="550" type="curve" smooth="yes"/>
      <point x="166" y="530" type="line"/>
      <point x="170" y="530" type="line"/>
      <point x="170" y="578" type="line" smooth="yes"/>
      <point x="170" y="611"/>
      <point x="153" y="626"/>
      <point x="124" y="626" type="curve" smooth="yes"/>
      <point x="89" y="626" type="line" smooth="yes"/>
      <point x="45" y="626"/>
      <point x="25" y="605"/>
      <point x="25" y="563" type="curve" smooth="yes"/>
      <point x="25" y="442" type="line"/>
    </contour>
    <contour>
      <point x="227" y="282" type="line"/>
      <point x="227" y="626" type="line"/>
      <point x="167" y="626" type="line"/>
      <point x="167" y="581" type="line"/>
      <point x="166" y="577" type="line"/>
      <point x="166" y="282" type="line"/>
    </contour>
    <contour>
      <point x="25" y="466" type="line"/>
      <point x="25" y="345" type="line" smooth="yes"/>
      <point x="25" y="303"/>
      <point x="45" y="282"/>
      <point x="89" y="282" type="curve" smooth="yes"/>
      <point x="125" y="282" type="line" smooth="yes"/>
      <point x="154" y="282"/>
      <point x="170" y="297"/>
      <point x="170" y="330" type="curve" smooth="yes"/>
      <point x="170" y="377" type="line"/>
      <point x="166" y="377" type="line"/>
      <point x="166" y="358" type="line" smooth="yes"/>
      <point x="166" y="340"/>
      <point x="160" y="334"/>
      <point x="144" y="334" type="curve" smooth="yes"/>
      <point x="107" y="334" type="line" smooth="yes"/>
      <point x="89" y="334"/>
      <point x="85" y="338"/>
      <point x="85" y="355" type="curve" smooth="yes"/>
      <point x="85" y="466" type="line"/>
    </contour>
  </outline>
</glyph>
<glyph name="guillemotleft" format="1">
  <advance width="490"/>
  <unicode hex="00AB"/>
  <outline>
    <contour>
      <point x="156" y="104" type="line"/>
      <point x="250" y="104" type="line"/>
      <point x="130" y="258" type="line"/>
      <point x="250" y="414" type="line"/>
      <point x="156" y="414" type="line"/>
      <point x="37" y="259" type="line"/>
    </contour>
    <contour>
      <point x="358" y="104" type="line"/>
      <point x="453" y="104" type="line"/>
      <point x="332" y="258" type="line"/>
      <point x="453" y="414" type="line"/>
      <point x="358" y="414" type="line"/>
      <point x="240" y="259" type="line"/>
    </contour>
  </outline>
</glyph>
<glyph name="logicalnot" format="1">
  <advance width="460"/>
  <unicode hex="00AC"/>
  <outline>
    <contour>
      <point x="403" y="400" type="line"/>
      <point x="34" y="400" type="line"/>
      <point x="34" y="309" type="line"/>
      <point x="403" y="309" type="line"/>
    </contour>
    <contour>
      <point x="416" y="161" type="line"/>
      <point x="416" y="400" type="line"/>
      <point x="345" y="400" type="line"/>
      <point x="345" y="161" type="line"/>
    </contour>
  </outline>
</glyph>
<glyph name="registered" format="1">
  <advance width="414"/>
  <unicode hex="00AE"/>
  <outline>
    <contour>
      <point x="380" y="535" type="line"/>
      <point x="380" y="636"/>
      <point x="346" y="692"/>
      <point x="260" y="692" type="curve" smooth="yes"/>
      <point x="154" y="692" type="line" smooth="yes"/>
      <point x="67" y="692"/>
      <point x="34" y="636"/>
      <point x="34" y="535" type="curve" smooth="yes"/>
      <point x="34" y="500" type="line" smooth="yes"/>
      <point x="34" y="399"/>
      <point x="67" y="346"/>
      <point x="154" y="346" type="curve" smooth="yes"/>
      <point x="260" y="346" type="line" smooth="yes"/>
      <point x="346" y="346"/>
      <point x="380" y="399"/>
      <point x="380" y="500" type="curve" smooth="yes"/>
    </contour>
    <contour>
      <point x="159" y="385" type="line"/>
      <point x="98" y="385"/>
      <point x="79" y="427"/>
      <point x="79" y="497" type="curve" smooth="yes"/>
      <point x="79" y="537" type="line" smooth="yes"/>
      <point x="79" y="607"/>
      <point x="98" y="655"/>
      <point x="159" y="655" type="curve" smooth="yes"/>
      <point x="256" y="655" type="line" smooth="yes"/>
      <point x="317" y="655"/>
      <point x="335" y="607"/>
      <point x="335" y="537" type="curve" smooth="yes"/>
      <point x="335" y="497" type="line" smooth="yes"/>
      <point x="335" y="427"/>
      <point x="317" y="385"/>
      <point x="256" y="385" type="curve" smooth="yes"/>
    </contour>
    <contour>
      <point x="156" y="625" type="line"/>
      <point x="156" y="417" type="line"/>
      <point x="192" y="417" type="line"/>
      <point x="192" y="498" type="line"/>
      <point x="202" y="498" type="line"/>
      <point x="234" y="417" type="line"/>
      <point x="272" y="417" type="line"/>
      <point x="239" y="500" type="line"/>
      <point x="254" y="503"/>
      <point x="261" y="514"/>
      <point x="261" y="532" type="curve"/>
      <point x="261" y="593" type="line" smooth="yes"/>
      <point x="261" y="614"/>
      <point x="250" y="625"/>
      <point x="226" y="625" type="curve" smooth="yes"/>
    </contour>
    <contour>
      <point x="224" y="535" type="line"/>
      <point x="224" y="530"/>
      <point x="223" y="529"/>
      <point x="218" y="529" type="curve" smooth="yes"/>
      <point x="192" y="529" type="line"/>
      <point x="192" y="596" type="line"/>
      <point x="218" y="596" type="line" smooth="yes"/>
      <point x="223" y="596"/>
      <point x="224" y="594"/>
      <point x="224" y="589" type="curve" smooth="yes"/>
    </contour>
  </outline>
</glyph>
<glyph name="degree" format="1">
  <advance width="383"/>
  <unicode hex="00B0"/>
  <outline>
    <contour>
      <point x="324" y="539" type="line"/>
      <point x="324" y="596"/>
      <point x="297" y="626"/>
      <point x="233" y="626" type="curve" smooth="yes"/>
      <point x="145" y="626" type="line" smooth="yes"/>
      <point x="81" y="626"/>
      <point x="54" y="596"/>
      <point x="54" y="539" type="curve" smooth="yes"/>
      <point x="54" y="429" type="line" smooth="yes"/>
      <point x="54" y="373"/>
      <point x="81" y="343"/>
      <point x="145" y="343" type="curve" smooth="yes"/>
      <point x="233" y="343" type="line" smooth="yes"/>
      <point x="297" y="343"/>
      <point x="324" y="373"/>
      <point x="324" y="429" type="curve"/>
    </contour>
    <contour>
      <point x="240" y="437" type="line"/>
      <point x="240" y="414"/>
      <point x="235" y="409"/>
      <point x="210" y="409" type="curve" smooth="yes"/>
      <point x="168" y="409" type="line" smooth="yes"/>
      <point x="144" y="409"/>
      <point x="138" y="414"/>
      <point x="138" y="437" type="curve" smooth="yes"/>
      <point x="138" y="532" type="line" smooth="yes"/>
      <point x="138" y="554"/>
      <point x="144" y="560"/>
      <point x="168" y="560" type="curve" smooth="yes"/>
      <point x="210" y="560" type="line" smooth="yes"/>
      <point x="235" y="560"/>
      <point x="240" y="554"/>
      <point x="240" y="532" type="curve"/>
    </contour>
  </outline>
</glyph>
<glyph name="plusminus" format="1">
  <advance width="420"/>
  <unicode hex="00B1"/>
  <outline>
    <contour>
      <point x="29" y="354" type="line"/>
      <point x="391" y="354" type="line"/>
      <point x="391" y="426" type="line"/>
      <point x="29" y="426" type="line"/>
    </contour>
    <contour>
      <point x="165" y="505" type="line"/>
      <point x="165" y="275" type="line"/>
      <point x="255" y="275" type="line"/>
      <point x="255" y="505" type="line"/>
    </contour>
    <contour>
      <point x="29" y="171" type="line"/>
      <point x="391" y="171" type="line"/>
      <point x="391" y="244" type="line"/>
      <point x="29" y="244" type="line"/>
    </contour>
  </outline>
</glyph>
<glyph name="twosuperior" format="1">
  <advance width="202"/>
  <unicode hex="00B2"/>
  <outline>
    <contour>
      <point x="73" y="563" type="line"/>
      <point x="73" y="575"/>
      <point x="76" y="579"/>
      <point x="90" y="579" type="curve"/>
      <point x="108" y="579" type="line" smooth="yes"/>
      <point x="121" y="579"/>
      <point x="124" y="575"/>
      <point x="124" y="563" type="curve" smooth="yes"/>
      <point x="124" y="545" type="line" smooth="yes"/>
      <point x="124" y="517"/>
      <point x="121" y="499"/>
      <point x="107" y="478" type="curve"/>
      <point x="14" y="330" type="line"/>
      <point x="14" y="282" type="line"/>
      <point x="186" y="282" type="line"/>
      <point x="186" y="333" type="line"/>
      <point x="84" y="333" type="line"/>
      <point x="162" y="462" type="line" smooth="yes"/>
      <point x="178" y="487"/>
      <point x="184" y="513"/>
      <point x="184" y="545" type="curve" smooth="yes"/>
      <point x="184" y="578" type="line" smooth="yes"/>
      <point x="184" y="609"/>
      <point x="168" y="626"/>
      <point x="133" y="626" type="curve" smooth="yes"/>
      <point x="65" y="626" type="line" smooth="yes"/>
      <point x="29" y="626"/>
      <point x="14" y="609"/>
      <point x="14" y="578" type="curve" smooth="yes"/>
      <point x="14" y="512" type="line"/>
      <point x="73" y="512" type="line"/>
    </contour>
  </outline>
</glyph>
<glyph name="threesuperior" format="1">
  <advance width="214"/>
  <unicode hex="00B3"/>
  <outline>
    <contour>
      <point x="76" y="563" type="line"/>
      <point x="76" y="575"/>
      <point x="79" y="579"/>
      <point x="92" y="579" type="curve" smooth="yes"/>
      <point x="113" y="579" type="line" smooth="yes"/>
      <point x="126" y="579"/>
      <point x="129" y="575"/>
      <point x="129" y="563" type="curve" smooth="yes"/>
      <point x="129" y="495" type="line" smooth="yes"/>
      <point x="129" y="483"/>
      <point x="126" y="479"/>
      <point x="113" y="479" type="curve" smooth="yes"/>
      <point x="82" y="479" type="line"/>
      <point x="82" y="432" type="line"/>
      <point x="113" y="432" type="line" smooth="yes"/>
      <point x="126" y="432"/>
      <point x="129" y="429"/>
      <point x="129" y="416" type="curve" smooth="yes"/>
      <point x="129" y="346" type="line" smooth="yes"/>
      <point x="129" y="333"/>
      <point x="126" y="330"/>
      <point x="113" y="330" type="curve" smooth="yes"/>
      <point x="92" y="330" type="line" smooth="yes"/>
      <point x="79" y="330"/>
      <point x="76" y="333"/>
      <point x="76" y="346" type="curve" smooth="yes"/>
      <point x="76" y="389" type="line"/>
      <point x="15" y="389" type="line"/>
      <point x="15" y="330" type="line" smooth="yes"/>
      <point x="15" y="299"/>
      <point x="32" y="282"/>
      <point x="67" y="282" type="curve" smooth="yes"/>
      <point x="138" y="282" type="line" smooth="yes"/>
      <point x="173" y="282"/>
      <point x="189" y="299"/>
      <point x="189" y="330" type="curve" smooth="yes"/>
      <point x="189" y="424" type="line" smooth="yes"/>
      <point x="189" y="442"/>
      <point x="182" y="453"/>
      <point x="167" y="456" type="curve"/>
      <point x="182" y="459"/>
      <point x="189" y="471"/>
      <point x="189" y="490" type="curve" smooth="yes"/>
      <point x="189" y="578" type="line" smooth="yes"/>
      <point x="189" y="609"/>
      <point x="173" y="626"/>
      <point x="138" y="626" type="curve"/>
      <point x="67" y="626" type="line" smooth="yes"/>
      <point x="32" y="626"/>
      <point x="15" y="609"/>
      <point x="15" y="578" type="curve" smooth="yes"/>
      <point x="15" y="519" type="line"/>
      <point x="76" y="519" type="line"/>
    </contour>
  </outline>
</glyph>
<glyph name="acute" format="1">
  <advance width="421"/>
  <unicode hex="00B4"/>
  <outline>
    <contour>
      <point x="118" y="519" type="line"/>
      <point x="195" y="519" type="line"/>
      <point x="300" y="651" type="line"/>
      <point x="200" y="651" type="line"/>
    </contour>
  </outline>
</glyph>
<glyph name="mu.math" format="1">
  <advance width="371"/>
  <unicode hex="00B5"/>
  <outline>
    <contour>
      <point x="40" y="488" type="line"/>
      <point x="40" y="88" type="line" smooth="yes"/>
      <point x="40" y="31"/>
      <point x="69" y="0"/>
      <point x="130" y="0" type="curve" smooth="yes"/>
      <point x="166" y="0" type="line" smooth="yes"/>
      <point x="207" y="0"/>
      <point x="232" y="20"/>
      <point x="232" y="68" type="curve" smooth="yes"/>
      <point x="232" y="140" type="line"/>
      <point x="228" y="140" type="line"/>
      <point x="228" y="108" type="line" smooth="yes"/>
      <point x="228" y="82"/>
      <point x="218" y="73"/>
      <point x="195" y="73" type="curve" smooth="yes"/>
      <point x="160" y="73" type="line" smooth="yes"/>
      <point x="136" y="73"/>
      <point x="130" y="78"/>
      <point x="130" y="102" type="curve" smooth="yes"/>
      <point x="130" y="488" type="line"/>
    </contour>
    <contour>
      <point x="228" y="488" type="line"/>
      <point x="228" y="67" type="line"/>
      <point x="228" y="61" type="line"/>
      <point x="228" y="0" type="line"/>
      <point x="318" y="0" type="line"/>
      <point x="318" y="488" type="line"/>
    </contour>
    <contour>
      <point x="40" y="438" type="line"/>
      <point x="40" y="-138" type="line"/>
      <point x="130" y="-138" type="line"/>
      <point x="130" y="438" type="line"/>
    </contour>
  </outline>
</glyph>
<glyph name="paragraph" format="1">
  <advance width="507"/>
  <unicode hex="00B6"/>
  <outline>
    <contour>
      <point x="254" y="626" type="line"/>
      <point x="142" y="626" type="line" smooth="yes"/>
      <point x="78" y="626"/>
      <point x="49" y="595"/>
      <point x="49" y="538" type="curve" smooth="yes"/>
      <point x="49" y="314" type="line" smooth="yes"/>
      <point x="49" y="257"/>
      <point x="78" y="226"/>
      <point x="142" y="226" type="curve" smooth="yes"/>
      <point x="254" y="226" type="line"/>
    </contour>
    <contour>
      <point x="205" y="626" type="line"/>
      <point x="205" y="-138" type="line"/>
      <point x="287" y="-138" type="line"/>
      <point x="287" y="626" type="line"/>
    </contour>
    <contour>
      <point x="363" y="626" type="line"/>
      <point x="363" y="-138" type="line"/>
      <point x="445" y="-138" type="line"/>
      <point x="445" y="626" type="line"/>
    </contour>
  </outline>
</glyph>
<glyph name="periodcentered" format="1">
  <advance width="217"/>
  <unicode hex="00B7"/>
  <outline>
    <contour>
      <point x="34" y="259" type="line"/>
      <point x="135" y="259" type="line"/>
      <point x="135" y="380" type="line"/>
      <point x="34" y="380" type="line"/>
    </contour>
  </outline>
</glyph>
<glyph name="cedilla" format="1">
  <advance width="421"/>
  <unicode hex="00B8"/>
  <outline>
    <contour>
      <point x="206" y="-84" type="line"/>
      <point x="206" y="-107"/>
      <point x="197" y="-117"/>
      <point x="173" y="-117" type="curve" smooth="yes"/>
      <point x="133" y="-117" type="line"/>
      <point x="133" y="-187" type="line"/>
      <point x="190" y="-187" type="line" smooth="yes"/>
      <point x="255" y="-187"/>
      <point x="291" y="-155"/>
      <point x="291" y="-91" type="curve" smooth="yes"/>
      <point x="291" y="-50" type="line"/>
      <point x="206" y="-50" type="line"/>
    </contour>
  </outline>
</glyph>
<glyph name="onesuperior" format="1">
  <advance width="145"/>
  <unicode hex="00B9"/>
  <outline>
    <contour>
      <point x="76" y="626" type="line"/>
      <point x="11" y="626" type="line"/>
      <point x="11" y="579" type="line"/>
      <point x="76" y="579" type="line"/>
    </contour>
    <contour>
      <point x="50" y="626" type="line"/>
      <point x="50" y="282" type="line"/>
      <point x="111" y="282" type="line"/>
      <point x="111" y="626" type="line"/>
    </contour>
  </outline>
</glyph>
<glyph name="ordmasculine" format="1">
  <advance width="248"/>
  <unicode hex="00BA"/>
  <outline>
    <contour>
      <point x="162" y="395" type="line"/>
      <point x="222" y="395" type="line"/>
      <point x="222" y="563" type="line" smooth="yes"/>
      <point x="222" y="605"/>
      <point x="202" y="626"/>
      <point x="157" y="626" type="curve" smooth="yes"/>
      <point x="126" y="626" type="line"/>
      <point x="126" y="579" type="line"/>
      <point x="140" y="579" type="line" smooth="yes"/>
      <point x="158" y="579"/>
      <point x="162" y="575"/>
      <point x="162" y="558" type="curve" smooth="yes"/>
    </contour>
    <contour>
      <point x="162" y="350" type="line"/>
      <point x="162" y="334"/>
      <point x="158" y="330"/>
      <point x="140" y="330" type="curve" smooth="yes"/>
      <point x="122" y="330" type="line"/>
      <point x="122" y="282" type="line"/>
      <point x="157" y="282" type="line" smooth="yes"/>
      <point x="202" y="282"/>
      <point x="222" y="303"/>
      <point x="222" y="345" type="curve" smooth="yes"/>
      <point x="222" y="425" type="line"/>
      <point x="162" y="425" type="line"/>
    </contour>
    <contour>
      <point x="86" y="558" type="line"/>
      <point x="86" y="575"/>
      <point x="89" y="579"/>
      <point x="107" y="579" type="curve" smooth="yes"/>
      <point x="138" y="579" type="line"/>
      <point x="138" y="626" type="line"/>
      <point x="91" y="626" type="line" smooth="yes"/>
      <point x="45" y="626"/>
      <point x="26" y="605"/>
      <point x="26" y="563" type="curve" smooth="yes"/>
      <point x="26" y="395" type="line"/>
      <point x="86" y="395" type="line"/>
    </contour>
    <contour>
      <point x="86" y="429" type="line"/>
      <point x="26" y="429" type="line"/>
      <point x="26" y="345" type="line" smooth="yes"/>
      <point x="26" y="303"/>
      <point x="45" y="282"/>
      <point x="91" y="282" type="curve" smooth="yes"/>
      <point x="136" y="282" type="line"/>
      <point x="136" y="330" type="line"/>
      <point x="107" y="330" type="line" smooth="yes"/>
      <point x="89" y="330"/>
      <point x="86" y="334"/>
      <point x="86" y="350" type="curve" smooth="yes"/>
    </contour>
  </outline>
</glyph>
<glyph name="guillemotright" format="1">
  <advance width="490"/>
  <unicode hex="00BB"/>
  <outline>
    <contour>
      <point x="250" y="259" type="line"/>
      <point x="131" y="414" type="line"/>
      <point x="37" y="414" type="line"/>
      <point x="158" y="258" type="line"/>
      <point x="37" y="104" type="line"/>
      <point x="131" y="104" type="line"/>
    </contour>
    <contour>
      <point x="453" y="259" type="line"/>
      <point x="334" y="414" type="line"/>
      <point x="240" y="414" type="line"/>
      <point x="360" y="258" type="line"/>
      <point x="240" y="104" type="line"/>
      <point x="334" y="104" type="line"/>
    </contour>
  </outline>
</glyph>
<glyph name="AE" format="1">
  <advance width="579"/>
  <unicode hex="00C6"/>
  <outline>
    <contour>
      <point x="326" y="626" type="line"/>
      <point x="243" y="626" type="line"/>
      <point x="11" y="0" type="line"/>
      <point x="102" y="0" type="line"/>
    </contour>
    <contour>
      <point x="311" y="221" type="line"/>
      <point x="106" y="221" type="line"/>
      <point x="106" y="149" type="line"/>
      <point x="311" y="149" type="line"/>
    </contour>
    <contour>
      <point x="286" y="626" type="line"/>
      <point x="286" y="0" type="line"/>
      <point x="375" y="0" type="line"/>
      <point x="375" y="626" type="line"/>
    </contour>
    <contour>
      <point x="556" y="73" type="line"/>
      <point x="332" y="73" type="line"/>
      <point x="332" y="0" type="line"/>
      <point x="556" y="0" type="line"/>
    </contour>
    <contour>
      <point x="519" y="360" type="line"/>
      <point x="335" y="360" type="line"/>
      <point x="335" y="287" type="line"/>
      <point x="519" y="287" type="line"/>
    </contour>
    <contour>
      <point x="549" y="626" type="line"/>
      <point x="332" y="626" type="line"/>
      <point x="332" y="553" type="line"/>
      <point x="549" y="553" type="line"/>
    </contour>
  </outline>
</glyph>
<glyph name="Eth" format="1">
  <advance width="412"/>
  <unicode hex="00D0"/>
  <outline>
    <contour>
      <point x="274" y="392" type="line"/>
      <point x="365" y="392" type="line"/>
      <point x="365" y="538" type="line" smooth="yes"/>
      <point x="365" y="595"/>
      <point x="336" y="626"/>
      <point x="272" y="626" type="curve" smooth="yes"/>
      <point x="97" y="626" type="line"/>
      <point x="97" y="555" type="line"/>
      <point x="244" y="555" type="line" smooth="yes"/>
      <point x="268" y="555"/>
      <point x="274" y="550"/>
      <point x="274" y="526" type="curve" smooth="yes"/>
    </contour>
    <contour>
      <point x="274" y="100" type="line"/>
      <point x="274" y="76"/>
      <point x="268" y="71"/>
      <point x="244" y="71" type="curve" smooth="yes"/>
      <point x="97" y="71" type="line"/>
      <point x="97" y="0" type="line"/>
      <point x="272" y="0" type="line" smooth="yes"/>
      <point x="336" y="0"/>
      <point x="365" y="31"/>
      <point x="365" y="88" type="curve" smooth="yes"/>
      <point x="365" y="415" type="line"/>
      <point x="274" y="415" type="line"/>
    </contour>
    <contour>
      <point x="54" y="626" type="line"/>
      <point x="54" y="0" type="line"/>
      <point x="145" y="0" type="line"/>
      <point x="145" y="626" type="line"/>
    </contour>
    <contour>
      <point x="220" y="351" type="line"/>
      <point x="3" y="351" type="line"/>
      <point x="3" y="280" type="line"/>
      <point x="220" y="280" type="line"/>
    </contour>
  </outline>
</glyph>
<glyph name="multiply" format="1">
  <advance width="378"/>
  <unicode hex="00D7"/>
  <outline>
    <contour>
      <point x="354" y="202" type="line"/>
      <point x="80" y="476" type="line"/>
      <point x="24" y="420" type="line"/>
      <point x="298" y="146" type="line"/>
    </contour>
    <contour>
      <point x="298" y="476" type="line"/>
      <point x="24" y="202" type="line"/>
      <point x="80" y="146" type="line"/>
      <point x="354" y="420" type="line"/>
    </contour>
  </outline>
</glyph>
<glyph name="Oslash" format="1">
  <advance width="401"/>
  <unicode hex="00D8"/>
  <outline>
    <contour>
      <point x="349" y="538" type="line"/>
      <point x="349" y="595"/>
      <point x="321" y="626"/>
      <point x="256" y="626" type="curve" smooth="yes"/>
      <point x="145" y="626" type="line" smooth="yes"/>
      <point x="80" y="626"/>
      <point x="51" y="595"/>
      <point x="51" y="538" type="curve" smooth="yes"/>
      <point x="51" y="88" type="line" smooth="yes"/>
      <point x="51" y="31"/>
      <point x="80" y="0"/>
      <point x="145" y="0" type="curve" smooth="yes"/>
      <point x="256" y="0" type="line" smooth="yes"/>
      <point x="321" y="0"/>
      <point x="349" y="31"/>
      <point x="349" y="88" type="curve" smooth="yes"/>
    </contour>
    <contour>
      <point x="262" y="98" type="line"/>
      <point x="262" y="74"/>
      <point x="256" y="68"/>
      <point x="231" y="68" type="curve" smooth="yes"/>
      <point x="169" y="68" type="line" smooth="yes"/>
      <point x="144" y="68"/>
      <point x="139" y="74"/>
      <point x="139" y="98" type="curve" smooth="yes"/>
      <point x="139" y="529" type="line" smooth="yes"/>
      <point x="139" y="552"/>
      <point x="144" y="558"/>
      <point x="169" y="558" type="curve" smooth="yes"/>
      <point x="231" y="558" type="line"/>
      <point x="256" y="558"/>
      <point x="262" y="552"/>
      <point x="262" y="529" type="curve" smooth="yes"/>
    </contour>
    <contour>
      <point x="299" y="646" type="line"/>
      <point x="50" y="-20" type="line"/>
      <point x="103" y="-20" type="line"/>
      <point x="352" y="646" type="line"/>
    </contour>
  </outline>
</glyph>
<glyph name="Thorn" format="1">
  <advance width="385"/>
  <unicode hex="00DE"/>
  <outline>
    <contour>
      <point x="259" y="224" type="line"/>
      <point x="259" y="200"/>
      <point x="253" y="195"/>
      <point x="229" y="195" type="curve" smooth="yes"/>
      <point x="97" y="195" type="line"/>
      <point x="97" y="123" type="line"/>
      <point x="256" y="123" type="line" smooth="yes"/>
      <point x="321" y="123"/>
      <point x="349" y="154"/>
      <point x="349" y="211" type="curve" smooth="yes"/>
      <point x="349" y="415" type="line" smooth="yes"/>
      <point x="349" y="472"/>
      <point x="321" y="503"/>
      <point x="256" y="503" type="curve" smooth="yes"/>
      <point x="89" y="503" type="line"/>
      <point x="89" y="431" type="line"/>
      <point x="229" y="431" type="line" smooth="yes"/>
      <point x="253" y="431"/>
      <point x="259" y="426"/>
      <point x="259" y="402" type="curve" smooth="yes"/>
    </contour>
    <contour>
      <point x="53" y="626" type="line"/>
      <point x="53" y="0" type="line"/>
      <point x="143" y="0" type="line"/>
      <point x="143" y="626" type="line"/>
    </contour>
  </outline>
</glyph>
<glyph name="germandbls" format="1">
  <advance width="477"/>
  <unicode hex="00DF"/>
  <outline>
    <contour>
      <point x="200" y="151" type="line"/>
      <point x="200" y="88" type="line" smooth="yes"/>
      <point x="200" y="31"/>
      <point x="229" y="0"/>
      <point x="292" y="0" type="curve" smooth="yes"/>
      <point x="356" y="0" type="line" smooth="yes"/>
      <point x="420" y="0"/>
      <point x="447" y="31"/>
      <point x="447" y="88" type="curve" smooth="yes"/>
      <point x="447" y="190" type="line" smooth="yes"/>
      <point x="447" y="247"/>
      <point x="418" y="278"/>
      <point x="354" y="278" type="curve" smooth="yes"/>
      <point x="317" y="278" type="line" smooth="yes"/>
      <point x="293" y="278"/>
      <point x="287" y="283"/>
      <point x="287" y="307" type="curve" smooth="yes"/>
      <point x="287" y="344" type="line" smooth="yes"/>
      <point x="287" y="368"/>
      <point x="293" y="373"/>
      <point x="317" y="373" type="curve" smooth="yes"/>
      <point x="335" y="373" type="line"/>
      <point x="391" y="373"/>
      <point x="415" y="397"/>
      <point x="415" y="446" type="curve" smooth="yes"/>
      <point x="415" y="513" type="line" smooth="yes"/>
      <point x="415" y="570"/>
      <point x="386" y="600"/>
      <point x="324" y="600" type="curve" smooth="yes"/>
      <point x="136" y="600" type="line" smooth="yes"/>
      <point x="72" y="600"/>
      <point x="45" y="569"/>
      <point x="45" y="512" type="curve" smooth="yes"/>
      <point x="45" y="0" type="line"/>
      <point x="135" y="0" type="line"/>
      <point x="135" y="495" type="line" smooth="yes"/>
      <point x="135" y="519"/>
      <point x="142" y="525"/>
      <point x="166" y="525" type="curve" smooth="yes"/>
      <point x="295" y="525" type="line" smooth="yes"/>
      <point x="319" y="525"/>
      <point x="324" y="519"/>
      <point x="324" y="495" type="curve" smooth="yes"/>
      <point x="324" y="464" type="line" smooth="yes"/>
      <point x="324" y="443"/>
      <point x="318" y="440"/>
      <point x="288" y="440" type="curve" smooth="yes"/>
      <point x="231" y="440"/>
      <point x="200" y="413"/>
      <point x="200" y="354" type="curve"/>
      <point x="200" y="298" type="line" smooth="yes"/>
      <point x="200" y="240"/>
      <point x="227" y="209"/>
      <point x="291" y="209" type="curve" smooth="yes"/>
      <point x="329" y="209" type="line" smooth="yes"/>
      <point x="353" y="209"/>
      <point x="358" y="204"/>
      <point x="358" y="180" type="curve" smooth="yes"/>
      <point x="358" y="99" type="line" smooth="yes"/>
      <point x="358" y="75"/>
      <point x="353" y="70"/>
      <point x="329" y="70" type="curve" smooth="yes"/>
      <point x="318" y="70" type="line" smooth="yes"/>
      <point x="294" y="70"/>
      <point x="289" y="76"/>
      <point x="289" y="99" type="curve" smooth="yes"/>
      <point x="289" y="151" type="line"/>
    </contour>
  </outline>
</glyph>
<glyph name="ae" format="1">
  <advance width="557"/>
  <unicode hex="00E6"/>
  <outline>
    <contour>
      <point x="263" y="292" type="line"/>
      <point x="43" y="202" type="line"/>
      <point x="133" y="168" type="line"/>
      <point x="287" y="230" type="line"/>
    </contour>
    <contour>
      <point x="43" y="202" type="line"/>
      <point x="43" y="88" type="line" smooth="yes"/>
      <point x="43" y="31"/>
      <point x="71" y="0"/>
      <point x="133" y="0" type="curve" smooth="yes"/>
      <point x="203" y="0" type="line" smooth="yes"/>
      <point x="239" y="0"/>
      <point x="264" y="20"/>
      <point x="272" y="42" type="curve"/>
      <point x="281" y="20"/>
      <point x="306" y="0"/>
      <point x="343" y="0" type="curve" smooth="yes"/>
      <point x="420" y="0" type="line" smooth="yes"/>
      <point x="484" y="0"/>
      <point x="513" y="31"/>
      <point x="513" y="88" type="curve" smooth="yes"/>
      <point x="513" y="141" type="line"/>
      <point x="424" y="141" type="line"/>
      <point x="424" y="101" type="line" smooth="yes"/>
      <point x="424" y="77"/>
      <point x="418" y="72"/>
      <point x="394" y="72" type="curve" smooth="yes"/>
      <point x="349" y="72" type="line" smooth="yes"/>
      <point x="325" y="72"/>
      <point x="320" y="77"/>
      <point x="320" y="101" type="curve" smooth="yes"/>
      <point x="320" y="387" type="line" smooth="yes"/>
      <point x="320" y="411"/>
      <point x="325" y="416"/>
      <point x="349" y="416" type="curve" smooth="yes"/>
      <point x="397" y="416" type="line" smooth="yes"/>
      <point x="421" y="416"/>
      <point x="426" y="411"/>
      <point x="426" y="387" type="curve" smooth="yes"/>
      <point x="426" y="220" type="line"/>
      <point x="515" y="220" type="line"/>
      <point x="515" y="399" type="line" smooth="yes"/>
      <point x="515" y="457"/>
      <point x="486" y="488"/>
      <point x="422" y="488" type="curve" smooth="yes"/>
      <point x="344" y="488" type="line" smooth="yes"/>
      <point x="306" y="488"/>
      <point x="281" y="468"/>
      <point x="273" y="446" type="curve"/>
      <point x="265" y="468"/>
      <point x="239" y="488"/>
      <point x="204" y="488" type="curve" smooth="yes"/>
      <point x="133" y="488" type="line" smooth="yes"/>
      <point x="71" y="488"/>
      <point x="43" y="457"/>
      <point x="43" y="399" type="curve" smooth="yes"/>
      <point x="43" y="311" type="line"/>
      <point x="133" y="311" type="line"/>
      <point x="133" y="386" type="line" smooth="yes"/>
      <point x="133" y="410"/>
      <point x="139" y="415"/>
      <point x="163" y="415" type="curve" smooth="yes"/>
      <point x="198" y="415" type="line" smooth="yes"/>
      <point x="219" y="415"/>
      <point x="229" y="407"/>
      <point x="231" y="385" type="curve"/>
      <point x="231" y="103" type="line"/>
      <point x="229" y="80"/>
      <point x="219" y="73"/>
      <point x="198" y="73" type="curve" smooth="yes"/>
      <point x="163" y="73" type="line" smooth="yes"/>
      <point x="139" y="73"/>
      <point x="133" y="78"/>
      <point x="133" y="102" type="curve" smooth="yes"/>
      <point x="133" y="168" type="line"/>
    </contour>
    <contour>
      <point x="505" y="283" type="line"/>
      <point x="263" y="283" type="line"/>
      <point x="263" y="215" type="line"/>
      <point x="505" y="215" type="line"/>
    </contour>
  </outline>
</glyph>
<glyph name="igrave" format="1">
  <advance width="178"/>
  <unicode hex="00EC"/>
  <outline>
    <contour>
      <point x="134" y="0" type="line"/>
      <point x="134" y="488" type="line"/>
      <point x="44" y="488" type="line"/>
      <point x="44" y="0" type="line"/>
    </contour>
    <component base="grave" xOffset="-170"/>
  </outline>
</glyph>
<glyph name="icircumflex" format="1">
  <advance width="178"/>
  <unicode hex="00EE"/>
  <outline>
    <contour>
      <point x="134" y="0" type="line"/>
      <point x="134" y="488" type="line"/>
      <point x="44" y="488" type="line"/>
      <point x="44" y="0" type="line"/>
    </contour>
    <component base="circumflex" xOffset="-121"/>
  </outline>
</glyph>
<glyph name="idieresis" format="1">
  <advance width="178"/>
  <unicode hex="00EF"/>
  <outline>
    <contour>
      <point x="134" y="0" type="line"/>
      <point x="134" y="488" type="line"/>
      <point x="44" y="488" type="line"/>
      <point x="44" y="0" type="line"/>
    </contour>
    <component base="dieresis" xOffset="-122"/>
  </outline>
</glyph>
<glyph name="eth" format="1">
  <advance width="378"/>
  <unicode hex="00F0"/>
  <outline>
    <contour>
      <point x="128" y="102" type="curve"/>
      <point x="128" y="316" type="line" smooth="yes"/>
      <point x="128" y="340"/>
      <point x="134" y="345"/>
      <point x="158" y="345" type="curve" smooth="yes"/>
      <point x="269" y="345" type="line"/>
      <point x="269" y="416" type="line"/>
      <point x="131" y="416" type="line" smooth="yes"/>
      <point x="67" y="416"/>
      <point x="38" y="385"/>
      <point x="38" y="327" type="curve" smooth="yes"/>
      <point x="38" y="88" type="line" smooth="yes"/>
      <point x="38" y="31"/>
      <point x="67" y="0"/>
      <point x="131" y="0" type="curve" smooth="yes"/>
      <point x="189" y="0" type="line"/>
      <point x="189" y="73" type="line"/>
      <point x="158" y="73" type="line" smooth="yes"/>
      <point x="134" y="73"/>
      <point x="128" y="78"/>
    </contour>
    <contour>
      <point x="241" y="300" type="curve" smooth="yes"/>
      <point x="241" y="102" type="line" smooth="yes"/>
      <point x="241" y="78"/>
      <point x="235" y="73"/>
      <point x="211" y="73" type="curve" smooth="yes"/>
      <point x="180" y="73" type="line"/>
      <point x="180" y="0" type="line"/>
      <point x="237" y="0" type="line" smooth="yes"/>
      <point x="302" y="0"/>
      <point x="331" y="31"/>
      <point x="331" y="88" type="curve" smooth="yes"/>
      <point x="331" y="309" type="line" smooth="yes"/>
      <point x="331" y="456"/>
      <point x="258" y="565"/>
      <point x="195" y="626" type="curve"/>
      <point x="70" y="626" type="line"/>
      <point x="151" y="562"/>
      <point x="241" y="449"/>
    </contour>
    <contour>
      <point x="79" y="480" type="line"/>
      <point x="318" y="566" type="line"/>
      <point x="318" y="621" type="line"/>
      <point x="79" y="535" type="line"/>
    </contour>
  </outline>
</glyph>
<glyph name="divide" format="1">
  <advance width="412"/>
  <unicode hex="00F7"/>
  <outline>
    <contour>
      <point x="25" y="276" type="line"/>
      <point x="387" y="276" type="line"/>
      <point x="387" y="350" type="line"/>
      <point x="25" y="350" type="line"/>
    </contour>
    <contour>
      <point x="161" y="501" type="line"/>
      <point x="161" y="413" type="line"/>
      <point x="251" y="413" type="line"/>
      <point x="251" y="501" type="line"/>
    </contour>
    <contour>
      <point x="161" y="212" type="line"/>
      <point x="161" y="125" type="line"/>
      <point x="251" y="125" type="line"/>
      <point x="251" y="212" type="line"/>
    </contour>
  </outline>
</glyph>
<glyph name="oslash" format="1">
  <advance width="378"/>
  <unicode hex="00F8"/>
  <outline>
    <contour>
      <point x="335" y="399" type="line"/>
      <point x="335" y="457"/>
      <point x="307" y="488"/>
      <point x="242" y="488" type="curve" smooth="yes"/>
      <point x="135" y="488" type="line" smooth="yes"/>
      <point x="71" y="488"/>
      <point x="43" y="457"/>
      <point x="43" y="399" type="curve" smooth="yes"/>
      <point x="43" y="88" type="line" smooth="yes"/>
      <point x="43" y="31"/>
      <point x="71" y="0"/>
      <point x="135" y="0" type="curve" smooth="yes"/>
      <point x="242" y="0" type="line" smooth="yes"/>
      <point x="307" y="0"/>
      <point x="335" y="31"/>
      <point x="335" y="88" type="curve" smooth="yes"/>
    </contour>
    <contour>
      <point x="248" y="96" type="line"/>
      <point x="248" y="71"/>
      <point x="243" y="66"/>
      <point x="218" y="66" type="curve" smooth="yes"/>
      <point x="160" y="66" type="line" smooth="yes"/>
      <point x="135" y="66"/>
      <point x="129" y="71"/>
      <point x="129" y="96" type="curve" smooth="yes"/>
      <point x="129" y="392" type="line" smooth="yes"/>
      <point x="129" y="417"/>
      <point x="135" y="422"/>
      <point x="160" y="422" type="curve" smooth="yes"/>
      <point x="218" y="422" type="line"/>
      <point x="243" y="422"/>
      <point x="248" y="417"/>
      <point x="248" y="392" type="curve" smooth="yes"/>
    </contour>
    <contour>
      <point x="283" y="508" type="line"/>
      <point x="41" y="-20" type="line"/>
      <point x="94" y="-20" type="line"/>
      <point x="337" y="508" type="line"/>
    </contour>
  </outline>
</glyph>
<glyph name="thorn" format="1">
  <advance width="362"/>
  <unicode hex="00FE"/>
  <outline>
    <contour>
      <point x="321" y="227" type="line"/>
      <point x="321" y="399" type="line" smooth="yes"/>
      <point x="321" y="457"/>
      <point x="292" y="488"/>
      <point x="230" y="488" type="curve" smooth="yes"/>
      <point x="195" y="488" type="line" smooth="yes"/>
      <point x="154" y="488"/>
      <point x="128" y="468"/>
      <point x="128" y="420" type="curve" smooth="yes"/>
      <point x="128" y="348" type="line"/>
      <point x="133" y="348" type="line"/>
      <point x="133" y="380" type="line" smooth="yes"/>
      <point x="133" y="406"/>
      <point x="143" y="415"/>
      <point x="165" y="415" type="curve" smooth="yes"/>
      <point x="201" y="415" type="line" smooth="yes"/>
      <point x="225" y="415"/>
      <point x="230" y="410"/>
      <point x="230" y="386" type="curve" smooth="yes"/>
      <point x="230" y="227" type="line"/>
    </contour>
    <contour>
      <point x="133" y="-138" type="line"/>
      <point x="133" y="420" type="line"/>
      <point x="132" y="430" type="line"/>
      <point x="132" y="669" type="line"/>
      <point x="43" y="669" type="line"/>
      <point x="43" y="-138" type="line"/>
    </contour>
    <contour>
      <point x="230" y="261" type="line"/>
      <point x="230" y="102" type="line" smooth="yes"/>
      <point x="230" y="78"/>
      <point x="225" y="73"/>
      <point x="201" y="73" type="curve" smooth="yes"/>
      <point x="165" y="73" type="line" smooth="yes"/>
      <point x="143" y="73"/>
      <point x="133" y="82"/>
      <point x="133" y="108" type="curve" smooth="yes"/>
      <point x="133" y="131" type="line"/>
      <point x="128" y="131" type="line"/>
      <point x="128" y="68" type="line" smooth="yes"/>
      <point x="128" y="20"/>
      <point x="154" y="0"/>
      <point x="195" y="0" type="curve" smooth="yes"/>
      <point x="230" y="0" type="line" smooth="yes"/>
      <point x="292" y="0"/>
      <point x="321" y="31"/>
      <point x="321" y="88" type="curve" smooth="yes"/>
      <point x="321" y="261" type="line"/>
    </contour>
  </outline>
</glyph>
<glyph name="dcaron" format="1">
  <advance width="389"/>
  <unicode hex="010F"/>
  <outline>
    <contour>
      <point x="360" y="669" type="line"/>
      <point x="360" y="498" type="line"/>
      <point x="389" y="498" type="line"/>
      <point x="433" y="622" type="line"/>
      <point x="433" y="669" type="line"/>
    </contour>
    <component base="d"/>
  </outline>
</glyph>
<glyph name="Dcroat" format="1">
  <advance width="414"/>
  <unicode hex="0110"/>
  <outline>
    <contour>
      <point x="274" y="392" type="line"/>
      <point x="365" y="392" type="line"/>
      <point x="365" y="538" type="line" smooth="yes"/>
      <point x="365" y="595"/>
      <point x="336" y="626"/>
      <point x="272" y="626" type="curve" smooth="yes"/>
      <point x="97" y="626" type="line"/>
      <point x="97" y="553" type="line"/>
      <point x="244" y="553" type="line" smooth="yes"/>
      <point x="268" y="553"/>
      <point x="274" y="548"/>
      <point x="274" y="524" type="curve" smooth="yes"/>
    </contour>
    <contour>
      <point x="274" y="102" type="line"/>
      <point x="274" y="78"/>
      <point x="268" y="73"/>
      <point x="244" y="73" type="curve" smooth="yes"/>
      <point x="97" y="73" type="line"/>
      <point x="97" y="0" type="line"/>
      <point x="272" y="0" type="line" smooth="yes"/>
      <point x="336" y="0"/>
      <point x="365" y="31"/>
      <point x="365" y="88" type="curve" smooth="yes"/>
      <point x="365" y="415" type="line"/>
      <point x="274" y="415" type="line"/>
    </contour>
    <contour>
      <point x="54" y="626" type="line"/>
      <point x="54" y="0" type="line"/>
      <point x="145" y="0" type="line"/>
      <point x="145" y="626" type="line"/>
    </contour>
    <contour>
      <point x="220" y="351" type="line"/>
      <point x="3" y="351" type="line"/>
      <point x="3" y="280" type="line"/>
      <point x="220" y="280" type="line"/>
    </contour>
  </outline>
</glyph>
<glyph name="dcroat" format="1">
  <advance width="365"/>
  <unicode hex="0111"/>
  <outline>
    <contour>
      <point x="133" y="227" type="line"/>
      <point x="133" y="386" type="line" smooth="yes"/>
      <point x="133" y="410"/>
      <point x="139" y="415"/>
      <point x="163" y="415" type="curve" smooth="yes"/>
      <point x="198" y="415" type="line" smooth="yes"/>
      <point x="221" y="415"/>
      <point x="231" y="406"/>
      <point x="231" y="380" type="curve" smooth="yes"/>
      <point x="231" y="348" type="line"/>
      <point x="235" y="348" type="line"/>
      <point x="235" y="420" type="line" smooth="yes"/>
      <point x="235" y="468"/>
      <point x="210" y="488"/>
      <point x="169" y="488" type="curve" smooth="yes"/>
      <point x="133" y="488" type="line" smooth="yes"/>
      <point x="71" y="488"/>
      <point x="43" y="457"/>
      <point x="43" y="399" type="curve" smooth="yes"/>
      <point x="43" y="227" type="line"/>
    </contour>
    <contour>
      <point x="231" y="669" type="line"/>
      <point x="231" y="67" type="line"/>
      <point x="231" y="62" type="line"/>
      <point x="231" y="0" type="line"/>
      <point x="321" y="0" type="line"/>
      <point x="321" y="669" type="line"/>
    </contour>
    <contour>
      <point x="43" y="261" type="line"/>
      <point x="43" y="88" type="line" smooth="yes"/>
      <point x="43" y="31"/>
      <point x="71" y="0"/>
      <point x="133" y="0" type="curve" smooth="yes"/>
      <point x="169" y="0" type="line" smooth="yes"/>
      <point x="210" y="0"/>
      <point x="235" y="20"/>
      <point x="235" y="68" type="curve" smooth="yes"/>
      <point x="235" y="131" type="line"/>
      <point x="231" y="131" type="line"/>
      <point x="231" y="108" type="line" smooth="yes"/>
      <point x="231" y="82"/>
      <point x="221" y="73"/>
      <point x="198" y="73" type="curve" smooth="yes"/>
      <point x="163" y="73" type="line" smooth="yes"/>
      <point x="139" y="73"/>
      <point x="133" y="78"/>
      <point x="133" y="102" type="curve" smooth="yes"/>
      <point x="133" y="261" type="line"/>
    </contour>
    <contour>
      <point x="367" y="607" type="line"/>
      <point x="151" y="607" type="line"/>
      <point x="151" y="545" type="line"/>
      <point x="367" y="545" type="line"/>
    </contour>
  </outline>
</glyph>
<glyph name="Gcommaaccent" format="1">
  <advance width="382"/>
  <unicode hex="0122"/>
  <outline>
    <contour>
      <point x="138" y="526" type="line"/>
      <point x="138" y="550"/>
      <point x="144" y="555"/>
      <point x="168" y="555" type="curve" smooth="yes"/>
      <point x="202" y="555" type="line"/>
      <point x="202" y="626" type="line"/>
      <point x="140" y="626" type="line" smooth="yes"/>
      <point x="76" y="626"/>
      <point x="47" y="595"/>
      <point x="47" y="538" type="curve" smooth="yes"/>
      <point x="47" y="88" type="line" smooth="yes"/>
      <point x="47" y="30"/>
      <point x="76" y="-1"/>
      <point x="140" y="-1" type="curve"/>
      <point x="196" y="-1" type="line"/>
      <point x="196" y="70" type="line"/>
      <point x="168" y="70" type="line" smooth="yes"/>
      <point x="144" y="70"/>
      <point x="138" y="75"/>
      <point x="138" y="99" type="curve" smooth="yes"/>
    </contour>
    <contour>
      <point x="340" y="322" type="line"/>
      <point x="199" y="322" type="line"/>
      <point x="199" y="252" type="line"/>
      <point x="340" y="252" type="line"/>
    </contour>
    <contour>
      <point x="249" y="443" type="line"/>
      <point x="340" y="443" type="line"/>
      <point x="340" y="538" type="line" smooth="yes"/>
      <point x="340" y="595"/>
      <point x="311" y="626"/>
      <point x="247" y="626" type="curve" smooth="yes"/>
      <point x="186" y="626" type="line"/>
      <point x="186" y="555" type="line"/>
      <point x="219" y="555" type="line" smooth="yes"/>
      <point x="243" y="555"/>
      <point x="249" y="550"/>
      <point x="249" y="526" type="curve" smooth="yes"/>
    </contour>
    <contour>
      <point x="249" y="99" type="line"/>
      <point x="249" y="75"/>
      <point x="243" y="70"/>
      <point x="219" y="70" type="curve" smooth="yes"/>
      <point x="187" y="70" type="line"/>
      <point x="187" y="-1" type="line"/>
      <point x="247" y="-1" type="line" smooth="yes"/>
      <point x="311" y="-1"/>
      <point x="340" y="30"/>
      <point x="340" y="88" type="curve" smooth="yes"/>
      <point x="340" y="274" type="line"/>
      <point x="249" y="274" type="line"/>
    </contour>
    <contour>
      <point x="148" y="-50" type="line"/>
      <point x="148" y="-229" type="line"/>
      <point x="181" y="-229" type="line"/>
      <point x="247" y="-99" type="line"/>
      <point x="247" y="-50" type="line"/>
    </contour>
  </outline>
</glyph>
<glyph name="gcommaaccent" format="1">
  <advance width="360"/>
  <unicode hex="0123"/>
  <outline>
    <contour>
      <point x="236" y="519" type="line"/>
      <point x="236" y="699" type="line"/>
      <point x="204" y="699" type="line"/>
      <point x="138" y="568" type="line"/>
      <point x="138" y="519" type="line"/>
    </contour>
    <component base="g"/>
  </outline>
</glyph>
<glyph name="imacron" format="1">
  <advance width="178"/>
  <unicode hex="012B"/>
  <outline>
    <contour>
      <point x="134" y="0" type="line"/>
      <point x="134" y="488" type="line"/>
      <point x="44" y="488" type="line"/>
      <point x="44" y="0" type="line"/>
    </contour>
    <component base="macron" xOffset="-121"/>
  </outline>
</glyph>
<glyph name="dotlessi" format="1">
  <advance width="178"/>
  <unicode hex="0131"/>
  <outline>
    <contour>
      <point x="134" y="0" type="line"/>
      <point x="134" y="488" type="line"/>
      <point x="44" y="488" type="line"/>
      <point x="44" y="0" type="line"/>
    </contour>
  </outline>
</glyph>
<glyph name="kcommaaccent" format="1">
  <advance width="357"/>
  <unicode hex="0137"/>
  <outline>
    <contour>
      <point x="134" y="0" type="line"/>
      <point x="134" y="669" type="line"/>
      <point x="44" y="669" type="line"/>
      <point x="44" y="0" type="line"/>
    </contour>
    <contour>
      <point x="150" y="255" type="line"/>
      <point x="258" y="0" type="line"/>
      <point x="354" y="0" type="line"/>
      <point x="242" y="255" type="line"/>
    </contour>
    <contour>
      <point x="242" y="255" type="line"/>
      <point x="354" y="488" type="line"/>
      <point x="258" y="488" type="line"/>
      <point x="150" y="255" type="line"/>
    </contour>
    <contour>
      <point x="137" y="-50" type="line"/>
      <point x="137" y="-229" type="line"/>
      <point x="169" y="-229" type="line"/>
      <point x="235" y="-99" type="line"/>
      <point x="235" y="-50" type="line"/>
    </contour>
  </outline>
</glyph>
<glyph name="Lcommaaccent" format="1">
  <advance width="301"/>
  <unicode hex="013B"/>
  <outline>
    <contour>
      <point x="52" y="626" type="line"/>
      <point x="52" y="0" type="line"/>
      <point x="142" y="0" type="line"/>
      <point x="142" y="626" type="line"/>
    </contour>
    <contour>
      <point x="96" y="0" type="line"/>
      <point x="297" y="0" type="line"/>
      <point x="297" y="73" type="line"/>
      <point x="96" y="73" type="line"/>
    </contour>
    <contour>
      <point x="124" y="-50" type="line"/>
      <point x="124" y="-229" type="line"/>
      <point x="156" y="-229" type="line"/>
      <point x="222" y="-99" type="line"/>
      <point x="222" y="-50" type="line"/>
    </contour>
  </outline>
</glyph>
<glyph name="lcommaaccent" format="1">
  <advance width="178"/>
  <unicode hex="013C"/>
  <outline>
    <contour>
      <point x="134" y="0" type="line"/>
      <point x="134" y="669" type="line"/>
      <point x="44" y="669" type="line"/>
      <point x="44" y="0" type="line"/>
    </contour>
    <contour>
      <point x="40" y="-50" type="line"/>
      <point x="40" y="-229" type="line"/>
      <point x="72" y="-229" type="line"/>
      <point x="138" y="-99" type="line"/>
      <point x="138" y="-50" type="line"/>
    </contour>
  </outline>
</glyph>
<glyph name="lcaron" format="1">
  <advance width="210"/>
  <unicode hex="013E"/>
  <outline>
    <contour>
      <point x="178" y="669" type="line"/>
      <point x="178" y="498" type="line"/>
      <point x="208" y="498" type="line"/>
      <point x="251" y="622" type="line"/>
      <point x="251" y="669" type="line"/>
    </contour>
    <component base="l"/>
  </outline>
</glyph>
<glyph name="Lslash" format="1">
  <advance width="309"/>
  <unicode hex="0141"/>
  <outline>
    <contour>
      <point x="244" y="412" type="line"/>
      <point x="-22" y="288" type="line"/>
      <point x="-22" y="217" type="line"/>
      <point x="244" y="342" type="line"/>
    </contour>
    <component base="L" xOffset="2"/>
  </outline>
</glyph>
<glyph name="lslash" format="1">
  <advance width="188"/>
  <unicode hex="0142"/>
  <outline>
    <contour>
      <point x="233" y="460" type="line"/>
      <point x="-34" y="336" type="line"/>
      <point x="-34" y="265" type="line"/>
      <point x="233" y="390" type="line"/>
    </contour>
    <component base="l" xOffset="5"/>
  </outline>
</glyph>
<glyph name="Ncommaaccent" format="1">
  <advance width="410"/>
  <unicode hex="0145"/>
  <outline>
    <contour>
      <point x="275" y="626" type="line"/>
      <point x="275" y="187" type="line"/>
      <point x="147" y="626" type="line"/>
      <point x="52" y="626" type="line"/>
      <point x="52" y="0" type="line"/>
      <point x="135" y="0" type="line"/>
      <point x="135" y="452" type="line"/>
      <point x="267" y="0" type="line"/>
      <point x="358" y="0" type="line"/>
      <point x="358" y="626" type="line"/>
    </contour>
    <contour>
      <point x="147" y="-50" type="line"/>
      <point x="147" y="-229" type="line"/>
      <point x="179" y="-229" type="line"/>
      <point x="245" y="-99" type="line"/>
      <point x="245" y="-50" type="line"/>
    </contour>
  </outline>
</glyph>
<glyph name="OE" format="1">
  <advance width="564"/>
  <unicode hex="0152"/>
  <outline>
    <contour>
      <point x="261" y="190" type="line"/>
      <point x="309" y="190" type="line"/>
      <point x="309" y="527" type="line" smooth="yes"/>
      <point x="309" y="587"/>
      <point x="287" y="626"/>
      <point x="223" y="626" type="curve" smooth="yes"/>
      <point x="197" y="626" type="line"/>
      <point x="197" y="555" type="line"/>
      <point x="231" y="555" type="line" smooth="yes"/>
      <point x="255" y="555"/>
      <point x="261" y="550"/>
      <point x="261" y="526" type="curve" smooth="yes"/>
    </contour>
    <contour>
      <point x="261" y="100" type="line"/>
      <point x="261" y="76"/>
      <point x="255" y="71"/>
      <point x="231" y="71" type="curve" smooth="yes"/>
      <point x="192" y="71" type="line"/>
      <point x="192" y="0" type="line"/>
      <point x="224" y="0" type="line" smooth="yes"/>
      <point x="288" y="0"/>
      <point x="309" y="39"/>
      <point x="309" y="99" type="curve" smooth="yes"/>
      <point x="309" y="232" type="line"/>
      <point x="261" y="232" type="line"/>
    </contour>
    <contour>
      <point x="144" y="526" type="line"/>
      <point x="144" y="550"/>
      <point x="149" y="555"/>
      <point x="173" y="555" type="curve" smooth="yes"/>
      <point x="203" y="555" type="line"/>
      <point x="203" y="626" type="line"/>
      <point x="146" y="626" type="line" smooth="yes"/>
      <point x="82" y="626"/>
      <point x="53" y="595"/>
      <point x="53" y="538" type="curve" smooth="yes"/>
      <point x="53" y="189" type="line"/>
      <point x="144" y="189" type="line"/>
    </contour>
    <contour>
      <point x="144" y="238" type="line"/>
      <point x="53" y="238" type="line"/>
      <point x="53" y="88" type="line" smooth="yes"/>
      <point x="53" y="31"/>
      <point x="82" y="0"/>
      <point x="146" y="0" type="curve" smooth="yes"/>
      <point x="201" y="0" type="line"/>
      <point x="201" y="71" type="line"/>
      <point x="173" y="71" type="line" smooth="yes"/>
      <point x="149" y="71"/>
      <point x="144" y="76"/>
      <point x="144" y="100" type="curve" smooth="yes"/>
    </contour>
    <contour>
      <point x="283" y="626" type="line"/>
      <point x="283" y="0" type="line"/>
      <point x="356" y="0" type="line"/>
      <point x="356" y="626" type="line"/>
    </contour>
    <contour>
      <point x="500" y="359" type="line"/>
      <point x="315" y="359" type="line"/>
      <point x="315" y="288" type="line"/>
      <point x="500" y="288" type="line"/>
    </contour>
    <contour>
      <point x="530" y="626" type="line"/>
      <point x="312" y="626" type="line"/>
      <point x="312" y="555" type="line"/>
      <point x="530" y="555" type="line"/>
    </contour>
    <contour>
      <point x="537" y="71" type="line"/>
      <point x="312" y="71" type="line"/>
      <point x="312" y="0" type="line"/>
      <point x="537" y="0" type="line"/>
    </contour>
  </outline>
</glyph>
<glyph name="oe" format="1">
  <advance width="584"/>
  <unicode hex="0153"/>
  <outline>
    <contour>
      <point x="133" y="0" type="curve" smooth="yes"/>
      <point x="203" y="0" type="line" smooth="yes"/>
      <point x="239" y="0"/>
      <point x="264" y="20"/>
      <point x="272" y="42" type="curve"/>
      <point x="281" y="20"/>
      <point x="306" y="0"/>
      <point x="343" y="0" type="curve" smooth="yes"/>
      <point x="420" y="0" type="line" smooth="yes"/>
      <point x="484" y="0"/>
      <point x="513" y="31"/>
      <point x="513" y="88" type="curve" smooth="yes"/>
      <point x="513" y="141" type="line"/>
      <point x="424" y="141" type="line"/>
      <point x="424" y="101" type="line" smooth="yes"/>
      <point x="424" y="77"/>
      <point x="418" y="72"/>
      <point x="394" y="72" type="curve" smooth="yes"/>
      <point x="349" y="72" type="line" smooth="yes"/>
      <point x="325" y="72"/>
      <point x="320" y="77"/>
      <point x="320" y="101" type="curve" smooth="yes"/>
      <point x="320" y="387" type="line" smooth="yes"/>
      <point x="320" y="411"/>
      <point x="325" y="416"/>
      <point x="349" y="416" type="curve" smooth="yes"/>
      <point x="397" y="416" type="line" smooth="yes"/>
      <point x="421" y="416"/>
      <point x="426" y="411"/>
      <point x="426" y="387" type="curve" smooth="yes"/>
      <point x="426" y="220" type="line"/>
      <point x="515" y="220" type="line"/>
      <point x="515" y="399" type="line" smooth="yes"/>
      <point x="515" y="457"/>
      <point x="486" y="488"/>
      <point x="422" y="488" type="curve" smooth="yes"/>
      <point x="344" y="488" type="line" smooth="yes"/>
      <point x="306" y="488"/>
      <point x="281" y="468"/>
      <point x="273" y="446" type="curve"/>
      <point x="265" y="468"/>
      <point x="239" y="488"/>
      <point x="204" y="488" type="curve" smooth="yes"/>
      <point x="133" y="488" type="line" smooth="yes"/>
      <point x="71" y="488"/>
      <point x="43" y="457"/>
      <point x="43" y="399" type="curve" smooth="yes"/>
      <point x="43" y="88" type="line" smooth="yes"/>
      <point x="43" y="31"/>
      <point x="71" y="0"/>
    </contour>
    <contour>
      <point x="133" y="386" type="line"/>
      <point x="133" y="410"/>
      <point x="139" y="415"/>
      <point x="163" y="415" type="curve" smooth="yes"/>
      <point x="198" y="415" type="line" smooth="yes"/>
      <point x="219" y="415"/>
      <point x="229" y="407"/>
      <point x="231" y="385" type="curve"/>
      <point x="231" y="103" type="line"/>
      <point x="229" y="80"/>
      <point x="219" y="73"/>
      <point x="198" y="73" type="curve" smooth="yes"/>
      <point x="163" y="73" type="line" smooth="yes"/>
      <point x="139" y="73"/>
      <point x="133" y="78"/>
      <point x="133" y="102" type="curve" smooth="yes"/>
    </contour>
    <contour>
      <point x="515" y="283" type="line"/>
      <point x="263" y="283" type="line"/>
      <point x="263" y="215" type="line"/>
      <point x="515" y="215" type="line"/>
    </contour>
  </outline>
</glyph>
<glyph name="rcommaaccent" format="1">
  <advance width="238"/>
  <unicode hex="0157"/>
  <outline>
    <contour>
      <point x="233" y="489" type="line"/>
      <point x="213" y="489" type="line" smooth="yes"/>
      <point x="158" y="489"/>
      <point x="130" y="442"/>
      <point x="130" y="401" type="curve"/>
      <point x="130" y="316" type="line"/>
      <point x="134" y="316" type="line"/>
      <point x="134" y="337" type="line"/>
      <point x="134" y="387"/>
      <point x="154" y="411"/>
      <point x="197" y="411" type="curve" smooth="yes"/>
      <point x="233" y="411" type="line"/>
    </contour>
    <contour>
      <point x="134" y="0" type="line"/>
      <point x="134" y="397" type="line"/>
      <point x="134" y="397" type="line"/>
      <point x="134" y="488" type="line"/>
      <point x="44" y="488" type="line"/>
      <point x="44" y="0" type="line"/>
    </contour>
    <contour>
      <point x="42" y="-50" type="line"/>
      <point x="42" y="-229" type="line"/>
      <point x="74" y="-229" type="line"/>
      <point x="140" y="-99" type="line"/>
      <point x="140" y="-50" type="line"/>
    </contour>
  </outline>
</glyph>
<glyph name="Scedilla" format="1">
  <advance width="361"/>
  <unicode hex="015E"/>
  <outline>
    <contour>
      <point x="232" y="102" type="line"/>
      <point x="232" y="78"/>
      <point x="227" y="73"/>
      <point x="203" y="73" type="curve"/>
      <point x="161" y="73" type="line" smooth="yes"/>
      <point x="137" y="73"/>
      <point x="131" y="78"/>
      <point x="131" y="102" type="curve" smooth="yes"/>
      <point x="131" y="180" type="line"/>
      <point x="40" y="180" type="line"/>
      <point x="40" y="88" type="line" smooth="yes"/>
      <point x="40" y="31"/>
      <point x="69" y="0"/>
      <point x="133" y="0" type="curve" smooth="yes"/>
      <point x="230" y="0" type="line" smooth="yes"/>
      <point x="295" y="0"/>
      <point x="324" y="31"/>
      <point x="324" y="88" type="curve" smooth="yes"/>
      <point x="324" y="268" type="line" smooth="yes"/>
      <point x="324" y="325"/>
      <point x="296" y="356"/>
      <point x="232" y="356" type="curve" smooth="yes"/>
      <point x="159" y="356" type="line" smooth="yes"/>
      <point x="135" y="356"/>
      <point x="129" y="361"/>
      <point x="129" y="385" type="curve" smooth="yes"/>
      <point x="129" y="524" type="line" smooth="yes"/>
      <point x="129" y="548"/>
      <point x="135" y="553"/>
      <point x="159" y="553" type="curve" smooth="yes"/>
      <point x="201" y="553" type="line" smooth="yes"/>
      <point x="225" y="553"/>
      <point x="231" y="548"/>
      <point x="231" y="524" type="curve" smooth="yes"/>
      <point x="231" y="446" type="line"/>
      <point x="322" y="446" type="line"/>
      <point x="322" y="538" type="line" smooth="yes"/>
      <point x="322" y="595"/>
      <point x="294" y="626"/>
      <point x="229" y="626" type="curve" smooth="yes"/>
      <point x="131" y="626" type="line" smooth="yes"/>
      <point x="67" y="626"/>
      <point x="38" y="595"/>
      <point x="38" y="538" type="curve" smooth="yes"/>
      <point x="38" y="373" type="line" smooth="yes"/>
      <point x="38" y="316"/>
      <point x="65" y="284"/>
      <point x="129" y="284" type="curve" smooth="yes"/>
      <point x="203" y="284" type="line" smooth="yes"/>
      <point x="227" y="284"/>
      <point x="232" y="279"/>
      <point x="232" y="255" type="curve" smooth="yes"/>
    </contour>
    <contour>
      <point x="133" y="-50" type="line"/>
      <point x="133" y="-229" type="line"/>
      <point x="165" y="-229" type="line"/>
      <point x="231" y="-99" type="line"/>
      <point x="231" y="-50" type="line"/>
    </contour>
  </outline>
</glyph>
<glyph name="Tcedilla" format="1">
  <advance width="310"/>
  <unicode hex="0162"/>
  <outline>
    <contour>
      <point x="110" y="614" type="line"/>
      <point x="110" y="0" type="line"/>
      <point x="200" y="0" type="line"/>
      <point x="200" y="614" type="line"/>
    </contour>
    <contour>
      <point x="305" y="626" type="line"/>
      <point x="5" y="626" type="line"/>
      <point x="5" y="553" type="line"/>
      <point x="305" y="553" type="line"/>
    </contour>
    <contour>
      <point x="105" y="-50" type="line"/>
      <point x="105" y="-229" type="line"/>
      <point x="137" y="-229" type="line"/>
      <point x="203" y="-99" type="line"/>
      <point x="203" y="-50" type="line"/>
    </contour>
  </outline>
</glyph>
<glyph name="tcedilla" format="1">
  <advance width="310"/>
  <unicode hex="0163"/>
  <outline>
    <contour>
      <point x="110" y="614" type="line"/>
      <point x="110" y="0" type="line"/>
      <point x="200" y="0" type="line"/>
      <point x="200" y="614" type="line"/>
    </contour>
    <contour>
      <point x="305" y="626" type="line"/>
      <point x="5" y="626" type="line"/>
      <point x="5" y="553" type="line"/>
      <point x="305" y="553" type="line"/>
    </contour>
    <contour>
      <point x="107" y="-50" type="line"/>
      <point x="107" y="-229" type="line"/>
      <point x="139" y="-229" type="line"/>
      <point x="205" y="-99" type="line"/>
      <point x="205" y="-50" type="line"/>
    </contour>
  </outline>
</glyph>
<glyph name="tcaron" format="1">
  <advance width="219"/>
  <unicode hex="0165"/>
  <outline>
    <contour>
      <point x="184" y="669" type="line"/>
      <point x="184" y="518" type="line"/>
      <point x="213" y="518" type="line"/>
      <point x="269" y="622" type="line"/>
      <point x="269" y="669" type="line"/>
    </contour>
    <component base="t"/>
  </outline>
</glyph>
<glyph name="florin" format="1">
  <advance width="353"/>
  <unicode hex="0192"/>
  <outline>
    <contour>
      <point x="230" y="563" type="line"/>
      <point x="233" y="587"/>
      <point x="236" y="592"/>
      <point x="260" y="592" type="curve" smooth="yes"/>
      <point x="307" y="592" type="line"/>
      <point x="307" y="669" type="line"/>
      <point x="233" y="669" type="line" smooth="yes"/>
      <point x="169" y="669"/>
      <point x="147" y="638"/>
      <point x="140" y="581" type="curve" smooth="yes"/>
      <point x="60" y="-36" type="line" smooth="yes"/>
      <point x="57" y="-60"/>
      <point x="54" y="-65"/>
      <point x="30" y="-65" type="curve" smooth="yes"/>
      <point x="-17" y="-65" type="line"/>
      <point x="-17" y="-142" type="line"/>
      <point x="57" y="-142" type="line" smooth="yes"/>
      <point x="121" y="-142"/>
      <point x="142" y="-111"/>
      <point x="150" y="-54" type="curve" smooth="yes"/>
    </contour>
    <contour>
      <point x="307" y="488" type="line"/>
      <point x="53" y="488" type="line"/>
      <point x="53" y="415" type="line"/>
      <point x="307" y="415" type="line"/>
    </contour>
  </outline>
</glyph>
<glyph name="scommaaccent" format="1">
  <advance width="328"/>
  <unicode hex="0219"/>
  <outline>
    <contour>
      <point x="207" y="98" type="line"/>
      <point x="207" y="74"/>
      <point x="201" y="69"/>
      <point x="177" y="69" type="curve"/>
      <point x="153" y="69" type="line" smooth="yes"/>
      <point x="129" y="69"/>
      <point x="123" y="74"/>
      <point x="123" y="98" type="curve" smooth="yes"/>
      <point x="123" y="136" type="line"/>
      <point x="35" y="136" type="line"/>
      <point x="35" y="88" type="line" smooth="yes"/>
      <point x="35" y="31"/>
      <point x="64" y="0"/>
      <point x="128" y="0" type="curve" smooth="yes"/>
      <point x="202" y="0" type="line" smooth="yes"/>
      <point x="266" y="0"/>
      <point x="295" y="31"/>
      <point x="295" y="88" type="curve" smooth="yes"/>
      <point x="295" y="188" type="line" smooth="yes"/>
      <point x="295" y="246"/>
      <point x="267" y="277"/>
      <point x="203" y="277" type="curve" smooth="yes"/>
      <point x="151" y="277" type="line" smooth="yes"/>
      <point x="127" y="277"/>
      <point x="121" y="282"/>
      <point x="121" y="306" type="curve" smooth="yes"/>
      <point x="121" y="390" type="line" smooth="yes"/>
      <point x="121" y="414"/>
      <point x="127" y="419"/>
      <point x="151" y="419" type="curve" smooth="yes"/>
      <point x="175" y="419" type="line" smooth="yes"/>
      <point x="199" y="419"/>
      <point x="205" y="414"/>
      <point x="205" y="390" type="curve" smooth="yes"/>
      <point x="205" y="352" type="line"/>
      <point x="293" y="352" type="line"/>
      <point x="293" y="399" type="line" smooth="yes"/>
      <point x="293" y="457"/>
      <point x="264" y="488"/>
      <point x="199" y="488" type="curve" smooth="yes"/>
      <point x="126" y="488" type="line" smooth="yes"/>
      <point x="62" y="488"/>
      <point x="33" y="457"/>
      <point x="33" y="399" type="curve" smooth="yes"/>
      <point x="33" y="296" type="line" smooth="yes"/>
      <point x="33" y="239"/>
      <point x="61" y="208"/>
      <point x="126" y="208" type="curve" smooth="yes"/>
      <point x="177" y="208" type="line" smooth="yes"/>
      <point x="201" y="208"/>
      <point x="207" y="203"/>
      <point x="207" y="179" type="curve" smooth="yes"/>
    </contour>
    <contour>
      <point x="126" y="-50" type="line"/>
      <point x="126" y="-229" type="line"/>
      <point x="158" y="-229" type="line"/>
      <point x="224" y="-99" type="line"/>
      <point x="224" y="-50" type="line"/>
    </contour>
  </outline>
</glyph>
<glyph name="Tcommaaccent" format="1">
  <advance width="310"/>
  <unicode hex="021A"/>
  <outline>
    <contour>
      <point x="110" y="614" type="line"/>
      <point x="110" y="0" type="line"/>
      <point x="200" y="0" type="line"/>
      <point x="200" y="614" type="line"/>
    </contour>
    <contour>
      <point x="305" y="626" type="line"/>
      <point x="5" y="626" type="line"/>
      <point x="5" y="553" type="line"/>
      <point x="305" y="553" type="line"/>
    </contour>
    <contour>
      <point x="107" y="-50" type="line"/>
      <point x="107" y="-229" type="line"/>
      <point x="140" y="-229" type="line"/>
      <point x="206" y="-99" type="line"/>
      <point x="206" y="-50" type="line"/>
    </contour>
  </outline>
</glyph>
<glyph name="circumflex" format="1">
  <advance width="421"/>
  <unicode hex="02C6"/>
  <outline>
    <contour>
      <point x="64" y="519" type="line"/>
      <point x="158" y="519" type="line"/>
      <point x="210" y="600" type="line"/>
      <point x="263" y="519" type="line"/>
      <point x="356" y="519" type="line"/>
      <point x="261" y="651" type="line"/>
      <point x="160" y="651" type="line"/>
    </contour>
  </outline>
</glyph>
<glyph name="caron" format="1">
  <advance width="421"/>
  <unicode hex="02C7"/>
  <outline>
    <contour>
      <point x="160" y="519" type="line"/>
      <point x="261" y="519" type="line"/>
      <point x="356" y="651" type="line"/>
      <point x="263" y="651" type="line"/>
      <point x="210" y="570" type="line"/>
      <point x="158" y="651" type="line"/>
      <point x="64" y="651" type="line"/>
    </contour>
  </outline>
</glyph>
<glyph name="macronmod" format="1">
  <advance width="421"/>
  <unicode hex="02C9"/>
  <outline>
    <contour>
      <point x="76" y="551" type="line"/>
      <point x="344" y="551" type="line"/>
      <point x="344" y="619" type="line"/>
      <point x="76" y="619" type="line"/>
    </contour>
  </outline>
</glyph>
<glyph name="breve" format="1">
  <advance width="421"/>
  <unicode hex="02D8"/>
  <outline>
    <contour>
      <point x="271" y="651" type="line"/>
      <point x="271" y="613" type="line" smooth="yes"/>
      <point x="271" y="589"/>
      <point x="265" y="584"/>
      <point x="241" y="584" type="curve" smooth="yes"/>
      <point x="204" y="584" type="line"/>
      <point x="204" y="519" type="line"/>
      <point x="261" y="519" type="line" smooth="yes"/>
      <point x="326" y="519"/>
      <point x="355" y="550"/>
      <point x="355" y="608" type="curve" smooth="yes"/>
      <point x="355" y="651" type="line"/>
    </contour>
    <contour>
      <point x="66" y="651" type="line"/>
      <point x="66" y="608" type="line" smooth="yes"/>
      <point x="66" y="550"/>
      <point x="95" y="519"/>
      <point x="160" y="519" type="curve" smooth="yes"/>
      <point x="217" y="519" type="line"/>
      <point x="217" y="584" type="line"/>
      <point x="180" y="584" type="line" smooth="yes"/>
      <point x="156" y="584"/>
      <point x="150" y="589"/>
      <point x="150" y="613" type="curve" smooth="yes"/>
      <point x="150" y="651" type="line"/>
    </contour>
  </outline>
</glyph>
<glyph name="dotaccent" format="1">
  <advance width="421"/>
  <unicode hex="02D9"/>
  <outline>
    <contour>
      <point x="157" y="537" type="line"/>
      <point x="264" y="537" type="line"/>
      <point x="264" y="633" type="line"/>
      <point x="157" y="633" type="line"/>
    </contour>
  </outline>
</glyph>
<glyph name="ring" format="1">
  <advance width="421"/>
  <unicode hex="02DA"/>
  <outline>
    <contour>
      <point x="316" y="594" type="line"/>
      <point x="316" y="641"/>
      <point x="294" y="664"/>
      <point x="243" y="664" type="curve" smooth="yes"/>
      <point x="178" y="664" type="line" smooth="yes"/>
      <point x="127" y="664"/>
      <point x="105" y="641"/>
      <point x="105" y="594" type="curve" smooth="yes"/>
      <point x="105" y="577" type="line" smooth="yes"/>
      <point x="105" y="530"/>
      <point x="127" y="507"/>
      <point x="178" y="507" type="curve" smooth="yes"/>
      <point x="243" y="507" type="line" smooth="yes"/>
      <point x="294" y="507"/>
      <point x="316" y="530"/>
      <point x="316" y="577" type="curve"/>
    </contour>
    <contour>
      <point x="253" y="582" type="line"/>
      <point x="253" y="562"/>
      <point x="250" y="557"/>
      <point x="227" y="557" type="curve" smooth="yes"/>
      <point x="194" y="557" type="line" smooth="yes"/>
      <point x="171" y="557"/>
      <point x="168" y="562"/>
      <point x="168" y="582" type="curve" smooth="yes"/>
      <point x="168" y="589" type="line" smooth="yes"/>
      <point x="168" y="609"/>
      <point x="171" y="614"/>
      <point x="194" y="614" type="curve" smooth="yes"/>
      <point x="227" y="614" type="line" smooth="yes"/>
      <point x="250" y="614"/>
      <point x="253" y="609"/>
      <point x="253" y="589" type="curve"/>
    </contour>
  </outline>
</glyph>
<glyph name="ogonek" format="1">
  <advance width="421"/>
  <unicode hex="02DB"/>
  <outline>
    <contour>
      <point x="120" y="-108" type="curve" smooth="yes"/>
      <point x="120" y="-141" type="line" smooth="yes"/>
      <point x="120" y="-196"/>
      <point x="146" y="-225"/>
      <point x="206" y="-225" type="curve" smooth="yes"/>
      <point x="303" y="-225" type="line"/>
      <point x="303" y="-162" type="line"/>
      <point x="222" y="-162" type="line" smooth="yes"/>
      <point x="199" y="-162"/>
      <point x="193" y="-158"/>
      <point x="193" y="-135" type="curve" smooth="yes"/>
      <point x="193" y="-113" type="line"/>
      <point x="193" y="-90"/>
      <point x="199" y="-86"/>
      <point x="222" y="-86" type="curve" smooth="yes"/>
      <point x="285" y="-86" type="line"/>
      <point x="285" y="-23" type="line"/>
      <point x="206" y="-23" type="line" smooth="yes"/>
      <point x="146" y="-23"/>
      <point x="120" y="-52"/>
    </contour>
    <contour>
      <point x="285" y="-27" type="line"/>
      <point x="285" y="11" type="line"/>
      <point x="214" y="11" type="line"/>
      <point x="214" y="-27" type="line"/>
    </contour>
  </outline>
</glyph>
<glyph name="tilde" format="1">
  <advance width="421"/>
  <unicode hex="02DC"/>
  <outline>
    <contour>
      <point x="266" y="534" type="curve" smooth="yes"/>
      <point x="273" y="534" type="line" smooth="yes"/>
      <point x="333" y="534"/>
      <point x="350" y="564"/>
      <point x="350" y="613" type="curve" smooth="yes"/>
      <point x="350" y="636" type="line"/>
      <point x="273" y="636" type="line"/>
      <point x="273" y="622" type="line" smooth="yes"/>
      <point x="273" y="602"/>
      <point x="268" y="598"/>
      <point x="254" y="598" type="curve" smooth="yes"/>
      <point x="231" y="598"/>
      <point x="202" y="636"/>
      <point x="157" y="636" type="curve" smooth="yes"/>
      <point x="148" y="636" type="line" smooth="yes"/>
      <point x="89" y="636"/>
      <point x="70" y="606"/>
      <point x="70" y="556" type="curve" smooth="yes"/>
      <point x="70" y="534" type="line"/>
      <point x="148" y="534" type="line"/>
      <point x="148" y="549" type="line" smooth="yes"/>
      <point x="148" y="564"/>
      <point x="153" y="572"/>
      <point x="165" y="572" type="curve" smooth="yes"/>
      <point x="189" y="572"/>
      <point x="219" y="534"/>
    </contour>
  </outline>
</glyph>
<glyph name="hungarumlaut" format="1">
  <advance width="421"/>
  <unicode hex="02DD"/>
  <outline>
    <contour>
      <point x="184" y="519" type="line"/>
      <point x="250" y="519" type="line"/>
      <point x="356" y="651" type="line"/>
      <point x="266" y="651" type="line"/>
    </contour>
    <contour>
      <point x="65" y="519" type="line"/>
      <point x="131" y="519" type="line"/>
      <point x="237" y="651" type="line"/>
      <point x="147" y="651" type="line"/>
    </contour>
  </outline>
</glyph>
<glyph name="danda" format="1">
  <advance width="342"/>
  <unicode hex="0964"/>
  <outline>
    <contour>
      <point x="214" y="657" type="line"/>
      <point x="128" y="657" type="line"/>
      <point x="128" y="-31" type="line"/>
      <point x="214" y="-31" type="line"/>
    </contour>
  </outline>
</glyph>
<glyph name="quoteleft" format="1">
  <advance width="166"/>
  <unicode hex="2018"/>
  <outline>
    <contour>
      <point x="133" y="364" type="line"/>
      <point x="133" y="626" type="line"/>
      <point x="102" y="626" type="line"/>
      <point x="32" y="428" type="line"/>
      <point x="32" y="364" type="line"/>
    </contour>
  </outline>
</glyph>
<glyph name="quoteright" format="1">
  <advance width="166"/>
  <unicode hex="2019"/>
  <outline>
    <contour>
      <point x="32" y="626" type="line"/>
      <point x="32" y="364" type="line"/>
      <point x="63" y="364" type="line"/>
      <point x="133" y="561" type="line"/>
      <point x="133" y="626" type="line"/>
    </contour>
  </outline>
</glyph>
<glyph name="quotesinglbase" format="1">
  <advance width="165"/>
  <unicode hex="201A"/>
  <outline>
    <contour>
      <point x="32" y="123" type="line"/>
      <point x="32" y="-140" type="line"/>
      <point x="64" y="-140" type="line"/>
      <point x="133" y="58" type="line"/>
      <point x="133" y="123" type="line"/>
    </contour>
  </outline>
</glyph>
<glyph name="quotedblleft" format="1">
  <advance width="314"/>
  <unicode hex="201C"/>
  <outline>
    <contour>
      <point x="282" y="364" type="line"/>
      <point x="282" y="626" type="line"/>
      <point x="251" y="626" type="line"/>
      <point x="181" y="428" type="line"/>
      <point x="181" y="364" type="line"/>
    </contour>
    <contour>
      <point x="133" y="364" type="line"/>
      <point x="133" y="626" type="line"/>
      <point x="102" y="626" type="line"/>
      <point x="32" y="428" type="line"/>
      <point x="32" y="364" type="line"/>
    </contour>
  </outline>
</glyph>
<glyph name="quotedblright" format="1">
  <advance width="314"/>
  <unicode hex="201D"/>
  <outline>
    <contour>
      <point x="32" y="626" type="line"/>
      <point x="32" y="364" type="line"/>
      <point x="63" y="364" type="line"/>
      <point x="133" y="561" type="line"/>
      <point x="133" y="626" type="line"/>
    </contour>
    <contour>
      <point x="181" y="626" type="line"/>
      <point x="181" y="364" type="line"/>
      <point x="212" y="364" type="line"/>
      <point x="282" y="561" type="line"/>
      <point x="282" y="626" type="line"/>
    </contour>
  </outline>
</glyph>
<glyph name="quotedblbase" format="1">
  <advance width="314"/>
  <unicode hex="201E"/>
  <outline>
    <contour>
      <point x="32" y="123" type="line"/>
      <point x="32" y="-140" type="line"/>
      <point x="63" y="-140" type="line"/>
      <point x="133" y="58" type="line"/>
      <point x="133" y="123" type="line"/>
    </contour>
    <contour>
      <point x="181" y="123" type="line"/>
      <point x="181" y="-140" type="line"/>
      <point x="212" y="-140" type="line"/>
      <point x="282" y="58" type="line"/>
      <point x="282" y="123" type="line"/>
    </contour>
  </outline>
</glyph>
<glyph name="dagger" format="1">
  <advance width="362"/>
  <unicode hex="2020"/>
  <outline>
    <contour>
      <point x="136" y="626" type="line"/>
      <point x="136" y="-110" type="line"/>
      <point x="226" y="-110" type="line"/>
      <point x="226" y="626" type="line"/>
    </contour>
    <contour>
      <point x="356" y="465" type="line"/>
      <point x="6" y="465" type="line"/>
      <point x="6" y="394" type="line"/>
      <point x="356" y="394" type="line"/>
    </contour>
  </outline>
</glyph>
<glyph name="daggerdbl" format="1">
  <advance width="384"/>
  <unicode hex="2021"/>
  <outline>
    <contour>
      <point x="147" y="626" type="line"/>
      <point x="147" y="-153" type="line"/>
      <point x="237" y="-153" type="line"/>
      <point x="237" y="626" type="line"/>
    </contour>
    <contour>
      <point x="367" y="465" type="line"/>
      <point x="17" y="465" type="line"/>
      <point x="17" y="394" type="line"/>
      <point x="367" y="394" type="line"/>
    </contour>
    <contour>
      <point x="367" y="79" type="line"/>
      <point x="17" y="79" type="line"/>
      <point x="17" y="9" type="line"/>
      <point x="367" y="9" type="line"/>
    </contour>
  </outline>
</glyph>
<glyph name="bullet" format="1">
  <advance width="396"/>
  <unicode hex="2022"/>
  <outline>
    <contour>
      <point x="67" y="321" type="curve" smooth="yes"/>
      <point x="67" y="249"/>
      <point x="126" y="190"/>
      <point x="198" y="190" type="curve" smooth="yes"/>
      <point x="270" y="190"/>
      <point x="329" y="249"/>
      <point x="329" y="321" type="curve" smooth="yes"/>
      <point x="329" y="393"/>
      <point x="270" y="452"/>
      <point x="198" y="452" type="curve" smooth="yes"/>
      <point x="126" y="452"/>
      <point x="67" y="393"/>
    </contour>
  </outline>
</glyph>
<glyph name="ellipsis" format="1">
  <advance width="555"/>
  <unicode hex="2026"/>
  <outline>
    <contour>
      <point x="52" y="0" type="line"/>
      <point x="161" y="0" type="line"/>
      <point x="161" y="119" type="line"/>
      <point x="52" y="119" type="line"/>
    </contour>
    <contour>
      <point x="247" y="0" type="line"/>
      <point x="355" y="0" type="line"/>
      <point x="355" y="119" type="line"/>
      <point x="247" y="119" type="line"/>
    </contour>
    <contour>
      <point x="441" y="0" type="line"/>
      <point x="550" y="0" type="line"/>
      <point x="550" y="119" type="line"/>
      <point x="441" y="119" type="line"/>
    </contour>
  </outline>
</glyph>
<glyph name="guilsinglleft" format="1">
  <advance width="290"/>
  <unicode hex="2039"/>
  <outline>
    <contour>
      <point x="156" y="104" type="line"/>
      <point x="252" y="104" type="line"/>
      <point x="132" y="258" type="line"/>
      <point x="252" y="414" type="line"/>
      <point x="156" y="414" type="line"/>
      <point x="37" y="259" type="line"/>
    </contour>
  </outline>
</glyph>
<glyph name="guilsinglright" format="1">
  <advance width="291"/>
  <unicode hex="203A"/>
  <outline>
    <contour>
      <point x="252" y="259" type="line"/>
      <point x="133" y="414" type="line"/>
      <point x="37" y="414" type="line"/>
      <point x="158" y="258" type="line"/>
      <point x="37" y="104" type="line"/>
      <point x="133" y="104" type="line"/>
    </contour>
  </outline>
</glyph>
<glyph name="fraction" format="1">
  <advance width="390"/>
  <unicode hex="2044"/>
  <outline>
    <contour>
      <point x="275" y="700" type="line"/>
      <point x="2" y="-120" type="line"/>
      <point x="86" y="-120" type="line"/>
      <point x="359" y="700" type="line"/>
    </contour>
  </outline>
</glyph>
<glyph name="Euro" format="1">
  <advance width="399"/>
  <unicode hex="20AC"/>
  <outline>
    <contour>
      <point x="161" y="526" type="line"/>
      <point x="161" y="550"/>
      <point x="166" y="555"/>
      <point x="190" y="555" type="curve" smooth="yes"/>
      <point x="224" y="555" type="line"/>
      <point x="224" y="626" type="line"/>
      <point x="163" y="626" type="line" smooth="yes"/>
      <point x="98" y="626"/>
      <point x="69" y="595"/>
      <point x="69" y="538" type="curve" smooth="yes"/>
      <point x="69" y="88" type="line" smooth="yes"/>
      <point x="69" y="30"/>
      <point x="98" y="-1"/>
      <point x="163" y="-1" type="curve"/>
      <point x="219" y="-1" type="line"/>
      <point x="219" y="70" type="line"/>
      <point x="190" y="70" type="line" smooth="yes"/>
      <point x="166" y="70"/>
      <point x="161" y="75"/>
      <point x="161" y="99" type="curve" smooth="yes"/>
    </contour>
    <contour>
      <point x="271" y="430" type="line"/>
      <point x="362" y="430" type="line"/>
      <point x="362" y="538" type="line" smooth="yes"/>
      <point x="362" y="595"/>
      <point x="333" y="626"/>
      <point x="269" y="626" type="curve" smooth="yes"/>
      <point x="209" y="626" type="line"/>
      <point x="209" y="555" type="line"/>
      <point x="241" y="555" type="line" smooth="yes"/>
      <point x="265" y="555"/>
      <point x="271" y="550"/>
      <point x="271" y="526" type="curve" smooth="yes"/>
    </contour>
    <contour>
      <point x="271" y="99" type="line"/>
      <point x="271" y="75"/>
      <point x="265" y="70"/>
      <point x="241" y="70" type="curve" smooth="yes"/>
      <point x="209" y="70" type="line"/>
      <point x="209" y="-1" type="line"/>
      <point x="269" y="-1" type="line" smooth="yes"/>
      <point x="333" y="-1"/>
      <point x="362" y="30"/>
      <point x="362" y="88" type="curve" smooth="yes"/>
      <point x="362" y="194" type="line"/>
      <point x="271" y="194" type="line"/>
    </contour>
    <contour>
      <point x="248" y="288" type="line"/>
      <point x="23" y="288" type="line"/>
      <point x="23" y="221" type="line"/>
      <point x="248" y="221" type="line"/>
    </contour>
    <contour>
      <point x="248" y="405" type="line"/>
      <point x="23" y="405" type="line"/>
      <point x="23" y="339" type="line"/>
      <point x="248" y="339" type="line"/>
    </contour>
  </outline>
</glyph>
<glyph name="trademark" format="1">
  <advance width="626"/>
  <unicode hex="2122"/>
  <outline>
    <contour>
      <point x="87" y="614" type="line"/>
      <point x="87" y="302" type="line"/>
      <point x="166" y="302" type="line"/>
      <point x="166" y="614" type="line"/>
    </contour>
    <contour>
      <point x="248" y="626" type="line"/>
      <point x="6" y="626" type="line"/>
      <point x="6" y="560" type="line"/>
      <point x="248" y="560" type="line"/>
    </contour>
    <contour>
      <point x="284" y="626" type="line"/>
      <point x="284" y="302" type="line"/>
      <point x="355" y="302" type="line"/>
      <point x="355" y="511" type="line"/>
      <point x="406" y="357" type="line"/>
      <point x="475" y="357" type="line"/>
      <point x="524" y="511" type="line"/>
      <point x="524" y="302" type="line"/>
      <point x="596" y="302" type="line"/>
      <point x="596" y="626" type="line"/>
      <point x="501" y="626" type="line"/>
      <point x="440" y="441" type="line"/>
      <point x="378" y="626" type="line"/>
    </contour>
  </outline>
</glyph>
<glyph name="Omega.math" format="1">
  <advance width="404"/>
  <unicode hex="2126"/>
  <outline>
    <contour>
      <point x="261" y="190" type="line"/>
      <point x="351" y="190" type="line"/>
      <point x="351" y="538" type="line" smooth="yes"/>
      <point x="351" y="595"/>
      <point x="322" y="626"/>
      <point x="258" y="626" type="curve" smooth="yes"/>
      <point x="197" y="626" type="line"/>
      <point x="197" y="553" type="line"/>
      <point x="231" y="553" type="line" smooth="yes"/>
      <point x="255" y="553"/>
      <point x="261" y="548"/>
      <point x="261" y="524" type="curve" smooth="yes"/>
    </contour>
    <contour>
      <point x="261" y="104" type="line"/>
      <point x="261" y="80"/>
      <point x="256" y="73"/>
      <point x="233" y="73" type="curve" smooth="yes"/>
      <point x="224" y="73" type="line"/>
      <point x="224" y="61" type="line"/>
      <point x="258" y="61" type="line" smooth="yes"/>
      <point x="322" y="61"/>
      <point x="351" y="73"/>
      <point x="351" y="131" type="curve" smooth="yes"/>
      <point x="351" y="232" type="line"/>
      <point x="261" y="232" type="line"/>
    </contour>
    <contour>
      <point x="143" y="524" type="line"/>
      <point x="143" y="548"/>
      <point x="149" y="553"/>
      <point x="173" y="553" type="curve" smooth="yes"/>
      <point x="207" y="553" type="line"/>
      <point x="207" y="626" type="line"/>
      <point x="146" y="626" type="line" smooth="yes"/>
      <point x="82" y="626"/>
      <point x="53" y="595"/>
      <point x="53" y="538" type="curve" smooth="yes"/>
      <point x="53" y="189" type="line"/>
      <point x="143" y="189" type="line"/>
    </contour>
    <contour>
      <point x="143" y="238" type="line"/>
      <point x="53" y="238" type="line"/>
      <point x="53" y="131" type="line" smooth="yes"/>
      <point x="53" y="73"/>
      <point x="82" y="61"/>
      <point x="146" y="61" type="curve" smooth="yes"/>
      <point x="180" y="61" type="line"/>
      <point x="180" y="73" type="line"/>
      <point x="171" y="73" type="line" smooth="yes"/>
      <point x="148" y="73"/>
      <point x="143" y="80"/>
      <point x="143" y="104" type="curve" smooth="yes"/>
    </contour>
    <contour>
      <point x="393" y="73" type="line"/>
      <point x="221" y="73" type="line"/>
      <point x="221" y="0" type="line"/>
      <point x="393" y="0" type="line"/>
    </contour>
    <contour>
      <point x="183" y="73" type="line"/>
      <point x="11" y="73" type="line"/>
      <point x="11" y="0" type="line"/>
      <point x="183" y="0" type="line"/>
    </contour>
  </outline>
</glyph>
<glyph name="product" format="1">
  <advance width="436"/>
  <unicode hex="220F"/>
  <outline>
    <contour>
      <point x="67" y="106" type="line"/>
      <point x="67" y="82"/>
      <point x="62" y="77"/>
      <point x="38" y="77" type="curve" smooth="yes"/>
      <point x="8" y="77" type="line"/>
      <point x="8" y="0" type="line"/>
      <point x="64" y="0" type="line" smooth="yes"/>
      <point x="129" y="0"/>
      <point x="158" y="31"/>
      <point x="158" y="88" type="curve" smooth="yes"/>
      <point x="158" y="588" type="line"/>
      <point x="67" y="588" type="line"/>
    </contour>
    <contour>
      <point x="293" y="590" type="line"/>
      <point x="293" y="0" type="line"/>
      <point x="384" y="0" type="line"/>
      <point x="384" y="590" type="line"/>
    </contour>
    <contour>
      <point x="383" y="626" type="line"/>
      <point x="67" y="626" type="line"/>
      <point x="67" y="555" type="line"/>
      <point x="383" y="555" type="line"/>
    </contour>
  </outline>
</glyph>
<glyph name="minus" format="1">
  <advance width="440"/>
  <unicode hex="2212"/>
  <outline>
    <contour>
      <point x="23" y="276" type="line"/>
      <point x="385" y="276" type="line"/>
      <point x="385" y="350" type="line"/>
      <point x="23" y="350" type="line"/>
    </contour>
  </outline>
</glyph>
<glyph name="radical" format="1">
  <advance width="684"/>
  <unicode hex="221A"/>
  <outline>
    <contour>
      <point x="133" y="259" type="line"/>
      <point x="261" y="-120" type="line"/>
      <point x="344" y="-120" type="line"/>
      <point x="618" y="700" type="line"/>
      <point x="534" y="700" type="line"/>
      <point x="303" y="-28" type="line"/>
      <point x="217" y="259" type="line"/>
    </contour>
    <contour>
      <point x="193" y="259" type="line"/>
      <point x="77" y="259" type="line"/>
      <point x="77" y="188" type="line"/>
      <point x="193" y="188" type="line"/>
    </contour>
  </outline>
</glyph>
<glyph name="infinity" format="1">
  <advance width="590"/>
  <unicode hex="221E"/>
  <outline>
    <contour>
      <point x="144" y="202" type="line"/>
      <point x="160" y="202" type="line" smooth="yes"/>
      <point x="231" y="202"/>
      <point x="251" y="214"/>
      <point x="290" y="277" type="curve" smooth="yes"/>
      <point x="368" y="404" type="line"/>
      <point x="380" y="420"/>
      <point x="387" y="430"/>
      <point x="404" y="430" type="curve" smooth="yes"/>
      <point x="430" y="430" type="line"/>
      <point x="430" y="494" type="line"/>
      <point x="414" y="494" type="line" smooth="yes"/>
      <point x="354" y="494"/>
      <point x="344" y="481"/>
      <point x="310" y="428" type="curve" smooth="yes"/>
      <point x="224" y="296" type="line" smooth="yes"/>
      <point x="214" y="281"/>
      <point x="196" y="267"/>
      <point x="175" y="267" type="curve" smooth="yes"/>
      <point x="155" y="267" type="line"/>
    </contour>
    <contour>
      <point x="165" y="267" type="line"/>
      <point x="144" y="267" type="line" smooth="yes"/>
      <point x="116" y="267"/>
      <point x="113" y="275"/>
      <point x="113" y="301" type="curve" smooth="yes"/>
      <point x="113" y="395" type="line" smooth="yes"/>
      <point x="113" y="419"/>
      <point x="116" y="429"/>
      <point x="144" y="429" type="curve" smooth="yes"/>
      <point x="164" y="429" type="line"/>
      <point x="164" y="494" type="line"/>
      <point x="128" y="494" type="line" smooth="yes"/>
      <point x="63" y="494"/>
      <point x="37" y="460"/>
      <point x="37" y="409" type="curve" smooth="yes"/>
      <point x="37" y="288" type="line" smooth="yes"/>
      <point x="37" y="235"/>
      <point x="63" y="202"/>
      <point x="128" y="202" type="curve" smooth="yes"/>
      <point x="151" y="202" type="line"/>
    </contour>
    <contour>
      <point x="310" y="378" type="line"/>
      <point x="271" y="433" type="line" smooth="yes"/>
      <point x="238" y="478"/>
      <point x="222" y="494"/>
      <point x="165" y="494" type="curve" smooth="yes"/>
      <point x="155" y="494" type="line"/>
      <point x="155" y="429" type="line"/>
      <point x="166" y="429" type="line" smooth="yes"/>
      <point x="193" y="429"/>
      <point x="203" y="417"/>
      <point x="219" y="395" type="curve" smooth="yes"/>
      <point x="262" y="333" type="line"/>
    </contour>
    <contour>
      <point x="283" y="301" type="line"/>
      <point x="312" y="260" type="line" smooth="yes"/>
      <point x="347" y="212"/>
      <point x="366" y="202"/>
      <point x="423" y="202" type="curve" smooth="yes"/>
      <point x="435" y="202" type="line"/>
      <point x="435" y="267" type="line"/>
      <point x="414" y="267" type="line" smooth="yes"/>
      <point x="393" y="267"/>
      <point x="383" y="275"/>
      <point x="372" y="290" type="curve" smooth="yes"/>
      <point x="326" y="351" type="line"/>
    </contour>
    <contour>
      <point x="430" y="202" type="line"/>
      <point x="461" y="202" type="line" smooth="yes"/>
      <point x="528" y="202"/>
      <point x="553" y="235"/>
      <point x="553" y="288" type="curve"/>
      <point x="553" y="409" type="line" smooth="yes"/>
      <point x="553" y="460"/>
      <point x="528" y="494"/>
      <point x="461" y="494" type="curve" smooth="yes"/>
      <point x="427" y="494" type="line"/>
      <point x="427" y="430" type="line"/>
      <point x="446" y="430" type="line" smooth="yes"/>
      <point x="474" y="430"/>
      <point x="477" y="420"/>
      <point x="477" y="396" type="curve" smooth="yes"/>
      <point x="477" y="301" type="line" smooth="yes"/>
      <point x="477" y="275"/>
      <point x="474" y="267"/>
      <point x="446" y="267" type="curve" smooth="yes"/>
      <point x="429" y="267" type="line"/>
    </contour>
  </outline>
</glyph>
<glyph name="integral" format="1">
  <advance width="293"/>
  <unicode hex="222B"/>
  <outline>
    <contour>
      <point x="194" y="619" type="line"/>
      <point x="194" y="642"/>
      <point x="199" y="648"/>
      <point x="224" y="648" type="curve" smooth="yes"/>
      <point x="271" y="648" type="line"/>
      <point x="271" y="725" type="line"/>
      <point x="197" y="725" type="line" smooth="yes"/>
      <point x="133" y="725"/>
      <point x="104" y="694"/>
      <point x="104" y="636" type="curve" smooth="yes"/>
      <point x="104" y="-17" type="line" smooth="yes"/>
      <point x="101" y="-40"/>
      <point x="98" y="-46"/>
      <point x="74" y="-46" type="curve" smooth="yes"/>
      <point x="26" y="-46" type="line"/>
      <point x="26" y="-123" type="line"/>
      <point x="101" y="-123" type="line" smooth="yes"/>
      <point x="165" y="-123"/>
      <point x="194" y="-92"/>
      <point x="194" y="-34" type="curve"/>
    </contour>
  </outline>
</glyph>
